;TYPE=PLATED
;Layer: PTH_Through
;EasyEDA Pro Client v3.2.149.88089769, 2026-06-30 20:12:10
;Gerber Generator version 0.3
M48
METRIC,LZ,0000.00000
;Hole size 1 = 0.30500 METRIC
T01C0.30500
;Hole size 2 = 1.00000 METRIC
T02C1.00000
;Hole size 3 = 1.04999 METRIC
T03C1.04999
;Hole size 4 = 1.10002 METRIC
T04C1.10002
;Hole size 5 = 2.00000 METRIC
T05C2.00000
;Hole size 6 = 3.00000 METRIC
T06C3.00000
%
G05
G90
T01
X55.245Y-29.591
X4.826Y-8.89
X10.287Y-8.89
X4.318Y-29.337
X35.052Y24.003
X-7.747Y24.003
T02
X46.99Y35.052
X49.53Y35.052
X52.07Y35.052
X41.91Y35.052
X44.45Y35.052
X55.118Y-40.005
X52.578Y-40.005
X50.038Y-40.005
X47.498Y-40.005
X44.958Y-40.005
X42.418Y-40.005
X39.878Y-40.005
X37.338Y-40.005
X-18.52287Y35.42839
X-15.98287Y35.42839
X-13.44287Y35.42839
X-23.60287Y35.42839
X-21.06287Y35.42839
T03
X0.0Y26.67
X0.0Y24.13
X0.0Y21.59
X0.0Y19.05
X0.0Y16.51
X0.0Y13.97
X0.0Y11.43
X0.0Y8.89
X0.0Y6.35
X0.0Y3.81
X0.0Y1.27
X0.0Y-1.27
X0.0Y-3.81
X0.0Y-6.35
X0.0Y-8.89
X0.0Y-11.43
X0.0Y-13.97
X0.0Y-16.51
X0.0Y-19.05
X0.0Y-21.59
X0.0Y-24.13
X0.0Y-26.67
X25.4Y26.67
X25.4Y24.13
X25.4Y21.59
X25.4Y19.05
X25.4Y16.51
X25.4Y13.97
X25.4Y11.43
X25.4Y8.89
X25.4Y6.35
X25.4Y3.81
X25.4Y1.27
X25.4Y-1.27
X25.4Y-3.81
X25.4Y-6.35
X25.4Y-8.89
X25.4Y-11.43
X25.4Y-13.97
X25.4Y-16.51
X25.4Y-19.05
X25.4Y-21.59
X25.4Y-24.13
X25.4Y-26.67
T04
X-31.35Y-40.0
X-28.81Y-40.0
X-26.27Y-40.0
X-23.73Y-40.0
X-21.19Y-40.0
X-18.65Y-40.0
T05
X-20.00017Y-47.99998
X-10.00029Y-47.99998
X0.00049Y-47.99998
X9.99994Y-47.99987
X19.9996Y-47.99987
X-6.18492Y37.27847
T06
X57.7Y42.0
X-32.3Y42.0
X57.7Y-48.0
X-32.29958Y-48.00045
M30