G04 Layer: BottomSolderMaskLayer*
G04 EasyEDA Pro v3.2.149.88089769, 2026-06-30 20:12:10*
G04 Gerber Generator version 0.3*
G04 Scale: 100 percent, Rotated: No, Reflected: No*
G04 Dimensions in millimeters*
G04 Leading zeros omitted, absolute positions, 4 integers and 5 decimals*
G04 Generated by one-click*
G04 Object Configs: Pad,Via,Track,Text,Image,Dimension,BoardOutline,BoardCutout,CopperFilled,SolidRegion,FPCStiffener,Line,PlaneZone,ComponentProperty,ComponentSilkscreen,TearDrop*
G04 Layer Configs: 1,2,3,4,5,6,7,8,9,10,11,13,14,56*
G04 Copper Areas: 0*
%FSLAX45Y45*%
%MOMM*%
%AMRoundRect*1,1,$1,$2,$3*1,1,$1,$4,$5*1,1,$1,0-$2,0-$3*1,1,$1,0-$4,0-$5*20,1,$1,$2,$3,$4,$5,0*20,1,$1,$4,$5,0-$2,0-$3,0*20,1,$1,0-$2,0-$3,0-$4,0-$5,0*20,1,$1,0-$4,0-$5,$2,$3,0*4,1,4,$2,$3,$4,$5,0-$2,0-$3,0-$4,0-$5,$2,$3,0*%
%ADD10RoundRect,0.1016X-0.8X-0.8X-0.8X0.8*%
%ADD11C,1.7016*%
%ADD12C,1.70002*%
%ADD13RoundRect,0.10003X-0.8X0.8X0.8X0.8*%
%ADD14RoundRect,0.1016X-0.85X0.85X0.85X0.85*%
%ADD15C,1.8016*%
%ADD16C,1.6019*%
%ADD17C,1.6016*%
%ADD18RoundRect,0.1016X-0.75X0.75X0.75X0.75*%
%ADD19C,2.80002*%
G75*


G04 Pad Start*
G54D10*
G01X0Y2667000D03*
G54D11*
G01X0Y2413000D03*
G01X0Y2159000D03*
G01X0Y1905000D03*
G01X0Y1651000D03*
G01X0Y1397000D03*
G01X0Y1143000D03*
G01X0Y889000D03*
G01X0Y635000D03*
G01X0Y381000D03*
G01X0Y127000D03*
G01X0Y-127000D03*
G01X0Y-381000D03*
G01X0Y-635000D03*
G01X0Y-889000D03*
G01X0Y-1143000D03*
G01X0Y-1397000D03*
G01X0Y-1651000D03*
G01X0Y-1905000D03*
G01X0Y-2159000D03*
G01X0Y-2413000D03*
G01X0Y-2667000D03*
G54D10*
G01X2540000Y2667000D03*
G54D11*
G01X2540000Y2413000D03*
G01X2540000Y2159000D03*
G01X2540000Y1905000D03*
G01X2540000Y1651000D03*
G01X2540000Y1397000D03*
G01X2540000Y1143000D03*
G01X2540000Y889000D03*
G01X2540000Y635000D03*
G01X2540000Y381000D03*
G01X2540000Y127000D03*
G01X2540000Y-127000D03*
G01X2540000Y-381000D03*
G01X2540000Y-635000D03*
G01X2540000Y-889000D03*
G01X2540000Y-1143000D03*
G01X2540000Y-1397000D03*
G01X2540000Y-1651000D03*
G01X2540000Y-1905000D03*
G01X2540000Y-2159000D03*
G01X2540000Y-2413000D03*
G01X2540000Y-2667000D03*
G54D12*
G01X4699000Y3505200D03*
G01X4953000Y3505200D03*
G01X5207000Y3505200D03*
G54D13*
G01X4191000Y3505200D03*
G54D12*
G01X4445000Y3505200D03*
G54D14*
G01X-3135000Y-4000000D03*
G54D15*
G01X-2881000Y-4000000D03*
G01X-2627000Y-4000000D03*
G01X-2373000Y-4000000D03*
G01X-2119000Y-4000000D03*
G01X-1865000Y-4000000D03*
G54D17*
G01X5511797Y-4000500D03*
G01X5257797Y-4000500D03*
G01X5003797Y-4000500D03*
G01X4749797Y-4000500D03*
G01X4495797Y-4000500D03*
G01X4241797Y-4000500D03*
G01X3987797Y-4000500D03*
G54D18*
G01X3733797Y-4000500D03*
G54D19*
G01X-2000017Y-4799998D03*
G01X-1000029Y-4799998D03*
G01X49Y-4799998D03*
G01X999994Y-4799987D03*
G01X1999960Y-4799987D03*
G01X-618492Y3727847D03*
G54D12*
G01X-1852287Y3542839D03*
G01X-1598287Y3542839D03*
G01X-1344287Y3542839D03*
G54D13*
G01X-2360287Y3542839D03*
G54D12*
G01X-2106287Y3542839D03*
G04 Pad End*

M02*

