G04 Layer: DrillDrawingLayer*
G04 EasyEDA Pro v3.2.149.88089769, 2026-06-30 20:12:10*
G04 Gerber Generator version 0.3*
G04 Scale: 100 percent, Rotated: No, Reflected: No*
G04 Dimensions in millimeters*
G04 Leading zeros omitted, absolute positions, 4 integers and 5 decimals*
G04 Generated by one-click*
G04 Object Configs: Pad,Via,Track,Text,Image,Dimension,BoardOutline,BoardCutout,CopperFilled,SolidRegion,FPCStiffener,Line,PlaneZone,ComponentProperty,ComponentSilkscreen,TearDrop*
G04 Layer Configs: 1,2,3,4,5,6,7,8,9,10,11,13,14,56*
G04 Copper Areas: 0*
%FSLAX45Y45*%
%MOMM*%
%AMIconRect*4,1,4,0.28,-0.28,-0.28,-0.28,-0.28,0.28,0.28,0.28,0.28,-0.28,0*4,0,4,0.233333,-0.233333,0.233333,0.233333,-0.233333,0.233333,-0.233333,-0.233333,0.233333,-0.233333,0*%
%AMIconTriangle*4,1,3,-0.339593,0.240473,0.339593,0.240473,0,-0.37884,-0.339593,0.240473,0*4,0,3,-0.265673,0.19404,0,-0.27342,0.266233,0.19404,-0.265673,0.19404,0*%
%AMIconStar6*4,1,12,0.12068,0.20888,0.298527,0.172713,0.241313,0,0.298527,-0.17206,0.12068,-0.208227,0,-0.344073,-0.120073,-0.208227,-0.298573,-0.17206,-0.240707,0,-0.298573,0.17206,-0.120073,0.20888,0,0.344073,0.12068,0.20888,0*4,0,12,-0.000467,0.273467,-0.090067,0.171733,-0.237533,0.136733,-0.193667,-0.007467,-0.237533,-0.1372,-0.090067,-0.171733,-0.000467,-0.273933,0.090067,-0.171733,0.237533,-0.1372,0.194133,0.007,0.237533,0.1372,0.090067,0.171267,-0.000467,0.273467,0*%
%AMIconStar4*4,1,8,-0.311733,0.311733,0,0.202533,0.311733,0.311733,0.202533,0,0.311733,-0.311733,0,-0.202533,-0.304407,-0.311733,-0.202533,0,-0.311733,0.311733,0*4,0,8,0.233333,-0.233333,0.1512,0,0.233333,0.233333,0,0.1512,-0.233333,0.233333,-0.1512,0,-0.233333,-0.233333,0,-0.1512,0.233333,-0.233333,0*%
%AMIconPlus*4,1,12,0.1736,-0.28,-0.1736,-0.28,-0.1736,-0.1736,-0.28,-0.1736,-0.28,0.1736,-0.1736,0.1736,-0.1736,0.28,0.1736,0.28,0.1736,0.1736,0.28,0.1736,0.28,-0.1736,0.1736,-0.1736,0.1736,-0.28,0*4,0,12,0.126933,-0.233333,0.126933,-0.126933,0.233333,-0.126933,0.233333,0.126933,0.126933,0.126933,0.126933,0.233333,-0.126933,0.233333,-0.126933,0.126933,-0.233333,0.126933,-0.233333,-0.126933,-0.126933,-0.126933,-0.126933,-0.233333,0.126933,-0.233333,0*%
%ADD10IconRect*%
%ADD11C,0.616X0.522667*%
%ADD12IconTriangle*%
%ADD13IconStar6*%
%ADD14IconStar4*%
%ADD15IconPlus*%
%ADD16C,0.2032*%
%ADD17C,0.254*%
G75*


G04 Drill Drawing Start*
G54D10*
G01X-3230000Y4200000D03*
G01X-3229958Y-4800045D03*
G01X5770000Y-4800000D03*
G01X5770000Y4200000D03*
G54D11*
G01X-774700Y2400300D03*
G01X431800Y-2933700D03*
G01X482600Y-889000D03*
G01X1028700Y-889000D03*
G01X3505200Y2400300D03*
G01X5524500Y-2959100D03*
G54D12*
G01X-3135000Y-4000000D03*
G01X-2881000Y-4000000D03*
G01X-2627000Y-4000000D03*
G01X-2373000Y-4000000D03*
G01X-2119000Y-4000000D03*
G01X-1865000Y-4000000D03*
G54D13*
G01X-2000017Y-4799998D03*
G01X-1000029Y-4799998D03*
G01X-618492Y3727847D03*
G01X49Y-4799998D03*
G01X999994Y-4799987D03*
G01X1999960Y-4799987D03*
G54D14*
G01X-2360287Y3542839D03*
G01X-2106287Y3542839D03*
G01X-1852287Y3542839D03*
G01X-1598287Y3542839D03*
G01X-1344287Y3542839D03*
G01X3733800Y-4000500D03*
G01X3987800Y-4000500D03*
G01X4191000Y3505200D03*
G01X4241800Y-4000500D03*
G01X4445000Y3505200D03*
G01X4495800Y-4000500D03*
G01X4699000Y3505200D03*
G01X4749800Y-4000500D03*
G01X4953000Y3505200D03*
G01X5003800Y-4000500D03*
G01X5207000Y3505200D03*
G01X5257800Y-4000500D03*
G01X5511800Y-4000500D03*
G54D15*
G01X0Y2667000D03*
G01X0Y2413000D03*
G01X0Y2159000D03*
G01X0Y1905000D03*
G01X0Y1651000D03*
G01X0Y1397000D03*
G01X0Y1143000D03*
G01X0Y889000D03*
G01X0Y635000D03*
G01X0Y381000D03*
G01X0Y127000D03*
G01X0Y-127000D03*
G01X0Y-381000D03*
G01X0Y-635000D03*
G01X0Y-889000D03*
G01X0Y-1143000D03*
G01X0Y-1397000D03*
G01X0Y-1651000D03*
G01X0Y-1905000D03*
G01X0Y-2159000D03*
G01X0Y-2413000D03*
G01X0Y-2667000D03*
G01X2540000Y-2667000D03*
G01X2540000Y-2413000D03*
G01X2540000Y-2159000D03*
G01X2540000Y-1905000D03*
G01X2540000Y-1651000D03*
G01X2540000Y-1397000D03*
G01X2540000Y-1143000D03*
G01X2540000Y-889000D03*
G01X2540000Y-635000D03*
G01X2540000Y-381000D03*
G01X2540000Y-127000D03*
G01X2540000Y127000D03*
G01X2540000Y381000D03*
G01X2540000Y635000D03*
G01X2540000Y889000D03*
G01X2540000Y1143000D03*
G01X2540000Y1397000D03*
G01X2540000Y1651000D03*
G01X2540000Y1905000D03*
G01X2540000Y2159000D03*
G01X2540000Y2413000D03*
G01X2540000Y2667000D03*
G04 Drill Drawing End*

G04 Text Start*
G54D16*
G01X8570446Y4478294D02*
G01X8570446Y4358152D01*
G01X8570446Y4478294D02*
G01X8616166Y4358152D01*
G01X8661886Y4478294D02*
G01X8616166Y4358152D01*
G01X8661886Y4478294D02*
G01X8661886Y4358152D01*
G01X8778218Y4438162D02*
G01X8778218Y4358152D01*
G01X8778218Y4421144D02*
G01X8766788Y4432574D01*
G01X8755358Y4438162D01*
G01X8738340Y4438162D01*
G01X8726910Y4432574D01*
G01X8715480Y4421144D01*
G01X8709638Y4403872D01*
G01X8709638Y4392442D01*
G01X8715480Y4375424D01*
G01X8726910Y4363994D01*
G01X8738340Y4358152D01*
G01X8755358Y4358152D01*
G01X8766788Y4363994D01*
G01X8778218Y4375424D01*
G01X8825970Y4438162D02*
G01X8825970Y4358152D01*
G01X8825970Y4403872D02*
G01X8831812Y4421144D01*
G01X8843242Y4432574D01*
G01X8854672Y4438162D01*
G01X8871690Y4438162D01*
G01X8919442Y4478294D02*
G01X8919442Y4358152D01*
G01X8976592Y4438162D02*
G01X8919442Y4381012D01*
G01X8942302Y4403872D02*
G01X8982434Y4358152D01*
G01X10107726Y4449592D02*
G01X10101884Y4461022D01*
G01X10090454Y4472452D01*
G01X10079024Y4478294D01*
G01X10056164Y4478294D01*
G01X10044734Y4472452D01*
G01X10033304Y4461022D01*
G01X10027716Y4449592D01*
G01X10021874Y4432574D01*
G01X10021874Y4403872D01*
G01X10027716Y4386854D01*
G01X10033304Y4375424D01*
G01X10044734Y4363994D01*
G01X10056164Y4358152D01*
G01X10079024Y4358152D01*
G01X10090454Y4363994D01*
G01X10101884Y4375424D01*
G01X10107726Y4386854D01*
G01X10184180Y4438162D02*
G01X10172750Y4432574D01*
G01X10161320Y4421144D01*
G01X10155478Y4403872D01*
G01X10155478Y4392442D01*
G01X10161320Y4375424D01*
G01X10172750Y4363994D01*
G01X10184180Y4358152D01*
G01X10201198Y4358152D01*
G01X10212628Y4363994D01*
G01X10224058Y4375424D01*
G01X10229900Y4392442D01*
G01X10229900Y4403872D01*
G01X10224058Y4421144D01*
G01X10212628Y4432574D01*
G01X10201198Y4438162D01*
G01X10184180Y4438162D01*
G01X10277652Y4438162D02*
G01X10277652Y4381012D01*
G01X10283494Y4363994D01*
G01X10294924Y4358152D01*
G01X10311942Y4358152D01*
G01X10323372Y4363994D01*
G01X10340644Y4381012D01*
G01X10340644Y4438162D02*
G01X10340644Y4358152D01*
G01X10388396Y4438162D02*
G01X10388396Y4358152D01*
G01X10388396Y4415302D02*
G01X10405668Y4432574D01*
G01X10417098Y4438162D01*
G01X10434116Y4438162D01*
G01X10445546Y4432574D01*
G01X10451388Y4415302D01*
G01X10451388Y4358152D01*
G01X10516412Y4478294D02*
G01X10516412Y4381012D01*
G01X10522000Y4363994D01*
G01X10533430Y4358152D01*
G01X10544860Y4358152D01*
G01X10499140Y4438162D02*
G01X10539272Y4438162D01*
G01X11516048Y4461022D02*
G01X11504618Y4472452D01*
G01X11487600Y4478294D01*
G01X11464740Y4478294D01*
G01X11447468Y4472452D01*
G01X11436038Y4461022D01*
G01X11436038Y4449592D01*
G01X11441880Y4438162D01*
G01X11447468Y4432574D01*
G01X11458898Y4426732D01*
G01X11493188Y4415302D01*
G01X11504618Y4409714D01*
G01X11510460Y4403872D01*
G01X11516048Y4392442D01*
G01X11516048Y4375424D01*
G01X11504618Y4363994D01*
G01X11487600Y4358152D01*
G01X11464740Y4358152D01*
G01X11447468Y4363994D01*
G01X11436038Y4375424D01*
G01X11563800Y4478294D02*
G01X11569642Y4472452D01*
G01X11575230Y4478294D01*
G01X11569642Y4483882D01*
G01X11563800Y4478294D01*
G01X11569642Y4438162D02*
G01X11569642Y4358152D01*
G01X11685974Y4438162D02*
G01X11622982Y4358152D01*
G01X11622982Y4438162D02*
G01X11685974Y4438162D01*
G01X11622982Y4358152D02*
G01X11685974Y4358152D01*
G01X11733726Y4403872D02*
G01X11802306Y4403872D01*
G01X11802306Y4415302D01*
G01X11796718Y4426732D01*
G01X11790876Y4432574D01*
G01X11779446Y4438162D01*
G01X11762428Y4438162D01*
G01X11750998Y4432574D01*
G01X11739568Y4421144D01*
G01X11733726Y4403872D01*
G01X11733726Y4392442D01*
G01X11739568Y4375424D01*
G01X11750998Y4363994D01*
G01X11762428Y4358152D01*
G01X11779446Y4358152D01*
G01X11790876Y4363994D01*
G01X11802306Y4375424D01*
G01X15329495Y4478294D02*
G01X15329495Y4358152D01*
G01X15329495Y4478294D02*
G01X15381057Y4478294D01*
G01X15398075Y4472452D01*
G01X15403917Y4466864D01*
G01X15409505Y4455434D01*
G01X15409505Y4438162D01*
G01X15403917Y4426732D01*
G01X15398075Y4421144D01*
G01X15381057Y4415302D01*
G01X15329495Y4415302D01*
G01X15457257Y4478294D02*
G01X15457257Y4358152D01*
G01X15573589Y4438162D02*
G01X15573589Y4358152D01*
G01X15573589Y4421144D02*
G01X15562159Y4432574D01*
G01X15550729Y4438162D01*
G01X15533711Y4438162D01*
G01X15522281Y4432574D01*
G01X15510851Y4421144D01*
G01X15505009Y4403872D01*
G01X15505009Y4392442D01*
G01X15510851Y4375424D01*
G01X15522281Y4363994D01*
G01X15533711Y4358152D01*
G01X15550729Y4358152D01*
G01X15562159Y4363994D01*
G01X15573589Y4375424D01*
G01X15638613Y4478294D02*
G01X15638613Y4381012D01*
G01X15644201Y4363994D01*
G01X15655631Y4358152D01*
G01X15667061Y4358152D01*
G01X15621341Y4438162D02*
G01X15661473Y4438162D01*
G01X15714813Y4403872D02*
G01X15783393Y4403872D01*
G01X15783393Y4415302D01*
G01X15777805Y4426732D01*
G01X15771963Y4432574D01*
G01X15760533Y4438162D01*
G01X15743515Y4438162D01*
G01X15732085Y4432574D01*
G01X15720655Y4421144D01*
G01X15714813Y4403872D01*
G01X15714813Y4392442D01*
G01X15720655Y4375424D01*
G01X15732085Y4363994D01*
G01X15743515Y4358152D01*
G01X15760533Y4358152D01*
G01X15771963Y4363994D01*
G01X15783393Y4375424D01*
G01X15899725Y4478294D02*
G01X15899725Y4358152D01*
G01X15899725Y4421144D02*
G01X15888295Y4432574D01*
G01X15876865Y4438162D01*
G01X15859847Y4438162D01*
G01X15848417Y4432574D01*
G01X15836987Y4421144D01*
G01X15831145Y4403872D01*
G01X15831145Y4392442D01*
G01X15836987Y4375424D01*
G01X15848417Y4363994D01*
G01X15859847Y4358152D01*
G01X15876865Y4358152D01*
G01X15888295Y4363994D01*
G01X15899725Y4375424D01*
G01X16870912Y4461022D02*
G01X16859482Y4472452D01*
G01X16842464Y4478294D01*
G01X16819604Y4478294D01*
G01X16802332Y4472452D01*
G01X16790902Y4461022D01*
G01X16790902Y4449592D01*
G01X16796744Y4438162D01*
G01X16802332Y4432574D01*
G01X16813762Y4426732D01*
G01X16848052Y4415302D01*
G01X16859482Y4409714D01*
G01X16865324Y4403872D01*
G01X16870912Y4392442D01*
G01X16870912Y4375424D01*
G01X16859482Y4363994D01*
G01X16842464Y4358152D01*
G01X16819604Y4358152D01*
G01X16802332Y4363994D01*
G01X16790902Y4375424D01*
G01X16918664Y4478294D02*
G01X16918664Y4358152D01*
G01X16918664Y4415302D02*
G01X16935936Y4432574D01*
G01X16947366Y4438162D01*
G01X16964384Y4438162D01*
G01X16975814Y4432574D01*
G01X16981656Y4415302D01*
G01X16981656Y4358152D01*
G01X17097988Y4438162D02*
G01X17097988Y4358152D01*
G01X17097988Y4421144D02*
G01X17086558Y4432574D01*
G01X17075128Y4438162D01*
G01X17058110Y4438162D01*
G01X17046680Y4432574D01*
G01X17035250Y4421144D01*
G01X17029408Y4403872D01*
G01X17029408Y4392442D01*
G01X17035250Y4375424D01*
G01X17046680Y4363994D01*
G01X17058110Y4358152D01*
G01X17075128Y4358152D01*
G01X17086558Y4363994D01*
G01X17097988Y4375424D01*
G01X17145740Y4438162D02*
G01X17145740Y4318274D01*
G01X17145740Y4421144D02*
G01X17157170Y4432574D01*
G01X17168600Y4438162D01*
G01X17185872Y4438162D01*
G01X17197302Y4432574D01*
G01X17208732Y4421144D01*
G01X17214320Y4403872D01*
G01X17214320Y4392442D01*
G01X17208732Y4375424D01*
G01X17197302Y4363994D01*
G01X17185872Y4358152D01*
G01X17168600Y4358152D01*
G01X17157170Y4363994D01*
G01X17145740Y4375424D01*
G01X17262072Y4403872D02*
G01X17330652Y4403872D01*
G01X17330652Y4415302D01*
G01X17325064Y4426732D01*
G01X17319222Y4432574D01*
G01X17307792Y4438162D01*
G01X17290774Y4438162D01*
G01X17279344Y4432574D01*
G01X17267914Y4421144D01*
G01X17262072Y4403872D01*
G01X17262072Y4392442D01*
G01X17267914Y4375424D01*
G01X17279344Y4363994D01*
G01X17290774Y4358152D01*
G01X17307792Y4358152D01*
G01X17319222Y4363994D01*
G01X17330652Y4375424D01*
G01X18222083Y4478294D02*
G01X18267803Y4358152D01*
G01X18313523Y4478294D02*
G01X18267803Y4358152D01*
G01X18361275Y4478294D02*
G01X18367117Y4472452D01*
G01X18372705Y4478294D01*
G01X18367117Y4483882D01*
G01X18361275Y4478294D01*
G01X18367117Y4438162D02*
G01X18367117Y4358152D01*
G01X18489037Y4438162D02*
G01X18489037Y4358152D01*
G01X18489037Y4421144D02*
G01X18477607Y4432574D01*
G01X18466177Y4438162D01*
G01X18449159Y4438162D01*
G01X18437729Y4432574D01*
G01X18426299Y4421144D01*
G01X18420457Y4403872D01*
G01X18420457Y4392442D01*
G01X18426299Y4375424D01*
G01X18437729Y4363994D01*
G01X18449159Y4358152D01*
G01X18466177Y4358152D01*
G01X18477607Y4363994D01*
G01X18489037Y4375424D01*
G01X18639659Y4501154D02*
G01X18536789Y4318274D01*
G01X18687411Y4478294D02*
G01X18687411Y4358152D01*
G01X18687411Y4478294D02*
G01X18738973Y4478294D01*
G01X18755991Y4472452D01*
G01X18761833Y4466864D01*
G01X18767421Y4455434D01*
G01X18767421Y4438162D01*
G01X18761833Y4426732D01*
G01X18755991Y4421144D01*
G01X18738973Y4415302D01*
G01X18687411Y4415302D01*
G01X18883753Y4438162D02*
G01X18883753Y4358152D01*
G01X18883753Y4421144D02*
G01X18872323Y4432574D01*
G01X18860893Y4438162D01*
G01X18843875Y4438162D01*
G01X18832445Y4432574D01*
G01X18821015Y4421144D01*
G01X18815173Y4403872D01*
G01X18815173Y4392442D01*
G01X18821015Y4375424D01*
G01X18832445Y4363994D01*
G01X18843875Y4358152D01*
G01X18860893Y4358152D01*
G01X18872323Y4363994D01*
G01X18883753Y4375424D01*
G01X19000085Y4478294D02*
G01X19000085Y4358152D01*
G01X19000085Y4421144D02*
G01X18988655Y4432574D01*
G01X18977225Y4438162D01*
G01X18960207Y4438162D01*
G01X18948777Y4432574D01*
G01X18937347Y4421144D01*
G01X18931505Y4403872D01*
G01X18931505Y4392442D01*
G01X18937347Y4375424D01*
G01X18948777Y4363994D01*
G01X18960207Y4358152D01*
G01X18977225Y4358152D01*
G01X18988655Y4363994D01*
G01X19000085Y4375424D01*
G01X19891262Y4478294D02*
G01X19891262Y4358152D01*
G01X19891262Y4478294D02*
G01X19942824Y4478294D01*
G01X19959842Y4472452D01*
G01X19965684Y4466864D01*
G01X19971272Y4455434D01*
G01X19971272Y4438162D01*
G01X19965684Y4426732D01*
G01X19959842Y4421144D01*
G01X19942824Y4415302D01*
G01X19891262Y4415302D01*
G01X20087604Y4438162D02*
G01X20087604Y4358152D01*
G01X20087604Y4421144D02*
G01X20076174Y4432574D01*
G01X20064744Y4438162D01*
G01X20047726Y4438162D01*
G01X20036296Y4432574D01*
G01X20024866Y4421144D01*
G01X20019024Y4403872D01*
G01X20019024Y4392442D01*
G01X20024866Y4375424D01*
G01X20036296Y4363994D01*
G01X20047726Y4358152D01*
G01X20064744Y4358152D01*
G01X20076174Y4363994D01*
G01X20087604Y4375424D01*
G01X20203936Y4478294D02*
G01X20203936Y4358152D01*
G01X20203936Y4421144D02*
G01X20192506Y4432574D01*
G01X20181076Y4438162D01*
G01X20164058Y4438162D01*
G01X20152628Y4432574D01*
G01X20141198Y4421144D01*
G01X20135356Y4403872D01*
G01X20135356Y4392442D01*
G01X20141198Y4375424D01*
G01X20152628Y4363994D01*
G01X20164058Y4358152D01*
G01X20181076Y4358152D01*
G01X20192506Y4363994D01*
G01X20203936Y4375424D01*
G01X20459714Y4461022D02*
G01X20448284Y4472452D01*
G01X20431266Y4478294D01*
G01X20408406Y4478294D01*
G01X20391134Y4472452D01*
G01X20379704Y4461022D01*
G01X20379704Y4449592D01*
G01X20385546Y4438162D01*
G01X20391134Y4432574D01*
G01X20402564Y4426732D01*
G01X20436854Y4415302D01*
G01X20448284Y4409714D01*
G01X20454126Y4403872D01*
G01X20459714Y4392442D01*
G01X20459714Y4375424D01*
G01X20448284Y4363994D01*
G01X20431266Y4358152D01*
G01X20408406Y4358152D01*
G01X20391134Y4363994D01*
G01X20379704Y4375424D01*
G01X20507466Y4478294D02*
G01X20507466Y4358152D01*
G01X20507466Y4415302D02*
G01X20524738Y4432574D01*
G01X20536168Y4438162D01*
G01X20553186Y4438162D01*
G01X20564616Y4432574D01*
G01X20570458Y4415302D01*
G01X20570458Y4358152D01*
G01X20686790Y4438162D02*
G01X20686790Y4358152D01*
G01X20686790Y4421144D02*
G01X20675360Y4432574D01*
G01X20663930Y4438162D01*
G01X20646912Y4438162D01*
G01X20635482Y4432574D01*
G01X20624052Y4421144D01*
G01X20618210Y4403872D01*
G01X20618210Y4392442D01*
G01X20624052Y4375424D01*
G01X20635482Y4363994D01*
G01X20646912Y4358152D01*
G01X20663930Y4358152D01*
G01X20675360Y4363994D01*
G01X20686790Y4375424D01*
G01X20734542Y4438162D02*
G01X20734542Y4318274D01*
G01X20734542Y4421144D02*
G01X20745972Y4432574D01*
G01X20757402Y4438162D01*
G01X20774674Y4438162D01*
G01X20786104Y4432574D01*
G01X20797534Y4421144D01*
G01X20803122Y4403872D01*
G01X20803122Y4392442D01*
G01X20797534Y4375424D01*
G01X20786104Y4363994D01*
G01X20774674Y4358152D01*
G01X20757402Y4358152D01*
G01X20745972Y4363994D01*
G01X20734542Y4375424D01*
G01X20850874Y4403872D02*
G01X20919454Y4403872D01*
G01X20919454Y4415302D01*
G01X20913866Y4426732D01*
G01X20908024Y4432574D01*
G01X20896594Y4438162D01*
G01X20879576Y4438162D01*
G01X20868146Y4432574D01*
G01X20856716Y4421144D01*
G01X20850874Y4403872D01*
G01X20850874Y4392442D01*
G01X20856716Y4375424D01*
G01X20868146Y4363994D01*
G01X20879576Y4358152D01*
G01X20896594Y4358152D01*
G01X20908024Y4363994D01*
G01X20919454Y4375424D01*
G01X21810631Y4478294D02*
G01X21810631Y4358152D01*
G01X21810631Y4358152D02*
G01X21879211Y4358152D01*
G01X21995543Y4438162D02*
G01X21995543Y4358152D01*
G01X21995543Y4421144D02*
G01X21984113Y4432574D01*
G01X21972683Y4438162D01*
G01X21955665Y4438162D01*
G01X21944235Y4432574D01*
G01X21932805Y4421144D01*
G01X21926963Y4403872D01*
G01X21926963Y4392442D01*
G01X21932805Y4375424D01*
G01X21944235Y4363994D01*
G01X21955665Y4358152D01*
G01X21972683Y4358152D01*
G01X21984113Y4363994D01*
G01X21995543Y4375424D01*
G01X22049137Y4438162D02*
G01X22083427Y4358152D01*
G01X22117717Y4438162D02*
G01X22083427Y4358152D01*
G01X22071997Y4335292D01*
G01X22060567Y4323862D01*
G01X22049137Y4318274D01*
G01X22043295Y4318274D01*
G01X22165469Y4403872D02*
G01X22234049Y4403872D01*
G01X22234049Y4415302D01*
G01X22228461Y4426732D01*
G01X22222619Y4432574D01*
G01X22211189Y4438162D01*
G01X22194171Y4438162D01*
G01X22182741Y4432574D01*
G01X22171311Y4421144D01*
G01X22165469Y4403872D01*
G01X22165469Y4392442D01*
G01X22171311Y4375424D01*
G01X22182741Y4363994D01*
G01X22194171Y4358152D01*
G01X22211189Y4358152D01*
G01X22222619Y4363994D01*
G01X22234049Y4375424D01*
G01X22281801Y4438162D02*
G01X22281801Y4358152D01*
G01X22281801Y4403872D02*
G01X22287643Y4421144D01*
G01X22299073Y4432574D01*
G01X22310503Y4438162D01*
G01X22327521Y4438162D01*
G01X22503289Y4478294D02*
G01X22503289Y4358152D01*
G01X22503289Y4478294D02*
G01X22554851Y4478294D01*
G01X22571869Y4472452D01*
G01X22577711Y4466864D01*
G01X22583299Y4455434D01*
G01X22583299Y4438162D01*
G01X22577711Y4426732D01*
G01X22571869Y4421144D01*
G01X22554851Y4415302D01*
G01X22503289Y4415302D01*
G01X22699631Y4438162D02*
G01X22699631Y4358152D01*
G01X22699631Y4421144D02*
G01X22688201Y4432574D01*
G01X22676771Y4438162D01*
G01X22659753Y4438162D01*
G01X22648323Y4432574D01*
G01X22636893Y4421144D01*
G01X22631051Y4403872D01*
G01X22631051Y4392442D01*
G01X22636893Y4375424D01*
G01X22648323Y4363994D01*
G01X22659753Y4358152D01*
G01X22676771Y4358152D01*
G01X22688201Y4363994D01*
G01X22699631Y4375424D01*
G01X22747383Y4478294D02*
G01X22753225Y4472452D01*
G01X22758813Y4478294D01*
G01X22753225Y4483882D01*
G01X22747383Y4478294D01*
G01X22753225Y4438162D02*
G01X22753225Y4358152D01*
G01X22806565Y4438162D02*
G01X22806565Y4358152D01*
G01X22806565Y4403872D02*
G01X22812407Y4421144D01*
G01X22823837Y4432574D01*
G01X22835267Y4438162D01*
G01X22852285Y4438162D01*
G01X10079024Y3897723D02*
G01X10021874Y3817713D01*
G01X10107726Y3817713D01*
G01X10079024Y3897723D02*
G01X10079024Y3777581D01*
G01X11436038Y3874863D02*
G01X11447468Y3880451D01*
G01X11464740Y3897723D01*
G01X11464740Y3777581D01*
G01X11512492Y3874863D02*
G01X11523922Y3880451D01*
G01X11541194Y3897723D01*
G01X11541194Y3777581D01*
G01X11617648Y3897723D02*
G01X11600376Y3891881D01*
G01X11594788Y3880451D01*
G01X11594788Y3869021D01*
G01X11600376Y3857591D01*
G01X11611806Y3852003D01*
G01X11634666Y3846161D01*
G01X11651938Y3840573D01*
G01X11663368Y3829143D01*
G01X11668956Y3817713D01*
G01X11668956Y3800441D01*
G01X11663368Y3789011D01*
G01X11657526Y3783423D01*
G01X11640508Y3777581D01*
G01X11617648Y3777581D01*
G01X11600376Y3783423D01*
G01X11594788Y3789011D01*
G01X11588946Y3800441D01*
G01X11588946Y3817713D01*
G01X11594788Y3829143D01*
G01X11606218Y3840573D01*
G01X11623236Y3846161D01*
G01X11646096Y3852003D01*
G01X11657526Y3857591D01*
G01X11663368Y3869021D01*
G01X11663368Y3880451D01*
G01X11657526Y3891881D01*
G01X11640508Y3897723D01*
G01X11617648Y3897723D01*
G01X11722550Y3806283D02*
G01X11716708Y3800441D01*
G01X11722550Y3794853D01*
G01X11728138Y3800441D01*
G01X11722550Y3806283D01*
G01X11775890Y3874863D02*
G01X11787320Y3880451D01*
G01X11804592Y3897723D01*
G01X11804592Y3777581D01*
G01X11852344Y3857591D02*
G01X11852344Y3777581D01*
G01X11852344Y3834731D02*
G01X11869616Y3852003D01*
G01X11881046Y3857591D01*
G01X11898064Y3857591D01*
G01X11909494Y3852003D01*
G01X11915336Y3834731D01*
G01X11915336Y3777581D01*
G01X11915336Y3834731D02*
G01X11932354Y3852003D01*
G01X11943784Y3857591D01*
G01X11961056Y3857591D01*
G01X11972486Y3852003D01*
G01X11978074Y3834731D01*
G01X11978074Y3777581D01*
G01X12025826Y3897723D02*
G01X12031668Y3891881D01*
G01X12037256Y3897723D01*
G01X12031668Y3903311D01*
G01X12025826Y3897723D01*
G01X12031668Y3857591D02*
G01X12031668Y3777581D01*
G01X12085008Y3897723D02*
G01X12085008Y3777581D01*
G01X12172892Y3920583D02*
G01X12161462Y3909153D01*
G01X12150032Y3891881D01*
G01X12138602Y3869021D01*
G01X12132760Y3840573D01*
G01X12132760Y3817713D01*
G01X12138602Y3789011D01*
G01X12150032Y3766151D01*
G01X12161462Y3749133D01*
G01X12172892Y3737703D01*
G01X12232074Y3897723D02*
G01X12295066Y3897723D01*
G01X12260776Y3852003D01*
G01X12277794Y3852003D01*
G01X12289224Y3846161D01*
G01X12295066Y3840573D01*
G01X12300654Y3823301D01*
G01X12300654Y3811871D01*
G01X12295066Y3794853D01*
G01X12283636Y3783423D01*
G01X12266364Y3777581D01*
G01X12249346Y3777581D01*
G01X12232074Y3783423D01*
G01X12226486Y3789011D01*
G01X12220644Y3800441D01*
G01X12354248Y3806283D02*
G01X12348406Y3800441D01*
G01X12354248Y3794853D01*
G01X12359836Y3800441D01*
G01X12354248Y3806283D01*
G01X12441878Y3897723D02*
G01X12424860Y3891881D01*
G01X12413430Y3874863D01*
G01X12407588Y3846161D01*
G01X12407588Y3829143D01*
G01X12413430Y3800441D01*
G01X12424860Y3783423D01*
G01X12441878Y3777581D01*
G01X12453308Y3777581D01*
G01X12470580Y3783423D01*
G01X12482010Y3800441D01*
G01X12487598Y3829143D01*
G01X12487598Y3846161D01*
G01X12482010Y3874863D01*
G01X12470580Y3891881D01*
G01X12453308Y3897723D01*
G01X12441878Y3897723D01*
G01X12569640Y3897723D02*
G01X12552622Y3891881D01*
G01X12541192Y3874863D01*
G01X12535350Y3846161D01*
G01X12535350Y3829143D01*
G01X12541192Y3800441D01*
G01X12552622Y3783423D01*
G01X12569640Y3777581D01*
G01X12581070Y3777581D01*
G01X12598342Y3783423D01*
G01X12609772Y3800441D01*
G01X12615360Y3829143D01*
G01X12615360Y3846161D01*
G01X12609772Y3874863D01*
G01X12598342Y3891881D01*
G01X12581070Y3897723D01*
G01X12569640Y3897723D01*
G01X12697402Y3897723D02*
G01X12680384Y3891881D01*
G01X12668954Y3874863D01*
G01X12663112Y3846161D01*
G01X12663112Y3829143D01*
G01X12668954Y3800441D01*
G01X12680384Y3783423D01*
G01X12697402Y3777581D01*
G01X12708832Y3777581D01*
G01X12726104Y3783423D01*
G01X12737534Y3800441D01*
G01X12743122Y3829143D01*
G01X12743122Y3846161D01*
G01X12737534Y3874863D01*
G01X12726104Y3891881D01*
G01X12708832Y3897723D01*
G01X12697402Y3897723D01*
G01X12790874Y3857591D02*
G01X12790874Y3777581D01*
G01X12790874Y3834731D02*
G01X12808146Y3852003D01*
G01X12819576Y3857591D01*
G01X12836594Y3857591D01*
G01X12848024Y3852003D01*
G01X12853866Y3834731D01*
G01X12853866Y3777581D01*
G01X12853866Y3834731D02*
G01X12870884Y3852003D01*
G01X12882314Y3857591D01*
G01X12899586Y3857591D01*
G01X12911016Y3852003D01*
G01X12916604Y3834731D01*
G01X12916604Y3777581D01*
G01X12964356Y3857591D02*
G01X12964356Y3777581D01*
G01X12964356Y3834731D02*
G01X12981628Y3852003D01*
G01X12993058Y3857591D01*
G01X13010076Y3857591D01*
G01X13021506Y3852003D01*
G01X13027348Y3834731D01*
G01X13027348Y3777581D01*
G01X13027348Y3834731D02*
G01X13044366Y3852003D01*
G01X13055796Y3857591D01*
G01X13073068Y3857591D01*
G01X13084498Y3852003D01*
G01X13090086Y3834731D01*
G01X13090086Y3777581D01*
G01X13137838Y3920583D02*
G01X13149268Y3909153D01*
G01X13160698Y3891881D01*
G01X13172128Y3869021D01*
G01X13177970Y3840573D01*
G01X13177970Y3817713D01*
G01X13172128Y3789011D01*
G01X13160698Y3766151D01*
G01X13149268Y3749133D01*
G01X13137838Y3737703D01*
G01X15329495Y3897723D02*
G01X15329495Y3777581D01*
G01X15329495Y3897723D02*
G01X15381057Y3897723D01*
G01X15398075Y3891881D01*
G01X15403917Y3886293D01*
G01X15409505Y3874863D01*
G01X15409505Y3857591D01*
G01X15403917Y3846161D01*
G01X15398075Y3840573D01*
G01X15381057Y3834731D01*
G01X15329495Y3834731D01*
G01X15497389Y3897723D02*
G01X15497389Y3777581D01*
G01X15457257Y3897723D02*
G01X15537267Y3897723D01*
G01X15585019Y3897723D02*
G01X15585019Y3777581D01*
G01X15665029Y3897723D02*
G01X15665029Y3777581D01*
G01X15585019Y3840573D02*
G01X15665029Y3840573D01*
G01X16790902Y3897723D02*
G01X16790902Y3777581D01*
G01X16790902Y3897723D02*
G01X16842464Y3897723D01*
G01X16859482Y3891881D01*
G01X16865324Y3886293D01*
G01X16870912Y3874863D01*
G01X16870912Y3863433D01*
G01X16865324Y3852003D01*
G01X16859482Y3846161D01*
G01X16842464Y3840573D01*
G01X16790902Y3840573D01*
G01X16831034Y3840573D02*
G01X16870912Y3777581D01*
G01X16947366Y3857591D02*
G01X16935936Y3852003D01*
G01X16924506Y3840573D01*
G01X16918664Y3823301D01*
G01X16918664Y3811871D01*
G01X16924506Y3794853D01*
G01X16935936Y3783423D01*
G01X16947366Y3777581D01*
G01X16964384Y3777581D01*
G01X16975814Y3783423D01*
G01X16987244Y3794853D01*
G01X16993086Y3811871D01*
G01X16993086Y3823301D01*
G01X16987244Y3840573D01*
G01X16975814Y3852003D01*
G01X16964384Y3857591D01*
G01X16947366Y3857591D01*
G01X17040838Y3857591D02*
G01X17040838Y3800441D01*
G01X17046680Y3783423D01*
G01X17058110Y3777581D01*
G01X17075128Y3777581D01*
G01X17086558Y3783423D01*
G01X17103830Y3800441D01*
G01X17103830Y3857591D02*
G01X17103830Y3777581D01*
G01X17151582Y3857591D02*
G01X17151582Y3777581D01*
G01X17151582Y3834731D02*
G01X17168854Y3852003D01*
G01X17180284Y3857591D01*
G01X17197302Y3857591D01*
G01X17208732Y3852003D01*
G01X17214574Y3834731D01*
G01X17214574Y3777581D01*
G01X17330906Y3897723D02*
G01X17330906Y3777581D01*
G01X17330906Y3840573D02*
G01X17319476Y3852003D01*
G01X17308046Y3857591D01*
G01X17291028Y3857591D01*
G01X17279598Y3852003D01*
G01X17268168Y3840573D01*
G01X17262326Y3823301D01*
G01X17262326Y3811871D01*
G01X17268168Y3794853D01*
G01X17279598Y3783423D01*
G01X17291028Y3777581D01*
G01X17308046Y3777581D01*
G01X17319476Y3783423D01*
G01X17330906Y3794853D01*
G01X18222083Y3897723D02*
G01X18267803Y3777581D01*
G01X18313523Y3897723D02*
G01X18267803Y3777581D01*
G01X18361275Y3897723D02*
G01X18367117Y3891881D01*
G01X18372705Y3897723D01*
G01X18367117Y3903311D01*
G01X18361275Y3897723D01*
G01X18367117Y3857591D02*
G01X18367117Y3777581D01*
G01X18489037Y3857591D02*
G01X18489037Y3777581D01*
G01X18489037Y3840573D02*
G01X18477607Y3852003D01*
G01X18466177Y3857591D01*
G01X18449159Y3857591D01*
G01X18437729Y3852003D01*
G01X18426299Y3840573D01*
G01X18420457Y3823301D01*
G01X18420457Y3811871D01*
G01X18426299Y3794853D01*
G01X18437729Y3783423D01*
G01X18449159Y3777581D01*
G01X18466177Y3777581D01*
G01X18477607Y3783423D01*
G01X18489037Y3794853D01*
G01X21850763Y3897723D02*
G01X21850763Y3777581D01*
G01X21810631Y3897723D02*
G01X21890641Y3897723D01*
G01X21967095Y3857591D02*
G01X21955665Y3852003D01*
G01X21944235Y3840573D01*
G01X21938393Y3823301D01*
G01X21938393Y3811871D01*
G01X21944235Y3794853D01*
G01X21955665Y3783423D01*
G01X21967095Y3777581D01*
G01X21984113Y3777581D01*
G01X21995543Y3783423D01*
G01X22006973Y3794853D01*
G01X22012815Y3811871D01*
G01X22012815Y3823301D01*
G01X22006973Y3840573D01*
G01X21995543Y3852003D01*
G01X21984113Y3857591D01*
G01X21967095Y3857591D01*
G01X22060567Y3857591D02*
G01X22060567Y3737703D01*
G01X22060567Y3840573D02*
G01X22071997Y3852003D01*
G01X22083427Y3857591D01*
G01X22100699Y3857591D01*
G01X22112129Y3852003D01*
G01X22123559Y3840573D01*
G01X22129147Y3823301D01*
G01X22129147Y3811871D01*
G01X22123559Y3794853D01*
G01X22112129Y3783423D01*
G01X22100699Y3777581D01*
G01X22083427Y3777581D01*
G01X22071997Y3783423D01*
G01X22060567Y3794853D01*
G01X22304915Y3897723D02*
G01X22304915Y3777581D01*
G01X22304915Y3777581D02*
G01X22373495Y3777581D01*
G01X22489827Y3857591D02*
G01X22489827Y3777581D01*
G01X22489827Y3840573D02*
G01X22478397Y3852003D01*
G01X22466967Y3857591D01*
G01X22449949Y3857591D01*
G01X22438519Y3852003D01*
G01X22427089Y3840573D01*
G01X22421247Y3823301D01*
G01X22421247Y3811871D01*
G01X22427089Y3794853D01*
G01X22438519Y3783423D01*
G01X22449949Y3777581D01*
G01X22466967Y3777581D01*
G01X22478397Y3783423D01*
G01X22489827Y3794853D01*
G01X22543421Y3857591D02*
G01X22577711Y3777581D01*
G01X22612001Y3857591D02*
G01X22577711Y3777581D01*
G01X22566281Y3754721D01*
G01X22554851Y3743291D01*
G01X22543421Y3737703D01*
G01X22537579Y3737703D01*
G01X22659753Y3823301D02*
G01X22728333Y3823301D01*
G01X22728333Y3834731D01*
G01X22722745Y3846161D01*
G01X22716903Y3852003D01*
G01X22705473Y3857591D01*
G01X22688455Y3857591D01*
G01X22677025Y3852003D01*
G01X22665595Y3840573D01*
G01X22659753Y3823301D01*
G01X22659753Y3811871D01*
G01X22665595Y3794853D01*
G01X22677025Y3783423D01*
G01X22688455Y3777581D01*
G01X22705473Y3777581D01*
G01X22716903Y3783423D01*
G01X22728333Y3794853D01*
G01X22776085Y3857591D02*
G01X22776085Y3777581D01*
G01X22776085Y3823301D02*
G01X22781927Y3840573D01*
G01X22793357Y3852003D01*
G01X22804787Y3857591D01*
G01X22821805Y3857591D01*
G01X22869557Y3829143D02*
G01X22972427Y3829143D01*
G01X23020179Y3897723D02*
G01X23020179Y3777581D01*
G01X23020179Y3897723D02*
G01X23071741Y3897723D01*
G01X23088759Y3891881D01*
G01X23094601Y3886293D01*
G01X23100189Y3874863D01*
G01X23100189Y3863433D01*
G01X23094601Y3852003D01*
G01X23088759Y3846161D01*
G01X23071741Y3840573D01*
G01X23020179Y3840573D02*
G01X23071741Y3840573D01*
G01X23088759Y3834731D01*
G01X23094601Y3829143D01*
G01X23100189Y3817713D01*
G01X23100189Y3800441D01*
G01X23094601Y3789011D01*
G01X23088759Y3783423D01*
G01X23071741Y3777581D01*
G01X23020179Y3777581D01*
G01X23176643Y3857591D02*
G01X23165213Y3852003D01*
G01X23153783Y3840573D01*
G01X23147941Y3823301D01*
G01X23147941Y3811871D01*
G01X23153783Y3794853D01*
G01X23165213Y3783423D01*
G01X23176643Y3777581D01*
G01X23193661Y3777581D01*
G01X23205091Y3783423D01*
G01X23216521Y3794853D01*
G01X23222363Y3811871D01*
G01X23222363Y3823301D01*
G01X23216521Y3840573D01*
G01X23205091Y3852003D01*
G01X23193661Y3857591D01*
G01X23176643Y3857591D01*
G01X23287387Y3897723D02*
G01X23287387Y3800441D01*
G01X23292975Y3783423D01*
G01X23304405Y3777581D01*
G01X23315835Y3777581D01*
G01X23270115Y3857591D02*
G01X23310247Y3857591D01*
G01X23380859Y3897723D02*
G01X23380859Y3800441D01*
G01X23386447Y3783423D01*
G01X23397877Y3777581D01*
G01X23409307Y3777581D01*
G01X23363587Y3857591D02*
G01X23403719Y3857591D01*
G01X23485761Y3857591D02*
G01X23474331Y3852003D01*
G01X23462901Y3840573D01*
G01X23457059Y3823301D01*
G01X23457059Y3811871D01*
G01X23462901Y3794853D01*
G01X23474331Y3783423D01*
G01X23485761Y3777581D01*
G01X23502779Y3777581D01*
G01X23514209Y3783423D01*
G01X23525639Y3794853D01*
G01X23531481Y3811871D01*
G01X23531481Y3823301D01*
G01X23525639Y3840573D01*
G01X23514209Y3852003D01*
G01X23502779Y3857591D01*
G01X23485761Y3857591D01*
G01X23579233Y3857591D02*
G01X23579233Y3777581D01*
G01X23579233Y3834731D02*
G01X23596505Y3852003D01*
G01X23607935Y3857591D01*
G01X23624953Y3857591D01*
G01X23636383Y3852003D01*
G01X23642225Y3834731D01*
G01X23642225Y3777581D01*
G01X23642225Y3834731D02*
G01X23659243Y3852003D01*
G01X23670673Y3857591D01*
G01X23687945Y3857591D01*
G01X23699375Y3852003D01*
G01X23704963Y3834731D01*
G01X23704963Y3777581D01*
G01X23880731Y3897723D02*
G01X23880731Y3777581D01*
G01X23880731Y3777581D02*
G01X23949311Y3777581D01*
G01X24065643Y3857591D02*
G01X24065643Y3777581D01*
G01X24065643Y3840573D02*
G01X24054213Y3852003D01*
G01X24042783Y3857591D01*
G01X24025765Y3857591D01*
G01X24014335Y3852003D01*
G01X24002905Y3840573D01*
G01X23997063Y3823301D01*
G01X23997063Y3811871D01*
G01X24002905Y3794853D01*
G01X24014335Y3783423D01*
G01X24025765Y3777581D01*
G01X24042783Y3777581D01*
G01X24054213Y3783423D01*
G01X24065643Y3794853D01*
G01X24119237Y3857591D02*
G01X24153527Y3777581D01*
G01X24187817Y3857591D02*
G01X24153527Y3777581D01*
G01X24142097Y3754721D01*
G01X24130667Y3743291D01*
G01X24119237Y3737703D01*
G01X24113395Y3737703D01*
G01X24235569Y3823301D02*
G01X24304149Y3823301D01*
G01X24304149Y3834731D01*
G01X24298561Y3846161D01*
G01X24292719Y3852003D01*
G01X24281289Y3857591D01*
G01X24264271Y3857591D01*
G01X24252841Y3852003D01*
G01X24241411Y3840573D01*
G01X24235569Y3823301D01*
G01X24235569Y3811871D01*
G01X24241411Y3794853D01*
G01X24252841Y3783423D01*
G01X24264271Y3777581D01*
G01X24281289Y3777581D01*
G01X24292719Y3783423D01*
G01X24304149Y3794853D01*
G01X24351901Y3857591D02*
G01X24351901Y3777581D01*
G01X24351901Y3823301D02*
G01X24357743Y3840573D01*
G01X24369173Y3852003D01*
G01X24380603Y3857591D01*
G01X24397621Y3857591D01*
G01X10090454Y3299879D02*
G01X10084866Y3311309D01*
G01X10067594Y3317151D01*
G01X10056164Y3317151D01*
G01X10039146Y3311309D01*
G01X10027716Y3294291D01*
G01X10021874Y3265589D01*
G01X10021874Y3237141D01*
G01X10027716Y3214281D01*
G01X10039146Y3202851D01*
G01X10056164Y3197009D01*
G01X10062006Y3197009D01*
G01X10079024Y3202851D01*
G01X10090454Y3214281D01*
G01X10096296Y3231299D01*
G01X10096296Y3237141D01*
G01X10090454Y3254159D01*
G01X10079024Y3265589D01*
G01X10062006Y3271431D01*
G01X10056164Y3271431D01*
G01X10039146Y3265589D01*
G01X10027716Y3254159D01*
G01X10021874Y3237141D01*
G01X11436038Y3294291D02*
G01X11447468Y3299879D01*
G01X11464740Y3317151D01*
G01X11464740Y3197009D01*
G01X11518334Y3288449D02*
G01X11518334Y3294291D01*
G01X11523922Y3305721D01*
G01X11529764Y3311309D01*
G01X11541194Y3317151D01*
G01X11564054Y3317151D01*
G01X11575484Y3311309D01*
G01X11581072Y3305721D01*
G01X11586914Y3294291D01*
G01X11586914Y3282861D01*
G01X11581072Y3271431D01*
G01X11569642Y3254159D01*
G01X11512492Y3197009D01*
G01X11592502Y3197009D01*
G01X11646096Y3225711D02*
G01X11640254Y3219869D01*
G01X11646096Y3214281D01*
G01X11651684Y3219869D01*
G01X11646096Y3225711D01*
G01X11733726Y3317151D02*
G01X11716708Y3311309D01*
G01X11705278Y3294291D01*
G01X11699436Y3265589D01*
G01X11699436Y3248571D01*
G01X11705278Y3219869D01*
G01X11716708Y3202851D01*
G01X11733726Y3197009D01*
G01X11745156Y3197009D01*
G01X11762428Y3202851D01*
G01X11773858Y3219869D01*
G01X11779446Y3248571D01*
G01X11779446Y3265589D01*
G01X11773858Y3294291D01*
G01X11762428Y3311309D01*
G01X11745156Y3317151D01*
G01X11733726Y3317151D01*
G01X11827198Y3277019D02*
G01X11827198Y3197009D01*
G01X11827198Y3254159D02*
G01X11844470Y3271431D01*
G01X11855900Y3277019D01*
G01X11872918Y3277019D01*
G01X11884348Y3271431D01*
G01X11890190Y3254159D01*
G01X11890190Y3197009D01*
G01X11890190Y3254159D02*
G01X11907208Y3271431D01*
G01X11918638Y3277019D01*
G01X11935910Y3277019D01*
G01X11947340Y3271431D01*
G01X11952928Y3254159D01*
G01X11952928Y3197009D01*
G01X12000680Y3317151D02*
G01X12006522Y3311309D01*
G01X12012110Y3317151D01*
G01X12006522Y3322739D01*
G01X12000680Y3317151D01*
G01X12006522Y3277019D02*
G01X12006522Y3197009D01*
G01X12059862Y3317151D02*
G01X12059862Y3197009D01*
G01X12147746Y3340011D02*
G01X12136316Y3328581D01*
G01X12124886Y3311309D01*
G01X12113456Y3288449D01*
G01X12107614Y3260001D01*
G01X12107614Y3237141D01*
G01X12113456Y3208439D01*
G01X12124886Y3185579D01*
G01X12136316Y3168561D01*
G01X12147746Y3157131D01*
G01X12229788Y3317151D02*
G01X12212770Y3311309D01*
G01X12201340Y3294291D01*
G01X12195498Y3265589D01*
G01X12195498Y3248571D01*
G01X12201340Y3219869D01*
G01X12212770Y3202851D01*
G01X12229788Y3197009D01*
G01X12241218Y3197009D01*
G01X12258490Y3202851D01*
G01X12269920Y3219869D01*
G01X12275508Y3248571D01*
G01X12275508Y3265589D01*
G01X12269920Y3294291D01*
G01X12258490Y3311309D01*
G01X12241218Y3317151D01*
G01X12229788Y3317151D01*
G01X12329102Y3225711D02*
G01X12323260Y3219869D01*
G01X12329102Y3214281D01*
G01X12334690Y3219869D01*
G01X12329102Y3225711D01*
G01X12393872Y3317151D02*
G01X12456864Y3317151D01*
G01X12422574Y3271431D01*
G01X12439592Y3271431D01*
G01X12451022Y3265589D01*
G01X12456864Y3260001D01*
G01X12462452Y3242729D01*
G01X12462452Y3231299D01*
G01X12456864Y3214281D01*
G01X12445434Y3202851D01*
G01X12428162Y3197009D01*
G01X12411144Y3197009D01*
G01X12393872Y3202851D01*
G01X12388284Y3208439D01*
G01X12382442Y3219869D01*
G01X12544494Y3317151D02*
G01X12527476Y3311309D01*
G01X12516046Y3294291D01*
G01X12510204Y3265589D01*
G01X12510204Y3248571D01*
G01X12516046Y3219869D01*
G01X12527476Y3202851D01*
G01X12544494Y3197009D01*
G01X12555924Y3197009D01*
G01X12573196Y3202851D01*
G01X12584626Y3219869D01*
G01X12590214Y3248571D01*
G01X12590214Y3265589D01*
G01X12584626Y3294291D01*
G01X12573196Y3311309D01*
G01X12555924Y3317151D01*
G01X12544494Y3317151D01*
G01X12706546Y3317151D02*
G01X12649396Y3317151D01*
G01X12643808Y3265589D01*
G01X12649396Y3271431D01*
G01X12666668Y3277019D01*
G01X12683686Y3277019D01*
G01X12700958Y3271431D01*
G01X12712388Y3260001D01*
G01X12717976Y3242729D01*
G01X12717976Y3231299D01*
G01X12712388Y3214281D01*
G01X12700958Y3202851D01*
G01X12683686Y3197009D01*
G01X12666668Y3197009D01*
G01X12649396Y3202851D01*
G01X12643808Y3208439D01*
G01X12637966Y3219869D01*
G01X12765728Y3277019D02*
G01X12765728Y3197009D01*
G01X12765728Y3254159D02*
G01X12783000Y3271431D01*
G01X12794430Y3277019D01*
G01X12811448Y3277019D01*
G01X12822878Y3271431D01*
G01X12828720Y3254159D01*
G01X12828720Y3197009D01*
G01X12828720Y3254159D02*
G01X12845738Y3271431D01*
G01X12857168Y3277019D01*
G01X12874440Y3277019D01*
G01X12885870Y3271431D01*
G01X12891458Y3254159D01*
G01X12891458Y3197009D01*
G01X12939210Y3277019D02*
G01X12939210Y3197009D01*
G01X12939210Y3254159D02*
G01X12956482Y3271431D01*
G01X12967912Y3277019D01*
G01X12984930Y3277019D01*
G01X12996360Y3271431D01*
G01X13002202Y3254159D01*
G01X13002202Y3197009D01*
G01X13002202Y3254159D02*
G01X13019220Y3271431D01*
G01X13030650Y3277019D01*
G01X13047922Y3277019D01*
G01X13059352Y3271431D01*
G01X13064940Y3254159D01*
G01X13064940Y3197009D01*
G01X13112692Y3340011D02*
G01X13124122Y3328581D01*
G01X13135552Y3311309D01*
G01X13146982Y3288449D01*
G01X13152824Y3260001D01*
G01X13152824Y3237141D01*
G01X13146982Y3208439D01*
G01X13135552Y3185579D01*
G01X13124122Y3168561D01*
G01X13112692Y3157131D01*
G01X15329495Y3317151D02*
G01X15329495Y3197009D01*
G01X15329495Y3317151D02*
G01X15381057Y3317151D01*
G01X15398075Y3311309D01*
G01X15403917Y3305721D01*
G01X15409505Y3294291D01*
G01X15409505Y3277019D01*
G01X15403917Y3265589D01*
G01X15398075Y3260001D01*
G01X15381057Y3254159D01*
G01X15329495Y3254159D01*
G01X15497389Y3317151D02*
G01X15497389Y3197009D01*
G01X15457257Y3317151D02*
G01X15537267Y3317151D01*
G01X15585019Y3317151D02*
G01X15585019Y3197009D01*
G01X15665029Y3317151D02*
G01X15665029Y3197009D01*
G01X15585019Y3260001D02*
G01X15665029Y3260001D01*
G01X16790902Y3317151D02*
G01X16790902Y3197009D01*
G01X16790902Y3317151D02*
G01X16842464Y3317151D01*
G01X16859482Y3311309D01*
G01X16865324Y3305721D01*
G01X16870912Y3294291D01*
G01X16870912Y3282861D01*
G01X16865324Y3271431D01*
G01X16859482Y3265589D01*
G01X16842464Y3260001D01*
G01X16790902Y3260001D01*
G01X16831034Y3260001D02*
G01X16870912Y3197009D01*
G01X16947366Y3277019D02*
G01X16935936Y3271431D01*
G01X16924506Y3260001D01*
G01X16918664Y3242729D01*
G01X16918664Y3231299D01*
G01X16924506Y3214281D01*
G01X16935936Y3202851D01*
G01X16947366Y3197009D01*
G01X16964384Y3197009D01*
G01X16975814Y3202851D01*
G01X16987244Y3214281D01*
G01X16993086Y3231299D01*
G01X16993086Y3242729D01*
G01X16987244Y3260001D01*
G01X16975814Y3271431D01*
G01X16964384Y3277019D01*
G01X16947366Y3277019D01*
G01X17040838Y3277019D02*
G01X17040838Y3219869D01*
G01X17046680Y3202851D01*
G01X17058110Y3197009D01*
G01X17075128Y3197009D01*
G01X17086558Y3202851D01*
G01X17103830Y3219869D01*
G01X17103830Y3277019D02*
G01X17103830Y3197009D01*
G01X17151582Y3277019D02*
G01X17151582Y3197009D01*
G01X17151582Y3254159D02*
G01X17168854Y3271431D01*
G01X17180284Y3277019D01*
G01X17197302Y3277019D01*
G01X17208732Y3271431D01*
G01X17214574Y3254159D01*
G01X17214574Y3197009D01*
G01X17330906Y3317151D02*
G01X17330906Y3197009D01*
G01X17330906Y3260001D02*
G01X17319476Y3271431D01*
G01X17308046Y3277019D01*
G01X17291028Y3277019D01*
G01X17279598Y3271431D01*
G01X17268168Y3260001D01*
G01X17262326Y3242729D01*
G01X17262326Y3231299D01*
G01X17268168Y3214281D01*
G01X17279598Y3202851D01*
G01X17291028Y3197009D01*
G01X17308046Y3197009D01*
G01X17319476Y3202851D01*
G01X17330906Y3214281D01*
G01X18222083Y3317151D02*
G01X18267803Y3197009D01*
G01X18313523Y3317151D02*
G01X18267803Y3197009D01*
G01X18361275Y3317151D02*
G01X18367117Y3311309D01*
G01X18372705Y3317151D01*
G01X18367117Y3322739D01*
G01X18361275Y3317151D01*
G01X18367117Y3277019D02*
G01X18367117Y3197009D01*
G01X18489037Y3277019D02*
G01X18489037Y3197009D01*
G01X18489037Y3260001D02*
G01X18477607Y3271431D01*
G01X18466177Y3277019D01*
G01X18449159Y3277019D01*
G01X18437729Y3271431D01*
G01X18426299Y3260001D01*
G01X18420457Y3242729D01*
G01X18420457Y3231299D01*
G01X18426299Y3214281D01*
G01X18437729Y3202851D01*
G01X18449159Y3197009D01*
G01X18466177Y3197009D01*
G01X18477607Y3202851D01*
G01X18489037Y3214281D01*
G01X21850763Y3317151D02*
G01X21850763Y3197009D01*
G01X21810631Y3317151D02*
G01X21890641Y3317151D01*
G01X21967095Y3277019D02*
G01X21955665Y3271431D01*
G01X21944235Y3260001D01*
G01X21938393Y3242729D01*
G01X21938393Y3231299D01*
G01X21944235Y3214281D01*
G01X21955665Y3202851D01*
G01X21967095Y3197009D01*
G01X21984113Y3197009D01*
G01X21995543Y3202851D01*
G01X22006973Y3214281D01*
G01X22012815Y3231299D01*
G01X22012815Y3242729D01*
G01X22006973Y3260001D01*
G01X21995543Y3271431D01*
G01X21984113Y3277019D01*
G01X21967095Y3277019D01*
G01X22060567Y3277019D02*
G01X22060567Y3157131D01*
G01X22060567Y3260001D02*
G01X22071997Y3271431D01*
G01X22083427Y3277019D01*
G01X22100699Y3277019D01*
G01X22112129Y3271431D01*
G01X22123559Y3260001D01*
G01X22129147Y3242729D01*
G01X22129147Y3231299D01*
G01X22123559Y3214281D01*
G01X22112129Y3202851D01*
G01X22100699Y3197009D01*
G01X22083427Y3197009D01*
G01X22071997Y3202851D01*
G01X22060567Y3214281D01*
G01X22304915Y3317151D02*
G01X22304915Y3197009D01*
G01X22304915Y3197009D02*
G01X22373495Y3197009D01*
G01X22489827Y3277019D02*
G01X22489827Y3197009D01*
G01X22489827Y3260001D02*
G01X22478397Y3271431D01*
G01X22466967Y3277019D01*
G01X22449949Y3277019D01*
G01X22438519Y3271431D01*
G01X22427089Y3260001D01*
G01X22421247Y3242729D01*
G01X22421247Y3231299D01*
G01X22427089Y3214281D01*
G01X22438519Y3202851D01*
G01X22449949Y3197009D01*
G01X22466967Y3197009D01*
G01X22478397Y3202851D01*
G01X22489827Y3214281D01*
G01X22543421Y3277019D02*
G01X22577711Y3197009D01*
G01X22612001Y3277019D02*
G01X22577711Y3197009D01*
G01X22566281Y3174149D01*
G01X22554851Y3162719D01*
G01X22543421Y3157131D01*
G01X22537579Y3157131D01*
G01X22659753Y3242729D02*
G01X22728333Y3242729D01*
G01X22728333Y3254159D01*
G01X22722745Y3265589D01*
G01X22716903Y3271431D01*
G01X22705473Y3277019D01*
G01X22688455Y3277019D01*
G01X22677025Y3271431D01*
G01X22665595Y3260001D01*
G01X22659753Y3242729D01*
G01X22659753Y3231299D01*
G01X22665595Y3214281D01*
G01X22677025Y3202851D01*
G01X22688455Y3197009D01*
G01X22705473Y3197009D01*
G01X22716903Y3202851D01*
G01X22728333Y3214281D01*
G01X22776085Y3277019D02*
G01X22776085Y3197009D01*
G01X22776085Y3242729D02*
G01X22781927Y3260001D01*
G01X22793357Y3271431D01*
G01X22804787Y3277019D01*
G01X22821805Y3277019D01*
G01X22869557Y3248571D02*
G01X22972427Y3248571D01*
G01X23020179Y3317151D02*
G01X23020179Y3197009D01*
G01X23020179Y3317151D02*
G01X23071741Y3317151D01*
G01X23088759Y3311309D01*
G01X23094601Y3305721D01*
G01X23100189Y3294291D01*
G01X23100189Y3282861D01*
G01X23094601Y3271431D01*
G01X23088759Y3265589D01*
G01X23071741Y3260001D01*
G01X23020179Y3260001D02*
G01X23071741Y3260001D01*
G01X23088759Y3254159D01*
G01X23094601Y3248571D01*
G01X23100189Y3237141D01*
G01X23100189Y3219869D01*
G01X23094601Y3208439D01*
G01X23088759Y3202851D01*
G01X23071741Y3197009D01*
G01X23020179Y3197009D01*
G01X23176643Y3277019D02*
G01X23165213Y3271431D01*
G01X23153783Y3260001D01*
G01X23147941Y3242729D01*
G01X23147941Y3231299D01*
G01X23153783Y3214281D01*
G01X23165213Y3202851D01*
G01X23176643Y3197009D01*
G01X23193661Y3197009D01*
G01X23205091Y3202851D01*
G01X23216521Y3214281D01*
G01X23222363Y3231299D01*
G01X23222363Y3242729D01*
G01X23216521Y3260001D01*
G01X23205091Y3271431D01*
G01X23193661Y3277019D01*
G01X23176643Y3277019D01*
G01X23287387Y3317151D02*
G01X23287387Y3219869D01*
G01X23292975Y3202851D01*
G01X23304405Y3197009D01*
G01X23315835Y3197009D01*
G01X23270115Y3277019D02*
G01X23310247Y3277019D01*
G01X23380859Y3317151D02*
G01X23380859Y3219869D01*
G01X23386447Y3202851D01*
G01X23397877Y3197009D01*
G01X23409307Y3197009D01*
G01X23363587Y3277019D02*
G01X23403719Y3277019D01*
G01X23485761Y3277019D02*
G01X23474331Y3271431D01*
G01X23462901Y3260001D01*
G01X23457059Y3242729D01*
G01X23457059Y3231299D01*
G01X23462901Y3214281D01*
G01X23474331Y3202851D01*
G01X23485761Y3197009D01*
G01X23502779Y3197009D01*
G01X23514209Y3202851D01*
G01X23525639Y3214281D01*
G01X23531481Y3231299D01*
G01X23531481Y3242729D01*
G01X23525639Y3260001D01*
G01X23514209Y3271431D01*
G01X23502779Y3277019D01*
G01X23485761Y3277019D01*
G01X23579233Y3277019D02*
G01X23579233Y3197009D01*
G01X23579233Y3254159D02*
G01X23596505Y3271431D01*
G01X23607935Y3277019D01*
G01X23624953Y3277019D01*
G01X23636383Y3271431D01*
G01X23642225Y3254159D01*
G01X23642225Y3197009D01*
G01X23642225Y3254159D02*
G01X23659243Y3271431D01*
G01X23670673Y3277019D01*
G01X23687945Y3277019D01*
G01X23699375Y3271431D01*
G01X23704963Y3254159D01*
G01X23704963Y3197009D01*
G01X23880731Y3317151D02*
G01X23880731Y3197009D01*
G01X23880731Y3197009D02*
G01X23949311Y3197009D01*
G01X24065643Y3277019D02*
G01X24065643Y3197009D01*
G01X24065643Y3260001D02*
G01X24054213Y3271431D01*
G01X24042783Y3277019D01*
G01X24025765Y3277019D01*
G01X24014335Y3271431D01*
G01X24002905Y3260001D01*
G01X23997063Y3242729D01*
G01X23997063Y3231299D01*
G01X24002905Y3214281D01*
G01X24014335Y3202851D01*
G01X24025765Y3197009D01*
G01X24042783Y3197009D01*
G01X24054213Y3202851D01*
G01X24065643Y3214281D01*
G01X24119237Y3277019D02*
G01X24153527Y3197009D01*
G01X24187817Y3277019D02*
G01X24153527Y3197009D01*
G01X24142097Y3174149D01*
G01X24130667Y3162719D01*
G01X24119237Y3157131D01*
G01X24113395Y3157131D01*
G01X24235569Y3242729D02*
G01X24304149Y3242729D01*
G01X24304149Y3254159D01*
G01X24298561Y3265589D01*
G01X24292719Y3271431D01*
G01X24281289Y3277019D01*
G01X24264271Y3277019D01*
G01X24252841Y3271431D01*
G01X24241411Y3260001D01*
G01X24235569Y3242729D01*
G01X24235569Y3231299D01*
G01X24241411Y3214281D01*
G01X24252841Y3202851D01*
G01X24264271Y3197009D01*
G01X24281289Y3197009D01*
G01X24292719Y3202851D01*
G01X24304149Y3214281D01*
G01X24351901Y3277019D02*
G01X24351901Y3197009D01*
G01X24351901Y3242729D02*
G01X24357743Y3260001D01*
G01X24369173Y3271431D01*
G01X24380603Y3277019D01*
G01X24397621Y3277019D01*
G01X10090454Y2719308D02*
G01X10084866Y2730738D01*
G01X10067594Y2736580D01*
G01X10056164Y2736580D01*
G01X10039146Y2730738D01*
G01X10027716Y2713720D01*
G01X10021874Y2685018D01*
G01X10021874Y2656570D01*
G01X10027716Y2633710D01*
G01X10039146Y2622280D01*
G01X10056164Y2616438D01*
G01X10062006Y2616438D01*
G01X10079024Y2622280D01*
G01X10090454Y2633710D01*
G01X10096296Y2650728D01*
G01X10096296Y2656570D01*
G01X10090454Y2673588D01*
G01X10079024Y2685018D01*
G01X10062006Y2690860D01*
G01X10056164Y2690860D01*
G01X10039146Y2685018D01*
G01X10027716Y2673588D01*
G01X10021874Y2656570D01*
G01X11493188Y2736580D02*
G01X11436038Y2656570D01*
G01X11521890Y2656570D01*
G01X11493188Y2736580D02*
G01X11493188Y2616438D01*
G01X11581072Y2736580D02*
G01X11644064Y2736580D01*
G01X11609774Y2690860D01*
G01X11626792Y2690860D01*
G01X11638222Y2685018D01*
G01X11644064Y2679430D01*
G01X11649652Y2662158D01*
G01X11649652Y2650728D01*
G01X11644064Y2633710D01*
G01X11632634Y2622280D01*
G01X11615362Y2616438D01*
G01X11598344Y2616438D01*
G01X11581072Y2622280D01*
G01X11575484Y2627868D01*
G01X11569642Y2639298D01*
G01X11703246Y2645140D02*
G01X11697404Y2639298D01*
G01X11703246Y2633710D01*
G01X11708834Y2639298D01*
G01X11703246Y2645140D01*
G01X11768016Y2736580D02*
G01X11831008Y2736580D01*
G01X11796718Y2690860D01*
G01X11813736Y2690860D01*
G01X11825166Y2685018D01*
G01X11831008Y2679430D01*
G01X11836596Y2662158D01*
G01X11836596Y2650728D01*
G01X11831008Y2633710D01*
G01X11819578Y2622280D01*
G01X11802306Y2616438D01*
G01X11785288Y2616438D01*
G01X11768016Y2622280D01*
G01X11762428Y2627868D01*
G01X11756586Y2639298D01*
G01X11884348Y2696448D02*
G01X11947340Y2616438D01*
G01X11947340Y2696448D02*
G01X11884348Y2616438D01*
G01X12052242Y2736580D02*
G01X11995092Y2656570D01*
G01X12080944Y2656570D01*
G01X12052242Y2736580D02*
G01X12052242Y2616438D01*
G01X12140126Y2736580D02*
G01X12203118Y2736580D01*
G01X12168828Y2690860D01*
G01X12185846Y2690860D01*
G01X12197276Y2685018D01*
G01X12203118Y2679430D01*
G01X12208706Y2662158D01*
G01X12208706Y2650728D01*
G01X12203118Y2633710D01*
G01X12191688Y2622280D01*
G01X12174416Y2616438D01*
G01X12157398Y2616438D01*
G01X12140126Y2622280D01*
G01X12134538Y2627868D01*
G01X12128696Y2639298D01*
G01X12262300Y2645140D02*
G01X12256458Y2639298D01*
G01X12262300Y2633710D01*
G01X12267888Y2639298D01*
G01X12262300Y2645140D01*
G01X12327070Y2736580D02*
G01X12390062Y2736580D01*
G01X12355772Y2690860D01*
G01X12372790Y2690860D01*
G01X12384220Y2685018D01*
G01X12390062Y2679430D01*
G01X12395650Y2662158D01*
G01X12395650Y2650728D01*
G01X12390062Y2633710D01*
G01X12378632Y2622280D01*
G01X12361360Y2616438D01*
G01X12344342Y2616438D01*
G01X12327070Y2622280D01*
G01X12321482Y2627868D01*
G01X12315640Y2639298D01*
G01X12443402Y2696448D02*
G01X12443402Y2616438D01*
G01X12443402Y2673588D02*
G01X12460674Y2690860D01*
G01X12472104Y2696448D01*
G01X12489122Y2696448D01*
G01X12500552Y2690860D01*
G01X12506394Y2673588D01*
G01X12506394Y2616438D01*
G01X12506394Y2673588D02*
G01X12523412Y2690860D01*
G01X12534842Y2696448D01*
G01X12552114Y2696448D01*
G01X12563544Y2690860D01*
G01X12569132Y2673588D01*
G01X12569132Y2616438D01*
G01X12616884Y2736580D02*
G01X12622726Y2730738D01*
G01X12628314Y2736580D01*
G01X12622726Y2742168D01*
G01X12616884Y2736580D01*
G01X12622726Y2696448D02*
G01X12622726Y2616438D01*
G01X12676066Y2736580D02*
G01X12676066Y2616438D01*
G01X12763950Y2759440D02*
G01X12752520Y2748010D01*
G01X12741090Y2730738D01*
G01X12729660Y2707878D01*
G01X12723818Y2679430D01*
G01X12723818Y2656570D01*
G01X12729660Y2627868D01*
G01X12741090Y2605008D01*
G01X12752520Y2587990D01*
G01X12763950Y2576560D01*
G01X12811702Y2713720D02*
G01X12823132Y2719308D01*
G01X12840404Y2736580D01*
G01X12840404Y2616438D01*
G01X12893998Y2645140D02*
G01X12888156Y2639298D01*
G01X12893998Y2633710D01*
G01X12899586Y2639298D01*
G01X12893998Y2645140D01*
G01X12947338Y2713720D02*
G01X12958768Y2719308D01*
G01X12976040Y2736580D01*
G01X12976040Y2616438D01*
G01X13058082Y2736580D02*
G01X13041064Y2730738D01*
G01X13029634Y2713720D01*
G01X13023792Y2685018D01*
G01X13023792Y2668000D01*
G01X13029634Y2639298D01*
G01X13041064Y2622280D01*
G01X13058082Y2616438D01*
G01X13069512Y2616438D01*
G01X13086784Y2622280D01*
G01X13098214Y2639298D01*
G01X13103802Y2668000D01*
G01X13103802Y2685018D01*
G01X13098214Y2713720D01*
G01X13086784Y2730738D01*
G01X13069512Y2736580D01*
G01X13058082Y2736580D01*
G01X13185844Y2736580D02*
G01X13168826Y2730738D01*
G01X13157396Y2713720D01*
G01X13151554Y2685018D01*
G01X13151554Y2668000D01*
G01X13157396Y2639298D01*
G01X13168826Y2622280D01*
G01X13185844Y2616438D01*
G01X13197274Y2616438D01*
G01X13214546Y2622280D01*
G01X13225976Y2639298D01*
G01X13231564Y2668000D01*
G01X13231564Y2685018D01*
G01X13225976Y2713720D01*
G01X13214546Y2730738D01*
G01X13197274Y2736580D01*
G01X13185844Y2736580D01*
G01X13279316Y2696448D02*
G01X13342308Y2616438D01*
G01X13342308Y2696448D02*
G01X13279316Y2616438D01*
G01X13390060Y2713720D02*
G01X13401490Y2719308D01*
G01X13418762Y2736580D01*
G01X13418762Y2616438D01*
G01X13472356Y2645140D02*
G01X13466514Y2639298D01*
G01X13472356Y2633710D01*
G01X13477944Y2639298D01*
G01X13472356Y2645140D01*
G01X13525696Y2713720D02*
G01X13537126Y2719308D01*
G01X13554398Y2736580D01*
G01X13554398Y2616438D01*
G01X13636440Y2736580D02*
G01X13619422Y2730738D01*
G01X13607992Y2713720D01*
G01X13602150Y2685018D01*
G01X13602150Y2668000D01*
G01X13607992Y2639298D01*
G01X13619422Y2622280D01*
G01X13636440Y2616438D01*
G01X13647870Y2616438D01*
G01X13665142Y2622280D01*
G01X13676572Y2639298D01*
G01X13682160Y2668000D01*
G01X13682160Y2685018D01*
G01X13676572Y2713720D01*
G01X13665142Y2730738D01*
G01X13647870Y2736580D01*
G01X13636440Y2736580D01*
G01X13764202Y2736580D02*
G01X13747184Y2730738D01*
G01X13735754Y2713720D01*
G01X13729912Y2685018D01*
G01X13729912Y2668000D01*
G01X13735754Y2639298D01*
G01X13747184Y2622280D01*
G01X13764202Y2616438D01*
G01X13775632Y2616438D01*
G01X13792904Y2622280D01*
G01X13804334Y2639298D01*
G01X13809922Y2668000D01*
G01X13809922Y2685018D01*
G01X13804334Y2713720D01*
G01X13792904Y2730738D01*
G01X13775632Y2736580D01*
G01X13764202Y2736580D01*
G01X13857674Y2696448D02*
G01X13857674Y2616438D01*
G01X13857674Y2673588D02*
G01X13874946Y2690860D01*
G01X13886376Y2696448D01*
G01X13903394Y2696448D01*
G01X13914824Y2690860D01*
G01X13920666Y2673588D01*
G01X13920666Y2616438D01*
G01X13920666Y2673588D02*
G01X13937684Y2690860D01*
G01X13949114Y2696448D01*
G01X13966386Y2696448D01*
G01X13977816Y2690860D01*
G01X13983404Y2673588D01*
G01X13983404Y2616438D01*
G01X14031156Y2696448D02*
G01X14031156Y2616438D01*
G01X14031156Y2673588D02*
G01X14048428Y2690860D01*
G01X14059858Y2696448D01*
G01X14076876Y2696448D01*
G01X14088306Y2690860D01*
G01X14094148Y2673588D01*
G01X14094148Y2616438D01*
G01X14094148Y2673588D02*
G01X14111166Y2690860D01*
G01X14122596Y2696448D01*
G01X14139868Y2696448D01*
G01X14151298Y2690860D01*
G01X14156886Y2673588D01*
G01X14156886Y2616438D01*
G01X14204638Y2759440D02*
G01X14216068Y2748010D01*
G01X14227498Y2730738D01*
G01X14238928Y2707878D01*
G01X14244770Y2679430D01*
G01X14244770Y2656570D01*
G01X14238928Y2627868D01*
G01X14227498Y2605008D01*
G01X14216068Y2587990D01*
G01X14204638Y2576560D01*
G01X15329495Y2736580D02*
G01X15329495Y2616438D01*
G01X15329495Y2736580D02*
G01X15381057Y2736580D01*
G01X15398075Y2730738D01*
G01X15403917Y2725150D01*
G01X15409505Y2713720D01*
G01X15409505Y2696448D01*
G01X15403917Y2685018D01*
G01X15398075Y2679430D01*
G01X15381057Y2673588D01*
G01X15329495Y2673588D01*
G01X15497389Y2736580D02*
G01X15497389Y2616438D01*
G01X15457257Y2736580D02*
G01X15537267Y2736580D01*
G01X15585019Y2736580D02*
G01X15585019Y2616438D01*
G01X15665029Y2736580D02*
G01X15665029Y2616438D01*
G01X15585019Y2679430D02*
G01X15665029Y2679430D01*
G01X16790902Y2736580D02*
G01X16790902Y2616438D01*
G01X16790902Y2736580D02*
G01X16842464Y2736580D01*
G01X16859482Y2730738D01*
G01X16865324Y2725150D01*
G01X16870912Y2713720D01*
G01X16870912Y2702290D01*
G01X16865324Y2690860D01*
G01X16859482Y2685018D01*
G01X16842464Y2679430D01*
G01X16790902Y2679430D01*
G01X16831034Y2679430D02*
G01X16870912Y2616438D01*
G01X16947366Y2696448D02*
G01X16935936Y2690860D01*
G01X16924506Y2679430D01*
G01X16918664Y2662158D01*
G01X16918664Y2650728D01*
G01X16924506Y2633710D01*
G01X16935936Y2622280D01*
G01X16947366Y2616438D01*
G01X16964384Y2616438D01*
G01X16975814Y2622280D01*
G01X16987244Y2633710D01*
G01X16993086Y2650728D01*
G01X16993086Y2662158D01*
G01X16987244Y2679430D01*
G01X16975814Y2690860D01*
G01X16964384Y2696448D01*
G01X16947366Y2696448D01*
G01X17040838Y2696448D02*
G01X17040838Y2639298D01*
G01X17046680Y2622280D01*
G01X17058110Y2616438D01*
G01X17075128Y2616438D01*
G01X17086558Y2622280D01*
G01X17103830Y2639298D01*
G01X17103830Y2696448D02*
G01X17103830Y2616438D01*
G01X17151582Y2696448D02*
G01X17151582Y2616438D01*
G01X17151582Y2673588D02*
G01X17168854Y2690860D01*
G01X17180284Y2696448D01*
G01X17197302Y2696448D01*
G01X17208732Y2690860D01*
G01X17214574Y2673588D01*
G01X17214574Y2616438D01*
G01X17330906Y2736580D02*
G01X17330906Y2616438D01*
G01X17330906Y2679430D02*
G01X17319476Y2690860D01*
G01X17308046Y2696448D01*
G01X17291028Y2696448D01*
G01X17279598Y2690860D01*
G01X17268168Y2679430D01*
G01X17262326Y2662158D01*
G01X17262326Y2650728D01*
G01X17268168Y2633710D01*
G01X17279598Y2622280D01*
G01X17291028Y2616438D01*
G01X17308046Y2616438D01*
G01X17319476Y2622280D01*
G01X17330906Y2633710D01*
G01X18222083Y2736580D02*
G01X18222083Y2616438D01*
G01X18222083Y2736580D02*
G01X18273645Y2736580D01*
G01X18290663Y2730738D01*
G01X18296505Y2725150D01*
G01X18302093Y2713720D01*
G01X18302093Y2696448D01*
G01X18296505Y2685018D01*
G01X18290663Y2679430D01*
G01X18273645Y2673588D01*
G01X18222083Y2673588D01*
G01X18418425Y2696448D02*
G01X18418425Y2616438D01*
G01X18418425Y2679430D02*
G01X18406995Y2690860D01*
G01X18395565Y2696448D01*
G01X18378547Y2696448D01*
G01X18367117Y2690860D01*
G01X18355687Y2679430D01*
G01X18349845Y2662158D01*
G01X18349845Y2650728D01*
G01X18355687Y2633710D01*
G01X18367117Y2622280D01*
G01X18378547Y2616438D01*
G01X18395565Y2616438D01*
G01X18406995Y2622280D01*
G01X18418425Y2633710D01*
G01X18534757Y2736580D02*
G01X18534757Y2616438D01*
G01X18534757Y2679430D02*
G01X18523327Y2690860D01*
G01X18511897Y2696448D01*
G01X18494879Y2696448D01*
G01X18483449Y2690860D01*
G01X18472019Y2679430D01*
G01X18466177Y2662158D01*
G01X18466177Y2650728D01*
G01X18472019Y2633710D01*
G01X18483449Y2622280D01*
G01X18494879Y2616438D01*
G01X18511897Y2616438D01*
G01X18523327Y2622280D01*
G01X18534757Y2633710D01*
G01X19931394Y2759440D02*
G01X19919964Y2748010D01*
G01X19908534Y2730738D01*
G01X19897104Y2707878D01*
G01X19891262Y2679430D01*
G01X19891262Y2656570D01*
G01X19897104Y2627868D01*
G01X19908534Y2605008D01*
G01X19919964Y2587990D01*
G01X19931394Y2576560D01*
G01X19979146Y2736580D02*
G01X19979146Y2616438D01*
G01X19979146Y2736580D02*
G01X20024866Y2616438D01*
G01X20070586Y2736580D02*
G01X20024866Y2616438D01*
G01X20070586Y2736580D02*
G01X20070586Y2616438D01*
G01X20118338Y2736580D02*
G01X20124180Y2730738D01*
G01X20129768Y2736580D01*
G01X20124180Y2742168D01*
G01X20118338Y2736580D01*
G01X20124180Y2696448D02*
G01X20124180Y2616438D01*
G01X20177520Y2696448D02*
G01X20240512Y2616438D01*
G01X20240512Y2696448D02*
G01X20177520Y2616438D01*
G01X20288264Y2662158D02*
G01X20356844Y2662158D01*
G01X20356844Y2673588D01*
G01X20351256Y2685018D01*
G01X20345414Y2690860D01*
G01X20333984Y2696448D01*
G01X20316966Y2696448D01*
G01X20305536Y2690860D01*
G01X20294106Y2679430D01*
G01X20288264Y2662158D01*
G01X20288264Y2650728D01*
G01X20294106Y2633710D01*
G01X20305536Y2622280D01*
G01X20316966Y2616438D01*
G01X20333984Y2616438D01*
G01X20345414Y2622280D01*
G01X20356844Y2633710D01*
G01X20473176Y2736580D02*
G01X20473176Y2616438D01*
G01X20473176Y2679430D02*
G01X20461746Y2690860D01*
G01X20450316Y2696448D01*
G01X20433298Y2696448D01*
G01X20421868Y2690860D01*
G01X20410438Y2679430D01*
G01X20404596Y2662158D01*
G01X20404596Y2650728D01*
G01X20410438Y2633710D01*
G01X20421868Y2622280D01*
G01X20433298Y2616438D01*
G01X20450316Y2616438D01*
G01X20461746Y2622280D01*
G01X20473176Y2633710D01*
G01X20520928Y2759440D02*
G01X20532358Y2748010D01*
G01X20543788Y2730738D01*
G01X20555218Y2707878D01*
G01X20561060Y2679430D01*
G01X20561060Y2656570D01*
G01X20555218Y2627868D01*
G01X20543788Y2605008D01*
G01X20532358Y2587990D01*
G01X20520928Y2576560D01*
G01X21850763Y2736580D02*
G01X21850763Y2616438D01*
G01X21810631Y2736580D02*
G01X21890641Y2736580D01*
G01X21967095Y2696448D02*
G01X21955665Y2690860D01*
G01X21944235Y2679430D01*
G01X21938393Y2662158D01*
G01X21938393Y2650728D01*
G01X21944235Y2633710D01*
G01X21955665Y2622280D01*
G01X21967095Y2616438D01*
G01X21984113Y2616438D01*
G01X21995543Y2622280D01*
G01X22006973Y2633710D01*
G01X22012815Y2650728D01*
G01X22012815Y2662158D01*
G01X22006973Y2679430D01*
G01X21995543Y2690860D01*
G01X21984113Y2696448D01*
G01X21967095Y2696448D01*
G01X22060567Y2696448D02*
G01X22060567Y2576560D01*
G01X22060567Y2679430D02*
G01X22071997Y2690860D01*
G01X22083427Y2696448D01*
G01X22100699Y2696448D01*
G01X22112129Y2690860D01*
G01X22123559Y2679430D01*
G01X22129147Y2662158D01*
G01X22129147Y2650728D01*
G01X22123559Y2633710D01*
G01X22112129Y2622280D01*
G01X22100699Y2616438D01*
G01X22083427Y2616438D01*
G01X22071997Y2622280D01*
G01X22060567Y2633710D01*
G01X22304915Y2736580D02*
G01X22304915Y2616438D01*
G01X22304915Y2616438D02*
G01X22373495Y2616438D01*
G01X22489827Y2696448D02*
G01X22489827Y2616438D01*
G01X22489827Y2679430D02*
G01X22478397Y2690860D01*
G01X22466967Y2696448D01*
G01X22449949Y2696448D01*
G01X22438519Y2690860D01*
G01X22427089Y2679430D01*
G01X22421247Y2662158D01*
G01X22421247Y2650728D01*
G01X22427089Y2633710D01*
G01X22438519Y2622280D01*
G01X22449949Y2616438D01*
G01X22466967Y2616438D01*
G01X22478397Y2622280D01*
G01X22489827Y2633710D01*
G01X22543421Y2696448D02*
G01X22577711Y2616438D01*
G01X22612001Y2696448D02*
G01X22577711Y2616438D01*
G01X22566281Y2593578D01*
G01X22554851Y2582148D01*
G01X22543421Y2576560D01*
G01X22537579Y2576560D01*
G01X22659753Y2662158D02*
G01X22728333Y2662158D01*
G01X22728333Y2673588D01*
G01X22722745Y2685018D01*
G01X22716903Y2690860D01*
G01X22705473Y2696448D01*
G01X22688455Y2696448D01*
G01X22677025Y2690860D01*
G01X22665595Y2679430D01*
G01X22659753Y2662158D01*
G01X22659753Y2650728D01*
G01X22665595Y2633710D01*
G01X22677025Y2622280D01*
G01X22688455Y2616438D01*
G01X22705473Y2616438D01*
G01X22716903Y2622280D01*
G01X22728333Y2633710D01*
G01X22776085Y2696448D02*
G01X22776085Y2616438D01*
G01X22776085Y2662158D02*
G01X22781927Y2679430D01*
G01X22793357Y2690860D01*
G01X22804787Y2696448D01*
G01X22821805Y2696448D01*
G01X22869557Y2668000D02*
G01X22972427Y2668000D01*
G01X23020179Y2736580D02*
G01X23020179Y2616438D01*
G01X23020179Y2736580D02*
G01X23071741Y2736580D01*
G01X23088759Y2730738D01*
G01X23094601Y2725150D01*
G01X23100189Y2713720D01*
G01X23100189Y2702290D01*
G01X23094601Y2690860D01*
G01X23088759Y2685018D01*
G01X23071741Y2679430D01*
G01X23020179Y2679430D02*
G01X23071741Y2679430D01*
G01X23088759Y2673588D01*
G01X23094601Y2668000D01*
G01X23100189Y2656570D01*
G01X23100189Y2639298D01*
G01X23094601Y2627868D01*
G01X23088759Y2622280D01*
G01X23071741Y2616438D01*
G01X23020179Y2616438D01*
G01X23176643Y2696448D02*
G01X23165213Y2690860D01*
G01X23153783Y2679430D01*
G01X23147941Y2662158D01*
G01X23147941Y2650728D01*
G01X23153783Y2633710D01*
G01X23165213Y2622280D01*
G01X23176643Y2616438D01*
G01X23193661Y2616438D01*
G01X23205091Y2622280D01*
G01X23216521Y2633710D01*
G01X23222363Y2650728D01*
G01X23222363Y2662158D01*
G01X23216521Y2679430D01*
G01X23205091Y2690860D01*
G01X23193661Y2696448D01*
G01X23176643Y2696448D01*
G01X23287387Y2736580D02*
G01X23287387Y2639298D01*
G01X23292975Y2622280D01*
G01X23304405Y2616438D01*
G01X23315835Y2616438D01*
G01X23270115Y2696448D02*
G01X23310247Y2696448D01*
G01X23380859Y2736580D02*
G01X23380859Y2639298D01*
G01X23386447Y2622280D01*
G01X23397877Y2616438D01*
G01X23409307Y2616438D01*
G01X23363587Y2696448D02*
G01X23403719Y2696448D01*
G01X23485761Y2696448D02*
G01X23474331Y2690860D01*
G01X23462901Y2679430D01*
G01X23457059Y2662158D01*
G01X23457059Y2650728D01*
G01X23462901Y2633710D01*
G01X23474331Y2622280D01*
G01X23485761Y2616438D01*
G01X23502779Y2616438D01*
G01X23514209Y2622280D01*
G01X23525639Y2633710D01*
G01X23531481Y2650728D01*
G01X23531481Y2662158D01*
G01X23525639Y2679430D01*
G01X23514209Y2690860D01*
G01X23502779Y2696448D01*
G01X23485761Y2696448D01*
G01X23579233Y2696448D02*
G01X23579233Y2616438D01*
G01X23579233Y2673588D02*
G01X23596505Y2690860D01*
G01X23607935Y2696448D01*
G01X23624953Y2696448D01*
G01X23636383Y2690860D01*
G01X23642225Y2673588D01*
G01X23642225Y2616438D01*
G01X23642225Y2673588D02*
G01X23659243Y2690860D01*
G01X23670673Y2696448D01*
G01X23687945Y2696448D01*
G01X23699375Y2690860D01*
G01X23704963Y2673588D01*
G01X23704963Y2616438D01*
G01X23880731Y2736580D02*
G01X23880731Y2616438D01*
G01X23880731Y2616438D02*
G01X23949311Y2616438D01*
G01X24065643Y2696448D02*
G01X24065643Y2616438D01*
G01X24065643Y2679430D02*
G01X24054213Y2690860D01*
G01X24042783Y2696448D01*
G01X24025765Y2696448D01*
G01X24014335Y2690860D01*
G01X24002905Y2679430D01*
G01X23997063Y2662158D01*
G01X23997063Y2650728D01*
G01X24002905Y2633710D01*
G01X24014335Y2622280D01*
G01X24025765Y2616438D01*
G01X24042783Y2616438D01*
G01X24054213Y2622280D01*
G01X24065643Y2633710D01*
G01X24119237Y2696448D02*
G01X24153527Y2616438D01*
G01X24187817Y2696448D02*
G01X24153527Y2616438D01*
G01X24142097Y2593578D01*
G01X24130667Y2582148D01*
G01X24119237Y2576560D01*
G01X24113395Y2576560D01*
G01X24235569Y2662158D02*
G01X24304149Y2662158D01*
G01X24304149Y2673588D01*
G01X24298561Y2685018D01*
G01X24292719Y2690860D01*
G01X24281289Y2696448D01*
G01X24264271Y2696448D01*
G01X24252841Y2690860D01*
G01X24241411Y2679430D01*
G01X24235569Y2662158D01*
G01X24235569Y2650728D01*
G01X24241411Y2633710D01*
G01X24252841Y2622280D01*
G01X24264271Y2616438D01*
G01X24281289Y2616438D01*
G01X24292719Y2622280D01*
G01X24304149Y2633710D01*
G01X24351901Y2696448D02*
G01X24351901Y2616438D01*
G01X24351901Y2662158D02*
G01X24357743Y2679430D01*
G01X24369173Y2690860D01*
G01X24380603Y2696448D01*
G01X24397621Y2696448D01*
G01X10090454Y2138737D02*
G01X10084866Y2150167D01*
G01X10067594Y2156009D01*
G01X10056164Y2156009D01*
G01X10039146Y2150167D01*
G01X10027716Y2133149D01*
G01X10021874Y2104447D01*
G01X10021874Y2075999D01*
G01X10027716Y2053139D01*
G01X10039146Y2041709D01*
G01X10056164Y2035867D01*
G01X10062006Y2035867D01*
G01X10079024Y2041709D01*
G01X10090454Y2053139D01*
G01X10096296Y2070157D01*
G01X10096296Y2075999D01*
G01X10090454Y2093017D01*
G01X10079024Y2104447D01*
G01X10062006Y2110289D01*
G01X10056164Y2110289D01*
G01X10039146Y2104447D01*
G01X10027716Y2093017D01*
G01X10021874Y2075999D01*
G01X11516048Y2156009D02*
G01X11458898Y2035867D01*
G01X11436038Y2156009D02*
G01X11516048Y2156009D01*
G01X11592502Y2156009D02*
G01X11575230Y2150167D01*
G01X11569642Y2138737D01*
G01X11569642Y2127307D01*
G01X11575230Y2115877D01*
G01X11586660Y2110289D01*
G01X11609520Y2104447D01*
G01X11626792Y2098859D01*
G01X11638222Y2087429D01*
G01X11643810Y2075999D01*
G01X11643810Y2058727D01*
G01X11638222Y2047297D01*
G01X11632380Y2041709D01*
G01X11615362Y2035867D01*
G01X11592502Y2035867D01*
G01X11575230Y2041709D01*
G01X11569642Y2047297D01*
G01X11563800Y2058727D01*
G01X11563800Y2075999D01*
G01X11569642Y2087429D01*
G01X11581072Y2098859D01*
G01X11598090Y2104447D01*
G01X11620950Y2110289D01*
G01X11632380Y2115877D01*
G01X11638222Y2127307D01*
G01X11638222Y2138737D01*
G01X11632380Y2150167D01*
G01X11615362Y2156009D01*
G01X11592502Y2156009D01*
G01X11697404Y2064569D02*
G01X11691562Y2058727D01*
G01X11697404Y2053139D01*
G01X11702992Y2058727D01*
G01X11697404Y2064569D01*
G01X11830754Y2156009D02*
G01X11773604Y2035867D01*
G01X11750744Y2156009D02*
G01X11830754Y2156009D01*
G01X11878506Y2115877D02*
G01X11941498Y2035867D01*
G01X11941498Y2115877D02*
G01X11878506Y2035867D01*
G01X12069260Y2156009D02*
G01X12012110Y2035867D01*
G01X11989250Y2156009D02*
G01X12069260Y2156009D01*
G01X12145714Y2156009D02*
G01X12128442Y2150167D01*
G01X12122854Y2138737D01*
G01X12122854Y2127307D01*
G01X12128442Y2115877D01*
G01X12139872Y2110289D01*
G01X12162732Y2104447D01*
G01X12180004Y2098859D01*
G01X12191434Y2087429D01*
G01X12197022Y2075999D01*
G01X12197022Y2058727D01*
G01X12191434Y2047297D01*
G01X12185592Y2041709D01*
G01X12168574Y2035867D01*
G01X12145714Y2035867D01*
G01X12128442Y2041709D01*
G01X12122854Y2047297D01*
G01X12117012Y2058727D01*
G01X12117012Y2075999D01*
G01X12122854Y2087429D01*
G01X12134284Y2098859D01*
G01X12151302Y2104447D01*
G01X12174162Y2110289D01*
G01X12185592Y2115877D01*
G01X12191434Y2127307D01*
G01X12191434Y2138737D01*
G01X12185592Y2150167D01*
G01X12168574Y2156009D01*
G01X12145714Y2156009D01*
G01X12250616Y2064569D02*
G01X12244774Y2058727D01*
G01X12250616Y2053139D01*
G01X12256204Y2058727D01*
G01X12250616Y2064569D01*
G01X12383966Y2156009D02*
G01X12326816Y2035867D01*
G01X12303956Y2156009D02*
G01X12383966Y2156009D01*
G01X12431718Y2115877D02*
G01X12431718Y2035867D01*
G01X12431718Y2093017D02*
G01X12448990Y2110289D01*
G01X12460420Y2115877D01*
G01X12477438Y2115877D01*
G01X12488868Y2110289D01*
G01X12494710Y2093017D01*
G01X12494710Y2035867D01*
G01X12494710Y2093017D02*
G01X12511728Y2110289D01*
G01X12523158Y2115877D01*
G01X12540430Y2115877D01*
G01X12551860Y2110289D01*
G01X12557448Y2093017D01*
G01X12557448Y2035867D01*
G01X12605200Y2156009D02*
G01X12611042Y2150167D01*
G01X12616630Y2156009D01*
G01X12611042Y2161597D01*
G01X12605200Y2156009D01*
G01X12611042Y2115877D02*
G01X12611042Y2035867D01*
G01X12664382Y2156009D02*
G01X12664382Y2035867D01*
G01X12752266Y2178869D02*
G01X12740836Y2167439D01*
G01X12729406Y2150167D01*
G01X12717976Y2127307D01*
G01X12712134Y2098859D01*
G01X12712134Y2075999D01*
G01X12717976Y2047297D01*
G01X12729406Y2024437D01*
G01X12740836Y2007419D01*
G01X12752266Y1995989D01*
G01X12805860Y2127307D02*
G01X12805860Y2133149D01*
G01X12811448Y2144579D01*
G01X12817290Y2150167D01*
G01X12828720Y2156009D01*
G01X12851580Y2156009D01*
G01X12863010Y2150167D01*
G01X12868598Y2144579D01*
G01X12874440Y2133149D01*
G01X12874440Y2121719D01*
G01X12868598Y2110289D01*
G01X12857168Y2093017D01*
G01X12800018Y2035867D01*
G01X12880028Y2035867D01*
G01X12933622Y2064569D02*
G01X12927780Y2058727D01*
G01X12933622Y2053139D01*
G01X12939210Y2058727D01*
G01X12933622Y2064569D01*
G01X13021252Y2156009D02*
G01X13004234Y2150167D01*
G01X12992804Y2133149D01*
G01X12986962Y2104447D01*
G01X12986962Y2087429D01*
G01X12992804Y2058727D01*
G01X13004234Y2041709D01*
G01X13021252Y2035867D01*
G01X13032682Y2035867D01*
G01X13049954Y2041709D01*
G01X13061384Y2058727D01*
G01X13066972Y2087429D01*
G01X13066972Y2104447D01*
G01X13061384Y2133149D01*
G01X13049954Y2150167D01*
G01X13032682Y2156009D01*
G01X13021252Y2156009D01*
G01X13149014Y2156009D02*
G01X13131996Y2150167D01*
G01X13120566Y2133149D01*
G01X13114724Y2104447D01*
G01X13114724Y2087429D01*
G01X13120566Y2058727D01*
G01X13131996Y2041709D01*
G01X13149014Y2035867D01*
G01X13160444Y2035867D01*
G01X13177716Y2041709D01*
G01X13189146Y2058727D01*
G01X13194734Y2087429D01*
G01X13194734Y2104447D01*
G01X13189146Y2133149D01*
G01X13177716Y2150167D01*
G01X13160444Y2156009D01*
G01X13149014Y2156009D01*
G01X13276776Y2156009D02*
G01X13259758Y2150167D01*
G01X13248328Y2133149D01*
G01X13242486Y2104447D01*
G01X13242486Y2087429D01*
G01X13248328Y2058727D01*
G01X13259758Y2041709D01*
G01X13276776Y2035867D01*
G01X13288206Y2035867D01*
G01X13305478Y2041709D01*
G01X13316908Y2058727D01*
G01X13322496Y2087429D01*
G01X13322496Y2104447D01*
G01X13316908Y2133149D01*
G01X13305478Y2150167D01*
G01X13288206Y2156009D01*
G01X13276776Y2156009D01*
G01X13370248Y2115877D02*
G01X13433240Y2035867D01*
G01X13433240Y2115877D02*
G01X13370248Y2035867D01*
G01X13486834Y2127307D02*
G01X13486834Y2133149D01*
G01X13492422Y2144579D01*
G01X13498264Y2150167D01*
G01X13509694Y2156009D01*
G01X13532554Y2156009D01*
G01X13543984Y2150167D01*
G01X13549572Y2144579D01*
G01X13555414Y2133149D01*
G01X13555414Y2121719D01*
G01X13549572Y2110289D01*
G01X13538142Y2093017D01*
G01X13480992Y2035867D01*
G01X13561002Y2035867D01*
G01X13614596Y2064569D02*
G01X13608754Y2058727D01*
G01X13614596Y2053139D01*
G01X13620184Y2058727D01*
G01X13614596Y2064569D01*
G01X13702226Y2156009D02*
G01X13685208Y2150167D01*
G01X13673778Y2133149D01*
G01X13667936Y2104447D01*
G01X13667936Y2087429D01*
G01X13673778Y2058727D01*
G01X13685208Y2041709D01*
G01X13702226Y2035867D01*
G01X13713656Y2035867D01*
G01X13730928Y2041709D01*
G01X13742358Y2058727D01*
G01X13747946Y2087429D01*
G01X13747946Y2104447D01*
G01X13742358Y2133149D01*
G01X13730928Y2150167D01*
G01X13713656Y2156009D01*
G01X13702226Y2156009D01*
G01X13829988Y2156009D02*
G01X13812970Y2150167D01*
G01X13801540Y2133149D01*
G01X13795698Y2104447D01*
G01X13795698Y2087429D01*
G01X13801540Y2058727D01*
G01X13812970Y2041709D01*
G01X13829988Y2035867D01*
G01X13841418Y2035867D01*
G01X13858690Y2041709D01*
G01X13870120Y2058727D01*
G01X13875708Y2087429D01*
G01X13875708Y2104447D01*
G01X13870120Y2133149D01*
G01X13858690Y2150167D01*
G01X13841418Y2156009D01*
G01X13829988Y2156009D01*
G01X13957750Y2156009D02*
G01X13940732Y2150167D01*
G01X13929302Y2133149D01*
G01X13923460Y2104447D01*
G01X13923460Y2087429D01*
G01X13929302Y2058727D01*
G01X13940732Y2041709D01*
G01X13957750Y2035867D01*
G01X13969180Y2035867D01*
G01X13986452Y2041709D01*
G01X13997882Y2058727D01*
G01X14003470Y2087429D01*
G01X14003470Y2104447D01*
G01X13997882Y2133149D01*
G01X13986452Y2150167D01*
G01X13969180Y2156009D01*
G01X13957750Y2156009D01*
G01X14051222Y2115877D02*
G01X14051222Y2035867D01*
G01X14051222Y2093017D02*
G01X14068494Y2110289D01*
G01X14079924Y2115877D01*
G01X14096942Y2115877D01*
G01X14108372Y2110289D01*
G01X14114214Y2093017D01*
G01X14114214Y2035867D01*
G01X14114214Y2093017D02*
G01X14131232Y2110289D01*
G01X14142662Y2115877D01*
G01X14159934Y2115877D01*
G01X14171364Y2110289D01*
G01X14176952Y2093017D01*
G01X14176952Y2035867D01*
G01X14224704Y2115877D02*
G01X14224704Y2035867D01*
G01X14224704Y2093017D02*
G01X14241976Y2110289D01*
G01X14253406Y2115877D01*
G01X14270424Y2115877D01*
G01X14281854Y2110289D01*
G01X14287696Y2093017D01*
G01X14287696Y2035867D01*
G01X14287696Y2093017D02*
G01X14304714Y2110289D01*
G01X14316144Y2115877D01*
G01X14333416Y2115877D01*
G01X14344846Y2110289D01*
G01X14350434Y2093017D01*
G01X14350434Y2035867D01*
G01X14398186Y2178869D02*
G01X14409616Y2167439D01*
G01X14421046Y2150167D01*
G01X14432476Y2127307D01*
G01X14438318Y2098859D01*
G01X14438318Y2075999D01*
G01X14432476Y2047297D01*
G01X14421046Y2024437D01*
G01X14409616Y2007419D01*
G01X14398186Y1995989D01*
G01X15329495Y2156009D02*
G01X15329495Y2035867D01*
G01X15329495Y2156009D02*
G01X15381057Y2156009D01*
G01X15398075Y2150167D01*
G01X15403917Y2144579D01*
G01X15409505Y2133149D01*
G01X15409505Y2115877D01*
G01X15403917Y2104447D01*
G01X15398075Y2098859D01*
G01X15381057Y2093017D01*
G01X15329495Y2093017D01*
G01X15497389Y2156009D02*
G01X15497389Y2035867D01*
G01X15457257Y2156009D02*
G01X15537267Y2156009D01*
G01X15585019Y2156009D02*
G01X15585019Y2035867D01*
G01X15665029Y2156009D02*
G01X15665029Y2035867D01*
G01X15585019Y2098859D02*
G01X15665029Y2098859D01*
G01X16790902Y2156009D02*
G01X16790902Y2035867D01*
G01X16790902Y2156009D02*
G01X16842464Y2156009D01*
G01X16859482Y2150167D01*
G01X16865324Y2144579D01*
G01X16870912Y2133149D01*
G01X16870912Y2121719D01*
G01X16865324Y2110289D01*
G01X16859482Y2104447D01*
G01X16842464Y2098859D01*
G01X16790902Y2098859D01*
G01X16831034Y2098859D02*
G01X16870912Y2035867D01*
G01X16947366Y2115877D02*
G01X16935936Y2110289D01*
G01X16924506Y2098859D01*
G01X16918664Y2081587D01*
G01X16918664Y2070157D01*
G01X16924506Y2053139D01*
G01X16935936Y2041709D01*
G01X16947366Y2035867D01*
G01X16964384Y2035867D01*
G01X16975814Y2041709D01*
G01X16987244Y2053139D01*
G01X16993086Y2070157D01*
G01X16993086Y2081587D01*
G01X16987244Y2098859D01*
G01X16975814Y2110289D01*
G01X16964384Y2115877D01*
G01X16947366Y2115877D01*
G01X17040838Y2115877D02*
G01X17040838Y2058727D01*
G01X17046680Y2041709D01*
G01X17058110Y2035867D01*
G01X17075128Y2035867D01*
G01X17086558Y2041709D01*
G01X17103830Y2058727D01*
G01X17103830Y2115877D02*
G01X17103830Y2035867D01*
G01X17151582Y2115877D02*
G01X17151582Y2035867D01*
G01X17151582Y2093017D02*
G01X17168854Y2110289D01*
G01X17180284Y2115877D01*
G01X17197302Y2115877D01*
G01X17208732Y2110289D01*
G01X17214574Y2093017D01*
G01X17214574Y2035867D01*
G01X17330906Y2156009D02*
G01X17330906Y2035867D01*
G01X17330906Y2098859D02*
G01X17319476Y2110289D01*
G01X17308046Y2115877D01*
G01X17291028Y2115877D01*
G01X17279598Y2110289D01*
G01X17268168Y2098859D01*
G01X17262326Y2081587D01*
G01X17262326Y2070157D01*
G01X17268168Y2053139D01*
G01X17279598Y2041709D01*
G01X17291028Y2035867D01*
G01X17308046Y2035867D01*
G01X17319476Y2041709D01*
G01X17330906Y2053139D01*
G01X18222083Y2156009D02*
G01X18222083Y2035867D01*
G01X18222083Y2156009D02*
G01X18273645Y2156009D01*
G01X18290663Y2150167D01*
G01X18296505Y2144579D01*
G01X18302093Y2133149D01*
G01X18302093Y2115877D01*
G01X18296505Y2104447D01*
G01X18290663Y2098859D01*
G01X18273645Y2093017D01*
G01X18222083Y2093017D01*
G01X18418425Y2115877D02*
G01X18418425Y2035867D01*
G01X18418425Y2098859D02*
G01X18406995Y2110289D01*
G01X18395565Y2115877D01*
G01X18378547Y2115877D01*
G01X18367117Y2110289D01*
G01X18355687Y2098859D01*
G01X18349845Y2081587D01*
G01X18349845Y2070157D01*
G01X18355687Y2053139D01*
G01X18367117Y2041709D01*
G01X18378547Y2035867D01*
G01X18395565Y2035867D01*
G01X18406995Y2041709D01*
G01X18418425Y2053139D01*
G01X18534757Y2156009D02*
G01X18534757Y2035867D01*
G01X18534757Y2098859D02*
G01X18523327Y2110289D01*
G01X18511897Y2115877D01*
G01X18494879Y2115877D01*
G01X18483449Y2110289D01*
G01X18472019Y2098859D01*
G01X18466177Y2081587D01*
G01X18466177Y2070157D01*
G01X18472019Y2053139D01*
G01X18483449Y2041709D01*
G01X18494879Y2035867D01*
G01X18511897Y2035867D01*
G01X18523327Y2041709D01*
G01X18534757Y2053139D01*
G01X19891262Y2156009D02*
G01X19891262Y2035867D01*
G01X19891262Y2156009D02*
G01X19942824Y2156009D01*
G01X19959842Y2150167D01*
G01X19965684Y2144579D01*
G01X19971272Y2133149D01*
G01X19971272Y2121719D01*
G01X19965684Y2110289D01*
G01X19959842Y2104447D01*
G01X19942824Y2098859D01*
G01X19891262Y2098859D01*
G01X19931394Y2098859D02*
G01X19971272Y2035867D01*
G01X20047726Y2115877D02*
G01X20036296Y2110289D01*
G01X20024866Y2098859D01*
G01X20019024Y2081587D01*
G01X20019024Y2070157D01*
G01X20024866Y2053139D01*
G01X20036296Y2041709D01*
G01X20047726Y2035867D01*
G01X20064744Y2035867D01*
G01X20076174Y2041709D01*
G01X20087604Y2053139D01*
G01X20093446Y2070157D01*
G01X20093446Y2081587D01*
G01X20087604Y2098859D01*
G01X20076174Y2110289D01*
G01X20064744Y2115877D01*
G01X20047726Y2115877D01*
G01X20141198Y2115877D02*
G01X20141198Y2058727D01*
G01X20147040Y2041709D01*
G01X20158470Y2035867D01*
G01X20175488Y2035867D01*
G01X20186918Y2041709D01*
G01X20204190Y2058727D01*
G01X20204190Y2115877D02*
G01X20204190Y2035867D01*
G01X20251942Y2115877D02*
G01X20251942Y2035867D01*
G01X20251942Y2093017D02*
G01X20269214Y2110289D01*
G01X20280644Y2115877D01*
G01X20297662Y2115877D01*
G01X20309092Y2110289D01*
G01X20314934Y2093017D01*
G01X20314934Y2035867D01*
G01X20431266Y2156009D02*
G01X20431266Y2035867D01*
G01X20431266Y2098859D02*
G01X20419836Y2110289D01*
G01X20408406Y2115877D01*
G01X20391388Y2115877D01*
G01X20379958Y2110289D01*
G01X20368528Y2098859D01*
G01X20362686Y2081587D01*
G01X20362686Y2070157D01*
G01X20368528Y2053139D01*
G01X20379958Y2041709D01*
G01X20391388Y2035867D01*
G01X20408406Y2035867D01*
G01X20419836Y2041709D01*
G01X20431266Y2053139D01*
G01X21850763Y2156009D02*
G01X21850763Y2035867D01*
G01X21810631Y2156009D02*
G01X21890641Y2156009D01*
G01X21967095Y2115877D02*
G01X21955665Y2110289D01*
G01X21944235Y2098859D01*
G01X21938393Y2081587D01*
G01X21938393Y2070157D01*
G01X21944235Y2053139D01*
G01X21955665Y2041709D01*
G01X21967095Y2035867D01*
G01X21984113Y2035867D01*
G01X21995543Y2041709D01*
G01X22006973Y2053139D01*
G01X22012815Y2070157D01*
G01X22012815Y2081587D01*
G01X22006973Y2098859D01*
G01X21995543Y2110289D01*
G01X21984113Y2115877D01*
G01X21967095Y2115877D01*
G01X22060567Y2115877D02*
G01X22060567Y1995989D01*
G01X22060567Y2098859D02*
G01X22071997Y2110289D01*
G01X22083427Y2115877D01*
G01X22100699Y2115877D01*
G01X22112129Y2110289D01*
G01X22123559Y2098859D01*
G01X22129147Y2081587D01*
G01X22129147Y2070157D01*
G01X22123559Y2053139D01*
G01X22112129Y2041709D01*
G01X22100699Y2035867D01*
G01X22083427Y2035867D01*
G01X22071997Y2041709D01*
G01X22060567Y2053139D01*
G01X22304915Y2156009D02*
G01X22304915Y2035867D01*
G01X22304915Y2035867D02*
G01X22373495Y2035867D01*
G01X22489827Y2115877D02*
G01X22489827Y2035867D01*
G01X22489827Y2098859D02*
G01X22478397Y2110289D01*
G01X22466967Y2115877D01*
G01X22449949Y2115877D01*
G01X22438519Y2110289D01*
G01X22427089Y2098859D01*
G01X22421247Y2081587D01*
G01X22421247Y2070157D01*
G01X22427089Y2053139D01*
G01X22438519Y2041709D01*
G01X22449949Y2035867D01*
G01X22466967Y2035867D01*
G01X22478397Y2041709D01*
G01X22489827Y2053139D01*
G01X22543421Y2115877D02*
G01X22577711Y2035867D01*
G01X22612001Y2115877D02*
G01X22577711Y2035867D01*
G01X22566281Y2013007D01*
G01X22554851Y2001577D01*
G01X22543421Y1995989D01*
G01X22537579Y1995989D01*
G01X22659753Y2081587D02*
G01X22728333Y2081587D01*
G01X22728333Y2093017D01*
G01X22722745Y2104447D01*
G01X22716903Y2110289D01*
G01X22705473Y2115877D01*
G01X22688455Y2115877D01*
G01X22677025Y2110289D01*
G01X22665595Y2098859D01*
G01X22659753Y2081587D01*
G01X22659753Y2070157D01*
G01X22665595Y2053139D01*
G01X22677025Y2041709D01*
G01X22688455Y2035867D01*
G01X22705473Y2035867D01*
G01X22716903Y2041709D01*
G01X22728333Y2053139D01*
G01X22776085Y2115877D02*
G01X22776085Y2035867D01*
G01X22776085Y2081587D02*
G01X22781927Y2098859D01*
G01X22793357Y2110289D01*
G01X22804787Y2115877D01*
G01X22821805Y2115877D01*
G01X22869557Y2087429D02*
G01X22972427Y2087429D01*
G01X23020179Y2156009D02*
G01X23020179Y2035867D01*
G01X23020179Y2156009D02*
G01X23071741Y2156009D01*
G01X23088759Y2150167D01*
G01X23094601Y2144579D01*
G01X23100189Y2133149D01*
G01X23100189Y2121719D01*
G01X23094601Y2110289D01*
G01X23088759Y2104447D01*
G01X23071741Y2098859D01*
G01X23020179Y2098859D02*
G01X23071741Y2098859D01*
G01X23088759Y2093017D01*
G01X23094601Y2087429D01*
G01X23100189Y2075999D01*
G01X23100189Y2058727D01*
G01X23094601Y2047297D01*
G01X23088759Y2041709D01*
G01X23071741Y2035867D01*
G01X23020179Y2035867D01*
G01X23176643Y2115877D02*
G01X23165213Y2110289D01*
G01X23153783Y2098859D01*
G01X23147941Y2081587D01*
G01X23147941Y2070157D01*
G01X23153783Y2053139D01*
G01X23165213Y2041709D01*
G01X23176643Y2035867D01*
G01X23193661Y2035867D01*
G01X23205091Y2041709D01*
G01X23216521Y2053139D01*
G01X23222363Y2070157D01*
G01X23222363Y2081587D01*
G01X23216521Y2098859D01*
G01X23205091Y2110289D01*
G01X23193661Y2115877D01*
G01X23176643Y2115877D01*
G01X23287387Y2156009D02*
G01X23287387Y2058727D01*
G01X23292975Y2041709D01*
G01X23304405Y2035867D01*
G01X23315835Y2035867D01*
G01X23270115Y2115877D02*
G01X23310247Y2115877D01*
G01X23380859Y2156009D02*
G01X23380859Y2058727D01*
G01X23386447Y2041709D01*
G01X23397877Y2035867D01*
G01X23409307Y2035867D01*
G01X23363587Y2115877D02*
G01X23403719Y2115877D01*
G01X23485761Y2115877D02*
G01X23474331Y2110289D01*
G01X23462901Y2098859D01*
G01X23457059Y2081587D01*
G01X23457059Y2070157D01*
G01X23462901Y2053139D01*
G01X23474331Y2041709D01*
G01X23485761Y2035867D01*
G01X23502779Y2035867D01*
G01X23514209Y2041709D01*
G01X23525639Y2053139D01*
G01X23531481Y2070157D01*
G01X23531481Y2081587D01*
G01X23525639Y2098859D01*
G01X23514209Y2110289D01*
G01X23502779Y2115877D01*
G01X23485761Y2115877D01*
G01X23579233Y2115877D02*
G01X23579233Y2035867D01*
G01X23579233Y2093017D02*
G01X23596505Y2110289D01*
G01X23607935Y2115877D01*
G01X23624953Y2115877D01*
G01X23636383Y2110289D01*
G01X23642225Y2093017D01*
G01X23642225Y2035867D01*
G01X23642225Y2093017D02*
G01X23659243Y2110289D01*
G01X23670673Y2115877D01*
G01X23687945Y2115877D01*
G01X23699375Y2110289D01*
G01X23704963Y2093017D01*
G01X23704963Y2035867D01*
G01X23880731Y2156009D02*
G01X23880731Y2035867D01*
G01X23880731Y2035867D02*
G01X23949311Y2035867D01*
G01X24065643Y2115877D02*
G01X24065643Y2035867D01*
G01X24065643Y2098859D02*
G01X24054213Y2110289D01*
G01X24042783Y2115877D01*
G01X24025765Y2115877D01*
G01X24014335Y2110289D01*
G01X24002905Y2098859D01*
G01X23997063Y2081587D01*
G01X23997063Y2070157D01*
G01X24002905Y2053139D01*
G01X24014335Y2041709D01*
G01X24025765Y2035867D01*
G01X24042783Y2035867D01*
G01X24054213Y2041709D01*
G01X24065643Y2053139D01*
G01X24119237Y2115877D02*
G01X24153527Y2035867D01*
G01X24187817Y2115877D02*
G01X24153527Y2035867D01*
G01X24142097Y2013007D01*
G01X24130667Y2001577D01*
G01X24119237Y1995989D01*
G01X24113395Y1995989D01*
G01X24235569Y2081587D02*
G01X24304149Y2081587D01*
G01X24304149Y2093017D01*
G01X24298561Y2104447D01*
G01X24292719Y2110289D01*
G01X24281289Y2115877D01*
G01X24264271Y2115877D01*
G01X24252841Y2110289D01*
G01X24241411Y2098859D01*
G01X24235569Y2081587D01*
G01X24235569Y2070157D01*
G01X24241411Y2053139D01*
G01X24252841Y2041709D01*
G01X24264271Y2035867D01*
G01X24281289Y2035867D01*
G01X24292719Y2041709D01*
G01X24304149Y2053139D01*
G01X24351901Y2115877D02*
G01X24351901Y2035867D01*
G01X24351901Y2081587D02*
G01X24357743Y2098859D01*
G01X24369173Y2110289D01*
G01X24380603Y2115877D01*
G01X24397621Y2115877D01*
G01X10021874Y1552577D02*
G01X10033304Y1558165D01*
G01X10050576Y1575437D01*
G01X10050576Y1455295D01*
G01X10127030Y1575437D02*
G01X10109758Y1569595D01*
G01X10104170Y1558165D01*
G01X10104170Y1546735D01*
G01X10109758Y1535305D01*
G01X10121188Y1529717D01*
G01X10144048Y1523875D01*
G01X10161320Y1518287D01*
G01X10172750Y1506857D01*
G01X10178338Y1495427D01*
G01X10178338Y1478155D01*
G01X10172750Y1466725D01*
G01X10166908Y1461137D01*
G01X10149890Y1455295D01*
G01X10127030Y1455295D01*
G01X10109758Y1461137D01*
G01X10104170Y1466725D01*
G01X10098328Y1478155D01*
G01X10098328Y1495427D01*
G01X10104170Y1506857D01*
G01X10115600Y1518287D01*
G01X10132618Y1523875D01*
G01X10155478Y1529717D01*
G01X10166908Y1535305D01*
G01X10172750Y1546735D01*
G01X10172750Y1558165D01*
G01X10166908Y1569595D01*
G01X10149890Y1575437D01*
G01X10127030Y1575437D01*
G01X11447468Y1575437D02*
G01X11510460Y1575437D01*
G01X11476170Y1529717D01*
G01X11493188Y1529717D01*
G01X11504618Y1523875D01*
G01X11510460Y1518287D01*
G01X11516048Y1501015D01*
G01X11516048Y1489585D01*
G01X11510460Y1472567D01*
G01X11499030Y1461137D01*
G01X11481758Y1455295D01*
G01X11464740Y1455295D01*
G01X11447468Y1461137D01*
G01X11441880Y1466725D01*
G01X11436038Y1478155D01*
G01X11638222Y1535305D02*
G01X11632380Y1518287D01*
G01X11620950Y1506857D01*
G01X11603932Y1501015D01*
G01X11598090Y1501015D01*
G01X11581072Y1506857D01*
G01X11569642Y1518287D01*
G01X11563800Y1535305D01*
G01X11563800Y1541147D01*
G01X11569642Y1558165D01*
G01X11581072Y1569595D01*
G01X11598090Y1575437D01*
G01X11603932Y1575437D01*
G01X11620950Y1569595D01*
G01X11632380Y1558165D01*
G01X11638222Y1535305D01*
G01X11638222Y1506857D01*
G01X11632380Y1478155D01*
G01X11620950Y1461137D01*
G01X11603932Y1455295D01*
G01X11592502Y1455295D01*
G01X11575230Y1461137D01*
G01X11569642Y1472567D01*
G01X11691816Y1483997D02*
G01X11685974Y1478155D01*
G01X11691816Y1472567D01*
G01X11697404Y1478155D01*
G01X11691816Y1483997D01*
G01X11802306Y1575437D02*
G01X11745156Y1495427D01*
G01X11831008Y1495427D01*
G01X11802306Y1575437D02*
G01X11802306Y1455295D01*
G01X11878760Y1535305D02*
G01X11941752Y1455295D01*
G01X11941752Y1535305D02*
G01X11878760Y1455295D01*
G01X12000934Y1575437D02*
G01X12063926Y1575437D01*
G01X12029636Y1529717D01*
G01X12046654Y1529717D01*
G01X12058084Y1523875D01*
G01X12063926Y1518287D01*
G01X12069514Y1501015D01*
G01X12069514Y1489585D01*
G01X12063926Y1472567D01*
G01X12052496Y1461137D01*
G01X12035224Y1455295D01*
G01X12018206Y1455295D01*
G01X12000934Y1461137D01*
G01X11995346Y1466725D01*
G01X11989504Y1478155D01*
G01X12191688Y1535305D02*
G01X12185846Y1518287D01*
G01X12174416Y1506857D01*
G01X12157398Y1501015D01*
G01X12151556Y1501015D01*
G01X12134538Y1506857D01*
G01X12123108Y1518287D01*
G01X12117266Y1535305D01*
G01X12117266Y1541147D01*
G01X12123108Y1558165D01*
G01X12134538Y1569595D01*
G01X12151556Y1575437D01*
G01X12157398Y1575437D01*
G01X12174416Y1569595D01*
G01X12185846Y1558165D01*
G01X12191688Y1535305D01*
G01X12191688Y1506857D01*
G01X12185846Y1478155D01*
G01X12174416Y1461137D01*
G01X12157398Y1455295D01*
G01X12145968Y1455295D01*
G01X12128696Y1461137D01*
G01X12123108Y1472567D01*
G01X12245282Y1483997D02*
G01X12239440Y1478155D01*
G01X12245282Y1472567D01*
G01X12250870Y1478155D01*
G01X12245282Y1483997D01*
G01X12355772Y1575437D02*
G01X12298622Y1495427D01*
G01X12384474Y1495427D01*
G01X12355772Y1575437D02*
G01X12355772Y1455295D01*
G01X12432226Y1535305D02*
G01X12432226Y1455295D01*
G01X12432226Y1512445D02*
G01X12449498Y1529717D01*
G01X12460928Y1535305D01*
G01X12477946Y1535305D01*
G01X12489376Y1529717D01*
G01X12495218Y1512445D01*
G01X12495218Y1455295D01*
G01X12495218Y1512445D02*
G01X12512236Y1529717D01*
G01X12523666Y1535305D01*
G01X12540938Y1535305D01*
G01X12552368Y1529717D01*
G01X12557956Y1512445D01*
G01X12557956Y1455295D01*
G01X12605708Y1575437D02*
G01X12611550Y1569595D01*
G01X12617138Y1575437D01*
G01X12611550Y1581025D01*
G01X12605708Y1575437D01*
G01X12611550Y1535305D02*
G01X12611550Y1455295D01*
G01X12664890Y1575437D02*
G01X12664890Y1455295D01*
G01X12752774Y1598297D02*
G01X12741344Y1586867D01*
G01X12729914Y1569595D01*
G01X12718484Y1546735D01*
G01X12712642Y1518287D01*
G01X12712642Y1495427D01*
G01X12718484Y1466725D01*
G01X12729914Y1443865D01*
G01X12741344Y1426847D01*
G01X12752774Y1415417D01*
G01X12800526Y1552577D02*
G01X12811956Y1558165D01*
G01X12829228Y1575437D01*
G01X12829228Y1455295D01*
G01X12882822Y1483997D02*
G01X12876980Y1478155D01*
G01X12882822Y1472567D01*
G01X12888410Y1478155D01*
G01X12882822Y1483997D01*
G01X12970452Y1575437D02*
G01X12953434Y1569595D01*
G01X12942004Y1552577D01*
G01X12936162Y1523875D01*
G01X12936162Y1506857D01*
G01X12942004Y1478155D01*
G01X12953434Y1461137D01*
G01X12970452Y1455295D01*
G01X12981882Y1455295D01*
G01X12999154Y1461137D01*
G01X13010584Y1478155D01*
G01X13016172Y1506857D01*
G01X13016172Y1523875D01*
G01X13010584Y1552577D01*
G01X12999154Y1569595D01*
G01X12981882Y1575437D01*
G01X12970452Y1575437D01*
G01X13098214Y1575437D02*
G01X13081196Y1569595D01*
G01X13069766Y1552577D01*
G01X13063924Y1523875D01*
G01X13063924Y1506857D01*
G01X13069766Y1478155D01*
G01X13081196Y1461137D01*
G01X13098214Y1455295D01*
G01X13109644Y1455295D01*
G01X13126916Y1461137D01*
G01X13138346Y1478155D01*
G01X13143934Y1506857D01*
G01X13143934Y1523875D01*
G01X13138346Y1552577D01*
G01X13126916Y1569595D01*
G01X13109644Y1575437D01*
G01X13098214Y1575437D01*
G01X13225976Y1575437D02*
G01X13208958Y1569595D01*
G01X13197528Y1552577D01*
G01X13191686Y1523875D01*
G01X13191686Y1506857D01*
G01X13197528Y1478155D01*
G01X13208958Y1461137D01*
G01X13225976Y1455295D01*
G01X13237406Y1455295D01*
G01X13254678Y1461137D01*
G01X13266108Y1478155D01*
G01X13271696Y1506857D01*
G01X13271696Y1523875D01*
G01X13266108Y1552577D01*
G01X13254678Y1569595D01*
G01X13237406Y1575437D01*
G01X13225976Y1575437D01*
G01X13319448Y1535305D02*
G01X13382440Y1455295D01*
G01X13382440Y1535305D02*
G01X13319448Y1455295D01*
G01X13430192Y1552577D02*
G01X13441622Y1558165D01*
G01X13458894Y1575437D01*
G01X13458894Y1455295D01*
G01X13512488Y1483997D02*
G01X13506646Y1478155D01*
G01X13512488Y1472567D01*
G01X13518076Y1478155D01*
G01X13512488Y1483997D01*
G01X13600118Y1575437D02*
G01X13583100Y1569595D01*
G01X13571670Y1552577D01*
G01X13565828Y1523875D01*
G01X13565828Y1506857D01*
G01X13571670Y1478155D01*
G01X13583100Y1461137D01*
G01X13600118Y1455295D01*
G01X13611548Y1455295D01*
G01X13628820Y1461137D01*
G01X13640250Y1478155D01*
G01X13645838Y1506857D01*
G01X13645838Y1523875D01*
G01X13640250Y1552577D01*
G01X13628820Y1569595D01*
G01X13611548Y1575437D01*
G01X13600118Y1575437D01*
G01X13727880Y1575437D02*
G01X13710862Y1569595D01*
G01X13699432Y1552577D01*
G01X13693590Y1523875D01*
G01X13693590Y1506857D01*
G01X13699432Y1478155D01*
G01X13710862Y1461137D01*
G01X13727880Y1455295D01*
G01X13739310Y1455295D01*
G01X13756582Y1461137D01*
G01X13768012Y1478155D01*
G01X13773600Y1506857D01*
G01X13773600Y1523875D01*
G01X13768012Y1552577D01*
G01X13756582Y1569595D01*
G01X13739310Y1575437D01*
G01X13727880Y1575437D01*
G01X13855642Y1575437D02*
G01X13838624Y1569595D01*
G01X13827194Y1552577D01*
G01X13821352Y1523875D01*
G01X13821352Y1506857D01*
G01X13827194Y1478155D01*
G01X13838624Y1461137D01*
G01X13855642Y1455295D01*
G01X13867072Y1455295D01*
G01X13884344Y1461137D01*
G01X13895774Y1478155D01*
G01X13901362Y1506857D01*
G01X13901362Y1523875D01*
G01X13895774Y1552577D01*
G01X13884344Y1569595D01*
G01X13867072Y1575437D01*
G01X13855642Y1575437D01*
G01X13949114Y1535305D02*
G01X13949114Y1455295D01*
G01X13949114Y1512445D02*
G01X13966386Y1529717D01*
G01X13977816Y1535305D01*
G01X13994834Y1535305D01*
G01X14006264Y1529717D01*
G01X14012106Y1512445D01*
G01X14012106Y1455295D01*
G01X14012106Y1512445D02*
G01X14029124Y1529717D01*
G01X14040554Y1535305D01*
G01X14057826Y1535305D01*
G01X14069256Y1529717D01*
G01X14074844Y1512445D01*
G01X14074844Y1455295D01*
G01X14122596Y1535305D02*
G01X14122596Y1455295D01*
G01X14122596Y1512445D02*
G01X14139868Y1529717D01*
G01X14151298Y1535305D01*
G01X14168316Y1535305D01*
G01X14179746Y1529717D01*
G01X14185588Y1512445D01*
G01X14185588Y1455295D01*
G01X14185588Y1512445D02*
G01X14202606Y1529717D01*
G01X14214036Y1535305D01*
G01X14231308Y1535305D01*
G01X14242738Y1529717D01*
G01X14248326Y1512445D01*
G01X14248326Y1455295D01*
G01X14296078Y1598297D02*
G01X14307508Y1586867D01*
G01X14318938Y1569595D01*
G01X14330368Y1546735D01*
G01X14336210Y1518287D01*
G01X14336210Y1495427D01*
G01X14330368Y1466725D01*
G01X14318938Y1443865D01*
G01X14307508Y1426847D01*
G01X14296078Y1415417D01*
G01X15329495Y1575437D02*
G01X15329495Y1455295D01*
G01X15329495Y1575437D02*
G01X15381057Y1575437D01*
G01X15398075Y1569595D01*
G01X15403917Y1564007D01*
G01X15409505Y1552577D01*
G01X15409505Y1535305D01*
G01X15403917Y1523875D01*
G01X15398075Y1518287D01*
G01X15381057Y1512445D01*
G01X15329495Y1512445D01*
G01X15497389Y1575437D02*
G01X15497389Y1455295D01*
G01X15457257Y1575437D02*
G01X15537267Y1575437D01*
G01X15585019Y1575437D02*
G01X15585019Y1455295D01*
G01X15665029Y1575437D02*
G01X15665029Y1455295D01*
G01X15585019Y1518287D02*
G01X15665029Y1518287D01*
G01X16790902Y1575437D02*
G01X16790902Y1455295D01*
G01X16790902Y1575437D02*
G01X16842464Y1575437D01*
G01X16859482Y1569595D01*
G01X16865324Y1564007D01*
G01X16870912Y1552577D01*
G01X16870912Y1541147D01*
G01X16865324Y1529717D01*
G01X16859482Y1523875D01*
G01X16842464Y1518287D01*
G01X16790902Y1518287D01*
G01X16831034Y1518287D02*
G01X16870912Y1455295D01*
G01X16947366Y1535305D02*
G01X16935936Y1529717D01*
G01X16924506Y1518287D01*
G01X16918664Y1501015D01*
G01X16918664Y1489585D01*
G01X16924506Y1472567D01*
G01X16935936Y1461137D01*
G01X16947366Y1455295D01*
G01X16964384Y1455295D01*
G01X16975814Y1461137D01*
G01X16987244Y1472567D01*
G01X16993086Y1489585D01*
G01X16993086Y1501015D01*
G01X16987244Y1518287D01*
G01X16975814Y1529717D01*
G01X16964384Y1535305D01*
G01X16947366Y1535305D01*
G01X17040838Y1535305D02*
G01X17040838Y1478155D01*
G01X17046680Y1461137D01*
G01X17058110Y1455295D01*
G01X17075128Y1455295D01*
G01X17086558Y1461137D01*
G01X17103830Y1478155D01*
G01X17103830Y1535305D02*
G01X17103830Y1455295D01*
G01X17151582Y1535305D02*
G01X17151582Y1455295D01*
G01X17151582Y1512445D02*
G01X17168854Y1529717D01*
G01X17180284Y1535305D01*
G01X17197302Y1535305D01*
G01X17208732Y1529717D01*
G01X17214574Y1512445D01*
G01X17214574Y1455295D01*
G01X17330906Y1575437D02*
G01X17330906Y1455295D01*
G01X17330906Y1518287D02*
G01X17319476Y1529717D01*
G01X17308046Y1535305D01*
G01X17291028Y1535305D01*
G01X17279598Y1529717D01*
G01X17268168Y1518287D01*
G01X17262326Y1501015D01*
G01X17262326Y1489585D01*
G01X17268168Y1472567D01*
G01X17279598Y1461137D01*
G01X17291028Y1455295D01*
G01X17308046Y1455295D01*
G01X17319476Y1461137D01*
G01X17330906Y1472567D01*
G01X18222083Y1575437D02*
G01X18222083Y1455295D01*
G01X18222083Y1575437D02*
G01X18273645Y1575437D01*
G01X18290663Y1569595D01*
G01X18296505Y1564007D01*
G01X18302093Y1552577D01*
G01X18302093Y1535305D01*
G01X18296505Y1523875D01*
G01X18290663Y1518287D01*
G01X18273645Y1512445D01*
G01X18222083Y1512445D01*
G01X18418425Y1535305D02*
G01X18418425Y1455295D01*
G01X18418425Y1518287D02*
G01X18406995Y1529717D01*
G01X18395565Y1535305D01*
G01X18378547Y1535305D01*
G01X18367117Y1529717D01*
G01X18355687Y1518287D01*
G01X18349845Y1501015D01*
G01X18349845Y1489585D01*
G01X18355687Y1472567D01*
G01X18367117Y1461137D01*
G01X18378547Y1455295D01*
G01X18395565Y1455295D01*
G01X18406995Y1461137D01*
G01X18418425Y1472567D01*
G01X18534757Y1575437D02*
G01X18534757Y1455295D01*
G01X18534757Y1518287D02*
G01X18523327Y1529717D01*
G01X18511897Y1535305D01*
G01X18494879Y1535305D01*
G01X18483449Y1529717D01*
G01X18472019Y1518287D01*
G01X18466177Y1501015D01*
G01X18466177Y1489585D01*
G01X18472019Y1472567D01*
G01X18483449Y1461137D01*
G01X18494879Y1455295D01*
G01X18511897Y1455295D01*
G01X18523327Y1461137D01*
G01X18534757Y1472567D01*
G01X19931394Y1598297D02*
G01X19919964Y1586867D01*
G01X19908534Y1569595D01*
G01X19897104Y1546735D01*
G01X19891262Y1518287D01*
G01X19891262Y1495427D01*
G01X19897104Y1466725D01*
G01X19908534Y1443865D01*
G01X19919964Y1426847D01*
G01X19931394Y1415417D01*
G01X19979146Y1575437D02*
G01X19979146Y1455295D01*
G01X19979146Y1575437D02*
G01X20024866Y1455295D01*
G01X20070586Y1575437D02*
G01X20024866Y1455295D01*
G01X20070586Y1575437D02*
G01X20070586Y1455295D01*
G01X20118338Y1575437D02*
G01X20124180Y1569595D01*
G01X20129768Y1575437D01*
G01X20124180Y1581025D01*
G01X20118338Y1575437D01*
G01X20124180Y1535305D02*
G01X20124180Y1455295D01*
G01X20177520Y1535305D02*
G01X20240512Y1455295D01*
G01X20240512Y1535305D02*
G01X20177520Y1455295D01*
G01X20288264Y1501015D02*
G01X20356844Y1501015D01*
G01X20356844Y1512445D01*
G01X20351256Y1523875D01*
G01X20345414Y1529717D01*
G01X20333984Y1535305D01*
G01X20316966Y1535305D01*
G01X20305536Y1529717D01*
G01X20294106Y1518287D01*
G01X20288264Y1501015D01*
G01X20288264Y1489585D01*
G01X20294106Y1472567D01*
G01X20305536Y1461137D01*
G01X20316966Y1455295D01*
G01X20333984Y1455295D01*
G01X20345414Y1461137D01*
G01X20356844Y1472567D01*
G01X20473176Y1575437D02*
G01X20473176Y1455295D01*
G01X20473176Y1518287D02*
G01X20461746Y1529717D01*
G01X20450316Y1535305D01*
G01X20433298Y1535305D01*
G01X20421868Y1529717D01*
G01X20410438Y1518287D01*
G01X20404596Y1501015D01*
G01X20404596Y1489585D01*
G01X20410438Y1472567D01*
G01X20421868Y1461137D01*
G01X20433298Y1455295D01*
G01X20450316Y1455295D01*
G01X20461746Y1461137D01*
G01X20473176Y1472567D01*
G01X20520928Y1598297D02*
G01X20532358Y1586867D01*
G01X20543788Y1569595D01*
G01X20555218Y1546735D01*
G01X20561060Y1518287D01*
G01X20561060Y1495427D01*
G01X20555218Y1466725D01*
G01X20543788Y1443865D01*
G01X20532358Y1426847D01*
G01X20520928Y1415417D01*
G01X21850763Y1575437D02*
G01X21850763Y1455295D01*
G01X21810631Y1575437D02*
G01X21890641Y1575437D01*
G01X21967095Y1535305D02*
G01X21955665Y1529717D01*
G01X21944235Y1518287D01*
G01X21938393Y1501015D01*
G01X21938393Y1489585D01*
G01X21944235Y1472567D01*
G01X21955665Y1461137D01*
G01X21967095Y1455295D01*
G01X21984113Y1455295D01*
G01X21995543Y1461137D01*
G01X22006973Y1472567D01*
G01X22012815Y1489585D01*
G01X22012815Y1501015D01*
G01X22006973Y1518287D01*
G01X21995543Y1529717D01*
G01X21984113Y1535305D01*
G01X21967095Y1535305D01*
G01X22060567Y1535305D02*
G01X22060567Y1415417D01*
G01X22060567Y1518287D02*
G01X22071997Y1529717D01*
G01X22083427Y1535305D01*
G01X22100699Y1535305D01*
G01X22112129Y1529717D01*
G01X22123559Y1518287D01*
G01X22129147Y1501015D01*
G01X22129147Y1489585D01*
G01X22123559Y1472567D01*
G01X22112129Y1461137D01*
G01X22100699Y1455295D01*
G01X22083427Y1455295D01*
G01X22071997Y1461137D01*
G01X22060567Y1472567D01*
G01X22304915Y1575437D02*
G01X22304915Y1455295D01*
G01X22304915Y1455295D02*
G01X22373495Y1455295D01*
G01X22489827Y1535305D02*
G01X22489827Y1455295D01*
G01X22489827Y1518287D02*
G01X22478397Y1529717D01*
G01X22466967Y1535305D01*
G01X22449949Y1535305D01*
G01X22438519Y1529717D01*
G01X22427089Y1518287D01*
G01X22421247Y1501015D01*
G01X22421247Y1489585D01*
G01X22427089Y1472567D01*
G01X22438519Y1461137D01*
G01X22449949Y1455295D01*
G01X22466967Y1455295D01*
G01X22478397Y1461137D01*
G01X22489827Y1472567D01*
G01X22543421Y1535305D02*
G01X22577711Y1455295D01*
G01X22612001Y1535305D02*
G01X22577711Y1455295D01*
G01X22566281Y1432435D01*
G01X22554851Y1421005D01*
G01X22543421Y1415417D01*
G01X22537579Y1415417D01*
G01X22659753Y1501015D02*
G01X22728333Y1501015D01*
G01X22728333Y1512445D01*
G01X22722745Y1523875D01*
G01X22716903Y1529717D01*
G01X22705473Y1535305D01*
G01X22688455Y1535305D01*
G01X22677025Y1529717D01*
G01X22665595Y1518287D01*
G01X22659753Y1501015D01*
G01X22659753Y1489585D01*
G01X22665595Y1472567D01*
G01X22677025Y1461137D01*
G01X22688455Y1455295D01*
G01X22705473Y1455295D01*
G01X22716903Y1461137D01*
G01X22728333Y1472567D01*
G01X22776085Y1535305D02*
G01X22776085Y1455295D01*
G01X22776085Y1501015D02*
G01X22781927Y1518287D01*
G01X22793357Y1529717D01*
G01X22804787Y1535305D01*
G01X22821805Y1535305D01*
G01X22869557Y1506857D02*
G01X22972427Y1506857D01*
G01X23020179Y1575437D02*
G01X23020179Y1455295D01*
G01X23020179Y1575437D02*
G01X23071741Y1575437D01*
G01X23088759Y1569595D01*
G01X23094601Y1564007D01*
G01X23100189Y1552577D01*
G01X23100189Y1541147D01*
G01X23094601Y1529717D01*
G01X23088759Y1523875D01*
G01X23071741Y1518287D01*
G01X23020179Y1518287D02*
G01X23071741Y1518287D01*
G01X23088759Y1512445D01*
G01X23094601Y1506857D01*
G01X23100189Y1495427D01*
G01X23100189Y1478155D01*
G01X23094601Y1466725D01*
G01X23088759Y1461137D01*
G01X23071741Y1455295D01*
G01X23020179Y1455295D01*
G01X23176643Y1535305D02*
G01X23165213Y1529717D01*
G01X23153783Y1518287D01*
G01X23147941Y1501015D01*
G01X23147941Y1489585D01*
G01X23153783Y1472567D01*
G01X23165213Y1461137D01*
G01X23176643Y1455295D01*
G01X23193661Y1455295D01*
G01X23205091Y1461137D01*
G01X23216521Y1472567D01*
G01X23222363Y1489585D01*
G01X23222363Y1501015D01*
G01X23216521Y1518287D01*
G01X23205091Y1529717D01*
G01X23193661Y1535305D01*
G01X23176643Y1535305D01*
G01X23287387Y1575437D02*
G01X23287387Y1478155D01*
G01X23292975Y1461137D01*
G01X23304405Y1455295D01*
G01X23315835Y1455295D01*
G01X23270115Y1535305D02*
G01X23310247Y1535305D01*
G01X23380859Y1575437D02*
G01X23380859Y1478155D01*
G01X23386447Y1461137D01*
G01X23397877Y1455295D01*
G01X23409307Y1455295D01*
G01X23363587Y1535305D02*
G01X23403719Y1535305D01*
G01X23485761Y1535305D02*
G01X23474331Y1529717D01*
G01X23462901Y1518287D01*
G01X23457059Y1501015D01*
G01X23457059Y1489585D01*
G01X23462901Y1472567D01*
G01X23474331Y1461137D01*
G01X23485761Y1455295D01*
G01X23502779Y1455295D01*
G01X23514209Y1461137D01*
G01X23525639Y1472567D01*
G01X23531481Y1489585D01*
G01X23531481Y1501015D01*
G01X23525639Y1518287D01*
G01X23514209Y1529717D01*
G01X23502779Y1535305D01*
G01X23485761Y1535305D01*
G01X23579233Y1535305D02*
G01X23579233Y1455295D01*
G01X23579233Y1512445D02*
G01X23596505Y1529717D01*
G01X23607935Y1535305D01*
G01X23624953Y1535305D01*
G01X23636383Y1529717D01*
G01X23642225Y1512445D01*
G01X23642225Y1455295D01*
G01X23642225Y1512445D02*
G01X23659243Y1529717D01*
G01X23670673Y1535305D01*
G01X23687945Y1535305D01*
G01X23699375Y1529717D01*
G01X23704963Y1512445D01*
G01X23704963Y1455295D01*
G01X23880731Y1575437D02*
G01X23880731Y1455295D01*
G01X23880731Y1455295D02*
G01X23949311Y1455295D01*
G01X24065643Y1535305D02*
G01X24065643Y1455295D01*
G01X24065643Y1518287D02*
G01X24054213Y1529717D01*
G01X24042783Y1535305D01*
G01X24025765Y1535305D01*
G01X24014335Y1529717D01*
G01X24002905Y1518287D01*
G01X23997063Y1501015D01*
G01X23997063Y1489585D01*
G01X24002905Y1472567D01*
G01X24014335Y1461137D01*
G01X24025765Y1455295D01*
G01X24042783Y1455295D01*
G01X24054213Y1461137D01*
G01X24065643Y1472567D01*
G01X24119237Y1535305D02*
G01X24153527Y1455295D01*
G01X24187817Y1535305D02*
G01X24153527Y1455295D01*
G01X24142097Y1432435D01*
G01X24130667Y1421005D01*
G01X24119237Y1415417D01*
G01X24113395Y1415417D01*
G01X24235569Y1501015D02*
G01X24304149Y1501015D01*
G01X24304149Y1512445D01*
G01X24298561Y1523875D01*
G01X24292719Y1529717D01*
G01X24281289Y1535305D01*
G01X24264271Y1535305D01*
G01X24252841Y1529717D01*
G01X24241411Y1518287D01*
G01X24235569Y1501015D01*
G01X24235569Y1489585D01*
G01X24241411Y1472567D01*
G01X24252841Y1461137D01*
G01X24264271Y1455295D01*
G01X24281289Y1455295D01*
G01X24292719Y1461137D01*
G01X24304149Y1472567D01*
G01X24351901Y1535305D02*
G01X24351901Y1455295D01*
G01X24351901Y1501015D02*
G01X24357743Y1518287D01*
G01X24369173Y1529717D01*
G01X24380603Y1535305D01*
G01X24397621Y1535305D01*
G01X10079024Y994866D02*
G01X10021874Y914856D01*
G01X10107726Y914856D01*
G01X10079024Y994866D02*
G01X10079024Y874724D01*
G01X10212628Y994866D02*
G01X10155478Y914856D01*
G01X10241330Y914856D01*
G01X10212628Y994866D02*
G01X10212628Y874724D01*
G01X11493188Y994866D02*
G01X11436038Y914856D01*
G01X11521890Y914856D01*
G01X11493188Y994866D02*
G01X11493188Y874724D01*
G01X11569642Y972006D02*
G01X11581072Y977594D01*
G01X11598344Y994866D01*
G01X11598344Y874724D01*
G01X11651938Y903426D02*
G01X11646096Y897584D01*
G01X11651938Y891996D01*
G01X11657526Y897584D01*
G01X11651938Y903426D01*
G01X11716708Y994866D02*
G01X11779700Y994866D01*
G01X11745410Y949146D01*
G01X11762428Y949146D01*
G01X11773858Y943304D01*
G01X11779700Y937716D01*
G01X11785288Y920444D01*
G01X11785288Y909014D01*
G01X11779700Y891996D01*
G01X11768270Y880566D01*
G01X11750998Y874724D01*
G01X11733980Y874724D01*
G01X11716708Y880566D01*
G01X11711120Y886154D01*
G01X11705278Y897584D01*
G01X11833040Y954734D02*
G01X11896032Y874724D01*
G01X11896032Y954734D02*
G01X11833040Y874724D01*
G01X12000934Y994866D02*
G01X11943784Y914856D01*
G01X12029636Y914856D01*
G01X12000934Y994866D02*
G01X12000934Y874724D01*
G01X12077388Y972006D02*
G01X12088818Y977594D01*
G01X12106090Y994866D01*
G01X12106090Y874724D01*
G01X12159684Y903426D02*
G01X12153842Y897584D01*
G01X12159684Y891996D01*
G01X12165272Y897584D01*
G01X12159684Y903426D01*
G01X12224454Y994866D02*
G01X12287446Y994866D01*
G01X12253156Y949146D01*
G01X12270174Y949146D01*
G01X12281604Y943304D01*
G01X12287446Y937716D01*
G01X12293034Y920444D01*
G01X12293034Y909014D01*
G01X12287446Y891996D01*
G01X12276016Y880566D01*
G01X12258744Y874724D01*
G01X12241726Y874724D01*
G01X12224454Y880566D01*
G01X12218866Y886154D01*
G01X12213024Y897584D01*
G01X12340786Y954734D02*
G01X12340786Y874724D01*
G01X12340786Y931874D02*
G01X12358058Y949146D01*
G01X12369488Y954734D01*
G01X12386506Y954734D01*
G01X12397936Y949146D01*
G01X12403778Y931874D01*
G01X12403778Y874724D01*
G01X12403778Y931874D02*
G01X12420796Y949146D01*
G01X12432226Y954734D01*
G01X12449498Y954734D01*
G01X12460928Y949146D01*
G01X12466516Y931874D01*
G01X12466516Y874724D01*
G01X12514268Y994866D02*
G01X12520110Y989024D01*
G01X12525698Y994866D01*
G01X12520110Y1000454D01*
G01X12514268Y994866D01*
G01X12520110Y954734D02*
G01X12520110Y874724D01*
G01X12573450Y994866D02*
G01X12573450Y874724D01*
G01X12661334Y1017726D02*
G01X12649904Y1006296D01*
G01X12638474Y989024D01*
G01X12627044Y966164D01*
G01X12621202Y937716D01*
G01X12621202Y914856D01*
G01X12627044Y886154D01*
G01X12638474Y863294D01*
G01X12649904Y846276D01*
G01X12661334Y834846D01*
G01X12709086Y972006D02*
G01X12720516Y977594D01*
G01X12737788Y994866D01*
G01X12737788Y874724D01*
G01X12791382Y903426D02*
G01X12785540Y897584D01*
G01X12791382Y891996D01*
G01X12796970Y897584D01*
G01X12791382Y903426D01*
G01X12879012Y994866D02*
G01X12861994Y989024D01*
G01X12850564Y972006D01*
G01X12844722Y943304D01*
G01X12844722Y926286D01*
G01X12850564Y897584D01*
G01X12861994Y880566D01*
G01X12879012Y874724D01*
G01X12890442Y874724D01*
G01X12907714Y880566D01*
G01X12919144Y897584D01*
G01X12924732Y926286D01*
G01X12924732Y943304D01*
G01X12919144Y972006D01*
G01X12907714Y989024D01*
G01X12890442Y994866D01*
G01X12879012Y994866D01*
G01X13041064Y994866D02*
G01X12983914Y994866D01*
G01X12978326Y943304D01*
G01X12983914Y949146D01*
G01X13001186Y954734D01*
G01X13018204Y954734D01*
G01X13035476Y949146D01*
G01X13046906Y937716D01*
G01X13052494Y920444D01*
G01X13052494Y909014D01*
G01X13046906Y891996D01*
G01X13035476Y880566D01*
G01X13018204Y874724D01*
G01X13001186Y874724D01*
G01X12983914Y880566D01*
G01X12978326Y886154D01*
G01X12972484Y897584D01*
G01X13134536Y994866D02*
G01X13117518Y989024D01*
G01X13106088Y972006D01*
G01X13100246Y943304D01*
G01X13100246Y926286D01*
G01X13106088Y897584D01*
G01X13117518Y880566D01*
G01X13134536Y874724D01*
G01X13145966Y874724D01*
G01X13163238Y880566D01*
G01X13174668Y897584D01*
G01X13180256Y926286D01*
G01X13180256Y943304D01*
G01X13174668Y972006D01*
G01X13163238Y989024D01*
G01X13145966Y994866D01*
G01X13134536Y994866D01*
G01X13228008Y954734D02*
G01X13291000Y874724D01*
G01X13291000Y954734D02*
G01X13228008Y874724D01*
G01X13338752Y972006D02*
G01X13350182Y977594D01*
G01X13367454Y994866D01*
G01X13367454Y874724D01*
G01X13421048Y903426D02*
G01X13415206Y897584D01*
G01X13421048Y891996D01*
G01X13426636Y897584D01*
G01X13421048Y903426D01*
G01X13508678Y994866D02*
G01X13491660Y989024D01*
G01X13480230Y972006D01*
G01X13474388Y943304D01*
G01X13474388Y926286D01*
G01X13480230Y897584D01*
G01X13491660Y880566D01*
G01X13508678Y874724D01*
G01X13520108Y874724D01*
G01X13537380Y880566D01*
G01X13548810Y897584D01*
G01X13554398Y926286D01*
G01X13554398Y943304D01*
G01X13548810Y972006D01*
G01X13537380Y989024D01*
G01X13520108Y994866D01*
G01X13508678Y994866D01*
G01X13670730Y994866D02*
G01X13613580Y994866D01*
G01X13607992Y943304D01*
G01X13613580Y949146D01*
G01X13630852Y954734D01*
G01X13647870Y954734D01*
G01X13665142Y949146D01*
G01X13676572Y937716D01*
G01X13682160Y920444D01*
G01X13682160Y909014D01*
G01X13676572Y891996D01*
G01X13665142Y880566D01*
G01X13647870Y874724D01*
G01X13630852Y874724D01*
G01X13613580Y880566D01*
G01X13607992Y886154D01*
G01X13602150Y897584D01*
G01X13764202Y994866D02*
G01X13747184Y989024D01*
G01X13735754Y972006D01*
G01X13729912Y943304D01*
G01X13729912Y926286D01*
G01X13735754Y897584D01*
G01X13747184Y880566D01*
G01X13764202Y874724D01*
G01X13775632Y874724D01*
G01X13792904Y880566D01*
G01X13804334Y897584D01*
G01X13809922Y926286D01*
G01X13809922Y943304D01*
G01X13804334Y972006D01*
G01X13792904Y989024D01*
G01X13775632Y994866D01*
G01X13764202Y994866D01*
G01X13857674Y954734D02*
G01X13857674Y874724D01*
G01X13857674Y931874D02*
G01X13874946Y949146D01*
G01X13886376Y954734D01*
G01X13903394Y954734D01*
G01X13914824Y949146D01*
G01X13920666Y931874D01*
G01X13920666Y874724D01*
G01X13920666Y931874D02*
G01X13937684Y949146D01*
G01X13949114Y954734D01*
G01X13966386Y954734D01*
G01X13977816Y949146D01*
G01X13983404Y931874D01*
G01X13983404Y874724D01*
G01X14031156Y954734D02*
G01X14031156Y874724D01*
G01X14031156Y931874D02*
G01X14048428Y949146D01*
G01X14059858Y954734D01*
G01X14076876Y954734D01*
G01X14088306Y949146D01*
G01X14094148Y931874D01*
G01X14094148Y874724D01*
G01X14094148Y931874D02*
G01X14111166Y949146D01*
G01X14122596Y954734D01*
G01X14139868Y954734D01*
G01X14151298Y949146D01*
G01X14156886Y931874D01*
G01X14156886Y874724D01*
G01X14204638Y1017726D02*
G01X14216068Y1006296D01*
G01X14227498Y989024D01*
G01X14238928Y966164D01*
G01X14244770Y937716D01*
G01X14244770Y914856D01*
G01X14238928Y886154D01*
G01X14227498Y863294D01*
G01X14216068Y846276D01*
G01X14204638Y834846D01*
G01X15329495Y994866D02*
G01X15329495Y874724D01*
G01X15329495Y994866D02*
G01X15381057Y994866D01*
G01X15398075Y989024D01*
G01X15403917Y983436D01*
G01X15409505Y972006D01*
G01X15409505Y954734D01*
G01X15403917Y943304D01*
G01X15398075Y937716D01*
G01X15381057Y931874D01*
G01X15329495Y931874D01*
G01X15497389Y994866D02*
G01X15497389Y874724D01*
G01X15457257Y994866D02*
G01X15537267Y994866D01*
G01X15585019Y994866D02*
G01X15585019Y874724D01*
G01X15665029Y994866D02*
G01X15665029Y874724D01*
G01X15585019Y937716D02*
G01X15665029Y937716D01*
G01X16790902Y994866D02*
G01X16790902Y874724D01*
G01X16790902Y994866D02*
G01X16842464Y994866D01*
G01X16859482Y989024D01*
G01X16865324Y983436D01*
G01X16870912Y972006D01*
G01X16870912Y960576D01*
G01X16865324Y949146D01*
G01X16859482Y943304D01*
G01X16842464Y937716D01*
G01X16790902Y937716D01*
G01X16831034Y937716D02*
G01X16870912Y874724D01*
G01X16947366Y954734D02*
G01X16935936Y949146D01*
G01X16924506Y937716D01*
G01X16918664Y920444D01*
G01X16918664Y909014D01*
G01X16924506Y891996D01*
G01X16935936Y880566D01*
G01X16947366Y874724D01*
G01X16964384Y874724D01*
G01X16975814Y880566D01*
G01X16987244Y891996D01*
G01X16993086Y909014D01*
G01X16993086Y920444D01*
G01X16987244Y937716D01*
G01X16975814Y949146D01*
G01X16964384Y954734D01*
G01X16947366Y954734D01*
G01X17040838Y954734D02*
G01X17040838Y897584D01*
G01X17046680Y880566D01*
G01X17058110Y874724D01*
G01X17075128Y874724D01*
G01X17086558Y880566D01*
G01X17103830Y897584D01*
G01X17103830Y954734D02*
G01X17103830Y874724D01*
G01X17151582Y954734D02*
G01X17151582Y874724D01*
G01X17151582Y931874D02*
G01X17168854Y949146D01*
G01X17180284Y954734D01*
G01X17197302Y954734D01*
G01X17208732Y949146D01*
G01X17214574Y931874D01*
G01X17214574Y874724D01*
G01X17330906Y994866D02*
G01X17330906Y874724D01*
G01X17330906Y937716D02*
G01X17319476Y949146D01*
G01X17308046Y954734D01*
G01X17291028Y954734D01*
G01X17279598Y949146D01*
G01X17268168Y937716D01*
G01X17262326Y920444D01*
G01X17262326Y909014D01*
G01X17268168Y891996D01*
G01X17279598Y880566D01*
G01X17291028Y874724D01*
G01X17308046Y874724D01*
G01X17319476Y880566D01*
G01X17330906Y891996D01*
G01X18222083Y994866D02*
G01X18222083Y874724D01*
G01X18222083Y994866D02*
G01X18273645Y994866D01*
G01X18290663Y989024D01*
G01X18296505Y983436D01*
G01X18302093Y972006D01*
G01X18302093Y954734D01*
G01X18296505Y943304D01*
G01X18290663Y937716D01*
G01X18273645Y931874D01*
G01X18222083Y931874D01*
G01X18418425Y954734D02*
G01X18418425Y874724D01*
G01X18418425Y937716D02*
G01X18406995Y949146D01*
G01X18395565Y954734D01*
G01X18378547Y954734D01*
G01X18367117Y949146D01*
G01X18355687Y937716D01*
G01X18349845Y920444D01*
G01X18349845Y909014D01*
G01X18355687Y891996D01*
G01X18367117Y880566D01*
G01X18378547Y874724D01*
G01X18395565Y874724D01*
G01X18406995Y880566D01*
G01X18418425Y891996D01*
G01X18534757Y994866D02*
G01X18534757Y874724D01*
G01X18534757Y937716D02*
G01X18523327Y949146D01*
G01X18511897Y954734D01*
G01X18494879Y954734D01*
G01X18483449Y949146D01*
G01X18472019Y937716D01*
G01X18466177Y920444D01*
G01X18466177Y909014D01*
G01X18472019Y891996D01*
G01X18483449Y880566D01*
G01X18494879Y874724D01*
G01X18511897Y874724D01*
G01X18523327Y880566D01*
G01X18534757Y891996D01*
G01X19931394Y1017726D02*
G01X19919964Y1006296D01*
G01X19908534Y989024D01*
G01X19897104Y966164D01*
G01X19891262Y937716D01*
G01X19891262Y914856D01*
G01X19897104Y886154D01*
G01X19908534Y863294D01*
G01X19919964Y846276D01*
G01X19931394Y834846D01*
G01X19979146Y994866D02*
G01X19979146Y874724D01*
G01X19979146Y994866D02*
G01X20024866Y874724D01*
G01X20070586Y994866D02*
G01X20024866Y874724D01*
G01X20070586Y994866D02*
G01X20070586Y874724D01*
G01X20118338Y994866D02*
G01X20124180Y989024D01*
G01X20129768Y994866D01*
G01X20124180Y1000454D01*
G01X20118338Y994866D01*
G01X20124180Y954734D02*
G01X20124180Y874724D01*
G01X20177520Y954734D02*
G01X20240512Y874724D01*
G01X20240512Y954734D02*
G01X20177520Y874724D01*
G01X20288264Y920444D02*
G01X20356844Y920444D01*
G01X20356844Y931874D01*
G01X20351256Y943304D01*
G01X20345414Y949146D01*
G01X20333984Y954734D01*
G01X20316966Y954734D01*
G01X20305536Y949146D01*
G01X20294106Y937716D01*
G01X20288264Y920444D01*
G01X20288264Y909014D01*
G01X20294106Y891996D01*
G01X20305536Y880566D01*
G01X20316966Y874724D01*
G01X20333984Y874724D01*
G01X20345414Y880566D01*
G01X20356844Y891996D01*
G01X20473176Y994866D02*
G01X20473176Y874724D01*
G01X20473176Y937716D02*
G01X20461746Y949146D01*
G01X20450316Y954734D01*
G01X20433298Y954734D01*
G01X20421868Y949146D01*
G01X20410438Y937716D01*
G01X20404596Y920444D01*
G01X20404596Y909014D01*
G01X20410438Y891996D01*
G01X20421868Y880566D01*
G01X20433298Y874724D01*
G01X20450316Y874724D01*
G01X20461746Y880566D01*
G01X20473176Y891996D01*
G01X20520928Y1017726D02*
G01X20532358Y1006296D01*
G01X20543788Y989024D01*
G01X20555218Y966164D01*
G01X20561060Y937716D01*
G01X20561060Y914856D01*
G01X20555218Y886154D01*
G01X20543788Y863294D01*
G01X20532358Y846276D01*
G01X20520928Y834846D01*
G01X21850763Y994866D02*
G01X21850763Y874724D01*
G01X21810631Y994866D02*
G01X21890641Y994866D01*
G01X21967095Y954734D02*
G01X21955665Y949146D01*
G01X21944235Y937716D01*
G01X21938393Y920444D01*
G01X21938393Y909014D01*
G01X21944235Y891996D01*
G01X21955665Y880566D01*
G01X21967095Y874724D01*
G01X21984113Y874724D01*
G01X21995543Y880566D01*
G01X22006973Y891996D01*
G01X22012815Y909014D01*
G01X22012815Y920444D01*
G01X22006973Y937716D01*
G01X21995543Y949146D01*
G01X21984113Y954734D01*
G01X21967095Y954734D01*
G01X22060567Y954734D02*
G01X22060567Y834846D01*
G01X22060567Y937716D02*
G01X22071997Y949146D01*
G01X22083427Y954734D01*
G01X22100699Y954734D01*
G01X22112129Y949146D01*
G01X22123559Y937716D01*
G01X22129147Y920444D01*
G01X22129147Y909014D01*
G01X22123559Y891996D01*
G01X22112129Y880566D01*
G01X22100699Y874724D01*
G01X22083427Y874724D01*
G01X22071997Y880566D01*
G01X22060567Y891996D01*
G01X22304915Y994866D02*
G01X22304915Y874724D01*
G01X22304915Y874724D02*
G01X22373495Y874724D01*
G01X22489827Y954734D02*
G01X22489827Y874724D01*
G01X22489827Y937716D02*
G01X22478397Y949146D01*
G01X22466967Y954734D01*
G01X22449949Y954734D01*
G01X22438519Y949146D01*
G01X22427089Y937716D01*
G01X22421247Y920444D01*
G01X22421247Y909014D01*
G01X22427089Y891996D01*
G01X22438519Y880566D01*
G01X22449949Y874724D01*
G01X22466967Y874724D01*
G01X22478397Y880566D01*
G01X22489827Y891996D01*
G01X22543421Y954734D02*
G01X22577711Y874724D01*
G01X22612001Y954734D02*
G01X22577711Y874724D01*
G01X22566281Y851864D01*
G01X22554851Y840434D01*
G01X22543421Y834846D01*
G01X22537579Y834846D01*
G01X22659753Y920444D02*
G01X22728333Y920444D01*
G01X22728333Y931874D01*
G01X22722745Y943304D01*
G01X22716903Y949146D01*
G01X22705473Y954734D01*
G01X22688455Y954734D01*
G01X22677025Y949146D01*
G01X22665595Y937716D01*
G01X22659753Y920444D01*
G01X22659753Y909014D01*
G01X22665595Y891996D01*
G01X22677025Y880566D01*
G01X22688455Y874724D01*
G01X22705473Y874724D01*
G01X22716903Y880566D01*
G01X22728333Y891996D01*
G01X22776085Y954734D02*
G01X22776085Y874724D01*
G01X22776085Y920444D02*
G01X22781927Y937716D01*
G01X22793357Y949146D01*
G01X22804787Y954734D01*
G01X22821805Y954734D01*
G01X22869557Y926286D02*
G01X22972427Y926286D01*
G01X23020179Y994866D02*
G01X23020179Y874724D01*
G01X23020179Y994866D02*
G01X23071741Y994866D01*
G01X23088759Y989024D01*
G01X23094601Y983436D01*
G01X23100189Y972006D01*
G01X23100189Y960576D01*
G01X23094601Y949146D01*
G01X23088759Y943304D01*
G01X23071741Y937716D01*
G01X23020179Y937716D02*
G01X23071741Y937716D01*
G01X23088759Y931874D01*
G01X23094601Y926286D01*
G01X23100189Y914856D01*
G01X23100189Y897584D01*
G01X23094601Y886154D01*
G01X23088759Y880566D01*
G01X23071741Y874724D01*
G01X23020179Y874724D01*
G01X23176643Y954734D02*
G01X23165213Y949146D01*
G01X23153783Y937716D01*
G01X23147941Y920444D01*
G01X23147941Y909014D01*
G01X23153783Y891996D01*
G01X23165213Y880566D01*
G01X23176643Y874724D01*
G01X23193661Y874724D01*
G01X23205091Y880566D01*
G01X23216521Y891996D01*
G01X23222363Y909014D01*
G01X23222363Y920444D01*
G01X23216521Y937716D01*
G01X23205091Y949146D01*
G01X23193661Y954734D01*
G01X23176643Y954734D01*
G01X23287387Y994866D02*
G01X23287387Y897584D01*
G01X23292975Y880566D01*
G01X23304405Y874724D01*
G01X23315835Y874724D01*
G01X23270115Y954734D02*
G01X23310247Y954734D01*
G01X23380859Y994866D02*
G01X23380859Y897584D01*
G01X23386447Y880566D01*
G01X23397877Y874724D01*
G01X23409307Y874724D01*
G01X23363587Y954734D02*
G01X23403719Y954734D01*
G01X23485761Y954734D02*
G01X23474331Y949146D01*
G01X23462901Y937716D01*
G01X23457059Y920444D01*
G01X23457059Y909014D01*
G01X23462901Y891996D01*
G01X23474331Y880566D01*
G01X23485761Y874724D01*
G01X23502779Y874724D01*
G01X23514209Y880566D01*
G01X23525639Y891996D01*
G01X23531481Y909014D01*
G01X23531481Y920444D01*
G01X23525639Y937716D01*
G01X23514209Y949146D01*
G01X23502779Y954734D01*
G01X23485761Y954734D01*
G01X23579233Y954734D02*
G01X23579233Y874724D01*
G01X23579233Y931874D02*
G01X23596505Y949146D01*
G01X23607935Y954734D01*
G01X23624953Y954734D01*
G01X23636383Y949146D01*
G01X23642225Y931874D01*
G01X23642225Y874724D01*
G01X23642225Y931874D02*
G01X23659243Y949146D01*
G01X23670673Y954734D01*
G01X23687945Y954734D01*
G01X23699375Y949146D01*
G01X23704963Y931874D01*
G01X23704963Y874724D01*
G01X23880731Y994866D02*
G01X23880731Y874724D01*
G01X23880731Y874724D02*
G01X23949311Y874724D01*
G01X24065643Y954734D02*
G01X24065643Y874724D01*
G01X24065643Y937716D02*
G01X24054213Y949146D01*
G01X24042783Y954734D01*
G01X24025765Y954734D01*
G01X24014335Y949146D01*
G01X24002905Y937716D01*
G01X23997063Y920444D01*
G01X23997063Y909014D01*
G01X24002905Y891996D01*
G01X24014335Y880566D01*
G01X24025765Y874724D01*
G01X24042783Y874724D01*
G01X24054213Y880566D01*
G01X24065643Y891996D01*
G01X24119237Y954734D02*
G01X24153527Y874724D01*
G01X24187817Y954734D02*
G01X24153527Y874724D01*
G01X24142097Y851864D01*
G01X24130667Y840434D01*
G01X24119237Y834846D01*
G01X24113395Y834846D01*
G01X24235569Y920444D02*
G01X24304149Y920444D01*
G01X24304149Y931874D01*
G01X24298561Y943304D01*
G01X24292719Y949146D01*
G01X24281289Y954734D01*
G01X24264271Y954734D01*
G01X24252841Y949146D01*
G01X24241411Y937716D01*
G01X24235569Y920444D01*
G01X24235569Y909014D01*
G01X24241411Y891996D01*
G01X24252841Y880566D01*
G01X24264271Y874724D01*
G01X24281289Y874724D01*
G01X24292719Y880566D01*
G01X24304149Y891996D01*
G01X24351901Y954734D02*
G01X24351901Y874724D01*
G01X24351901Y920444D02*
G01X24357743Y937716D01*
G01X24369173Y949146D01*
G01X24380603Y954734D01*
G01X24397621Y954734D01*

G04 Image Start*
G36*
G01X8857263Y1975396D02*
G01X8751649Y1986877D01*
G01X8708774Y1889671D01*
G01X8665899Y1986877D01*
G01X8560286Y1975396D01*
G01X8623049Y2061121D01*
G01X8583327Y2115376D01*
G01X8614820Y2115376D01*
G01X8654520Y2061121D01*
G01X8614820Y2006867D01*
G01X8681647Y2014131D01*
G01X8681647Y2014131D01*
G01X8708774Y1952638D01*
G01X8735901Y2014131D01*
G01X8802729Y2006867D01*
G01X8763029Y2061121D01*
G01X8802703Y2115350D01*
G01X8735876Y2108086D01*
G01X8708774Y2169605D01*
G01X8681647Y2108111D01*
G01X8614820Y2115376D01*
G01X8583327Y2115376D01*
G01X8560286Y2146846D01*
G01X8665924Y2135366D01*
G01X8708774Y2232571D01*
G01X8751649Y2135366D01*
G01X8857263Y2146846D01*
G01X8794499Y2061121D01*
G01X8857263Y1975396D01*
G37*
G36*
G01X8728269Y3089701D02*
G01X8720529Y3089113D01*
G01X8712686Y3088914D01*
G01X8704843Y3089113D01*
G01X8697103Y3089701D01*
G01X8689475Y3090670D01*
G01X8681970Y3092010D01*
G01X8667364Y3095765D01*
G01X8653362Y3100890D01*
G01X8640040Y3107307D01*
G01X8627474Y3114940D01*
G01X8615742Y3123713D01*
G01X8604920Y3133548D01*
G01X8595084Y3144371D01*
G01X8586311Y3156103D01*
G01X8578678Y3168668D01*
G01X8572261Y3181990D01*
G01X8567137Y3195992D01*
G01X8563382Y3210598D01*
G01X8562042Y3218104D01*
G01X8561073Y3225731D01*
G01X8560484Y3233471D01*
G01X8560286Y3241314D01*
G01X8585686Y3241314D01*
G01X8586343Y3228348D01*
G01X8588271Y3215752D01*
G01X8591405Y3203590D01*
G01X8595682Y3191928D01*
G01X8601037Y3180828D01*
G01X8607405Y3170357D01*
G01X8614723Y3160577D01*
G01X8622925Y3151554D01*
G01X8631949Y3143351D01*
G01X8641728Y3136034D01*
G01X8652200Y3129665D01*
G01X8663299Y3124310D01*
G01X8674962Y3120034D01*
G01X8687123Y3116899D01*
G01X8687123Y3116899D01*
G01X8699719Y3114971D01*
G01X8712686Y3114314D01*
G01X8725652Y3114971D01*
G01X8738249Y3116899D01*
G01X8750410Y3120034D01*
G01X8762073Y3124310D01*
G01X8773172Y3129665D01*
G01X8783643Y3136034D01*
G01X8793423Y3143351D01*
G01X8802446Y3151554D01*
G01X8810649Y3160577D01*
G01X8817967Y3170357D01*
G01X8824335Y3180828D01*
G01X8829690Y3191928D01*
G01X8833967Y3203590D01*
G01X8837101Y3215752D01*
G01X8839029Y3228348D01*
G01X8839686Y3241314D01*
G01X8839029Y3254281D01*
G01X8837101Y3266877D01*
G01X8833967Y3279038D01*
G01X8829690Y3290701D01*
G01X8824335Y3301800D01*
G01X8817967Y3312272D01*
G01X8810649Y3322051D01*
G01X8802446Y3331075D01*
G01X8793423Y3339277D01*
G01X8783643Y3346595D01*
G01X8773172Y3352963D01*
G01X8762073Y3358318D01*
G01X8750410Y3362595D01*
G01X8738249Y3365729D01*
G01X8725652Y3367657D01*
G01X8712686Y3368314D01*
G01X8699719Y3367657D01*
G01X8687123Y3365729D01*
G01X8674962Y3362595D01*
G01X8663299Y3358318D01*
G01X8652200Y3352963D01*
G01X8641728Y3346595D01*
G01X8631949Y3339277D01*
G01X8622925Y3331075D01*
G01X8614723Y3322051D01*
G01X8607405Y3312272D01*
G01X8601037Y3301800D01*
G01X8595682Y3290701D01*
G01X8591405Y3279038D01*
G01X8588271Y3266877D01*
G01X8586343Y3254281D01*
G01X8585686Y3241314D01*
G01X8560286Y3241314D01*
G01X8560484Y3249157D01*
G01X8561073Y3256898D01*
G01X8562042Y3264525D01*
G01X8563382Y3272030D01*
G01X8567137Y3286636D01*
G01X8572261Y3300638D01*
G01X8578678Y3313960D01*
G01X8586311Y3326526D01*
G01X8595084Y3338258D01*
G01X8604920Y3349080D01*
G01X8615742Y3358916D01*
G01X8627474Y3367689D01*
G01X8640040Y3375322D01*
G01X8653362Y3381739D01*
G01X8667364Y3386863D01*
G01X8681970Y3390618D01*
G01X8689475Y3391958D01*
G01X8697103Y3392928D01*
G01X8704843Y3393516D01*
G01X8712686Y3393714D01*
G01X8720529Y3393516D01*
G01X8728269Y3392928D01*
G01X8735897Y3391958D01*
G01X8743402Y3390618D01*
G01X8758008Y3386863D01*
G01X8772010Y3381739D01*
G01X8785332Y3375322D01*
G01X8797897Y3367689D01*
G01X8809629Y3358916D01*
G01X8820452Y3349080D01*
G01X8830288Y3338258D01*
G01X8839060Y3326526D01*
G01X8846693Y3313960D01*
G01X8853111Y3300638D01*
G01X8858235Y3286636D01*
G01X8861990Y3272030D01*
G01X8863330Y3264525D01*
G01X8864299Y3256898D01*
G01X8864888Y3249157D01*
G01X8865086Y3241314D01*
G01X8864888Y3233471D01*
G01X8864299Y3225731D01*
G01X8863330Y3218104D01*
G01X8861990Y3210598D01*
G01X8858235Y3195992D01*
G01X8853111Y3181990D01*
G01X8846693Y3168668D01*
G01X8839060Y3156103D01*
G01X8830288Y3144371D01*
G01X8820452Y3133548D01*
G01X8809629Y3123713D01*
G01X8797897Y3114940D01*
G01X8785332Y3107307D01*
G01X8772010Y3100890D01*
G01X8758008Y3095765D01*
G01X8743402Y3092010D01*
G01X8735897Y3090670D01*
G01X8728269Y3089701D01*
G37*
G36*
G01X8865086Y849763D02*
G01X8781977Y849763D01*
G01X8781977Y766629D01*
G01X8643420Y766629D01*
G01X8643420Y849737D01*
G01X8560286Y849737D01*
G01X8560286Y962894D01*
G01X8585686Y962894D01*
G01X8585686Y875163D01*
G01X8668820Y875163D01*
G01X8668820Y792029D01*
G01X8668820Y792029D01*
G01X8756552Y792029D01*
G01X8756552Y875137D01*
G01X8839686Y875137D01*
G01X8839686Y962894D01*
G01X8756552Y962894D01*
G01X8756552Y1046029D01*
G01X8668820Y1046029D01*
G01X8668820Y962894D01*
G01X8585686Y962894D01*
G01X8560286Y962894D01*
G01X8560286Y988294D01*
G01X8643420Y988294D01*
G01X8643420Y1071429D01*
G01X8781952Y1071429D01*
G01X8781952Y988294D01*
G01X8865086Y988294D01*
G01X8865086Y849763D01*
G37*
G36*
G01X8865086Y1652000D02*
G01X8795058Y1499600D01*
G01X8865086Y1347200D01*
G01X8712686Y1417228D01*
G01X8560286Y1347200D01*
G01X8584049Y1398914D01*
G01X8612000Y1398914D01*
G01X8702069Y1440316D01*
G01X8712686Y1445193D01*
G01X8723303Y1440316D01*
G01X8813371Y1398914D01*
G01X8771969Y1488983D01*
G01X8767093Y1499600D01*
G01X8771969Y1510217D01*
G01X8813371Y1600286D01*
G01X8723303Y1558884D01*
G01X8712686Y1554007D01*
G01X8702069Y1558884D01*
G01X8612000Y1600286D01*
G01X8653402Y1510217D01*
G01X8658279Y1499600D01*
G01X8658279Y1499600D01*
G01X8653402Y1488983D01*
G01X8612000Y1398914D01*
G01X8584049Y1398914D01*
G01X8630314Y1499600D01*
G01X8560286Y1652000D01*
G01X8712686Y1581972D01*
G01X8865086Y1652000D01*
G37*
G36*
G01X8560286Y2813143D02*
G01X8865086Y2813143D01*
G01X8712686Y2549186D01*
G01X8574951Y2787743D01*
G01X8604279Y2787743D01*
G01X8712686Y2599986D01*
G01X8821093Y2787743D01*
G01X8821093Y2787743D01*
G01X8604279Y2787743D01*
G01X8574951Y2787743D01*
G01X8560286Y2813143D01*
G37*
G36*
G01X8560286Y3974286D02*
G01X8839686Y3974286D01*
G01X8839686Y3694886D01*
G01X8560286Y3694886D01*
G01X8560286Y3948886D01*
G01X8585686Y3948886D01*
G01X8585686Y3720286D01*
G01X8814286Y3720286D01*
G01X8814286Y3948886D01*
G01X8814286Y3948886D01*
G01X8585686Y3948886D01*
G01X8560286Y3948886D01*
G01X8560286Y3974286D01*
G37*

G04 PolygonModel Start*
G54D17*
G01X8270000Y636000D02*
G01X24988353Y636000D01*
G01X8270000Y1216571D02*
G01X24988353Y1216571D01*
G01X8270000Y1797143D02*
G01X24988353Y1797143D01*
G01X8270000Y2377714D02*
G01X24988353Y2377714D01*
G01X8270000Y2958286D02*
G01X24988353Y2958286D01*
G01X8270000Y3538857D02*
G01X24988353Y3538857D01*
G01X8270000Y4119429D02*
G01X24988353Y4119429D01*
G01X8270000Y4700000D02*
G01X24988353Y4700000D01*
G01X8270000Y4700000D02*
G01X8270000Y661400D01*
G01X9721429Y4700000D02*
G01X9721429Y661400D01*
G01X11135592Y4700000D02*
G01X11135592Y661400D01*
G01X15029049Y4700000D02*
G01X15029049Y661400D01*
G01X16490456Y4700000D02*
G01X16490456Y661400D01*
G01X17921637Y4700000D02*
G01X17921637Y661400D01*
G01X19590816Y4700000D02*
G01X19590816Y661400D01*
G01X21510186Y4700000D02*
G01X21510186Y661400D01*
G01X24988353Y4700000D02*
G01X24988353Y661400D01*

M02*

