G04 Layer: TopPasteMaskLayer*
G04 EasyEDA Pro v3.2.149.88089769, 2026-06-30 20:12:10*
G04 Gerber Generator version 0.3*
G04 Scale: 100 percent, Rotated: No, Reflected: No*
G04 Dimensions in millimeters*
G04 Leading zeros omitted, absolute positions, 4 integers and 5 decimals*
G04 Generated by one-click*
G04 Object Configs: Pad,Via,Track,Text,Image,Dimension,BoardOutline,BoardCutout,CopperFilled,SolidRegion,FPCStiffener,Line,PlaneZone,ComponentProperty,ComponentSilkscreen,TearDrop*
G04 Layer Configs: 1,2,3,4,5,6,7,8,9,10,11,13,14,56*
G04 Copper Areas: 0*
%FSLAX45Y45*%
%MOMM*%
%ADD10R,1.30048X1.39954*%
%ADD11C,0.0745*%
G75*


G04 PolygonModel Start*
G36*
G01X4630103Y2806200D02*
G01X4630103Y2934198D01*
G01X4635104Y2939199D01*
G01X4750105Y2939199D01*
G01X4755104Y2934198D01*
G01X4755606Y2893195D01*
G01X4710605Y2893195D01*
G01X4710605Y2848196D01*
G01X4754606Y2848196D01*
G01X4755104Y2806200D01*
G01X4750105Y2801198D01*
G01X4635104Y2801198D01*
G01X4630103Y2806200D01*
G37*
G36*
G01X4971098Y2934200D02*
G01X4971098Y2806202D01*
G01X4966096Y2801201D01*
G01X4851095Y2801201D01*
G01X4846096Y2806202D01*
G01X4845594Y2847205D01*
G01X4890595Y2847205D01*
G01X4890595Y2892204D01*
G01X4846594Y2892204D01*
G01X4846096Y2934200D01*
G01X4851095Y2939202D01*
G01X4966096Y2939202D01*
G01X4971098Y2934200D01*
G37*
G36*
G01X-3205797Y-3531100D02*
G01X-3205797Y-3403102D01*
G01X-3200796Y-3398101D01*
G01X-3085795Y-3398101D01*
G01X-3080796Y-3403102D01*
G01X-3080294Y-3444105D01*
G01X-3125295Y-3444105D01*
G01X-3125295Y-3489104D01*
G01X-3081294Y-3489104D01*
G01X-3080796Y-3531100D01*
G01X-3085795Y-3536102D01*
G01X-3200796Y-3536102D01*
G01X-3205797Y-3531100D01*
G37*
G36*
G01X-2864802Y-3403100D02*
G01X-2864802Y-3531098D01*
G01X-2869804Y-3536099D01*
G01X-2984805Y-3536099D01*
G01X-2989804Y-3531098D01*
G01X-2990306Y-3490095D01*
G01X-2945305Y-3490095D01*
G01X-2945305Y-3445096D01*
G01X-2989306Y-3445096D01*
G01X-2989804Y-3403100D01*
G01X-2984805Y-3398098D01*
G01X-2869804Y-3398098D01*
G01X-2864802Y-3403100D01*
G37*
G36*
G01X4503103Y-3581900D02*
G01X4503103Y-3453902D01*
G01X4508104Y-3448901D01*
G01X4623105Y-3448901D01*
G01X4628104Y-3453902D01*
G01X4628606Y-3494905D01*
G01X4583605Y-3494905D01*
G01X4583605Y-3539904D01*
G01X4627606Y-3539904D01*
G01X4628104Y-3581900D01*
G01X4623105Y-3586902D01*
G01X4508104Y-3586902D01*
G01X4503103Y-3581900D01*
G37*
G36*
G01X4844098Y-3453900D02*
G01X4844098Y-3581898D01*
G01X4839096Y-3586899D01*
G01X4724095Y-3586899D01*
G01X4719096Y-3581898D01*
G01X4718594Y-3540895D01*
G01X4763595Y-3540895D01*
G01X4763595Y-3495896D01*
G01X4719594Y-3495896D01*
G01X4719096Y-3453900D01*
G01X4724095Y-3448898D01*
G01X4839096Y-3448898D01*
G01X4844098Y-3453900D01*
G37*
G36*
G01X-3193097Y-89400D02*
G01X-3193097Y38598D01*
G01X-3188096Y43599D01*
G01X-3073095Y43599D01*
G01X-3068096Y38598D01*
G01X-3067594Y-2405D01*
G01X-3112595Y-2405D01*
G01X-3112595Y-47404D01*
G01X-3068594Y-47404D01*
G01X-3068096Y-89400D01*
G01X-3073095Y-94402D01*
G01X-3188096Y-94402D01*
G01X-3193097Y-89400D01*
G37*
G36*
G01X-2852102Y38600D02*
G01X-2852102Y-89398D01*
G01X-2857104Y-94399D01*
G01X-2972105Y-94399D01*
G01X-2977104Y-89398D01*
G01X-2977606Y-48395D01*
G01X-2932605Y-48395D01*
G01X-2932605Y-3396D01*
G01X-2976606Y-3396D01*
G01X-2977104Y38600D01*
G01X-2972105Y43602D01*
G01X-2857104Y43602D01*
G01X-2852102Y38600D01*
G37*
G36*
G01X436000Y3970002D02*
G01X563998Y3970002D01*
G01X568999Y3965001D01*
G01X568999Y3850000D01*
G01X563998Y3845001D01*
G01X522995Y3844498D01*
G01X522995Y3889499D01*
G01X477996Y3889499D01*
G01X477996Y3845499D01*
G01X436000Y3845001D01*
G01X430998Y3850000D01*
G01X430998Y3965001D01*
G01X436000Y3970002D01*
G37*
G36*
G01X436000Y3755001D02*
G01X477996Y3754999D01*
G01X477996Y3710501D01*
G01X522995Y3710501D01*
G01X522995Y3754498D01*
G01X563998Y3755001D01*
G01X568999Y3750000D01*
G01X568999Y3635002D01*
G01X563998Y3630000D01*
G01X436000Y3630000D01*
G01X430998Y3635002D01*
G01X430998Y3750000D01*
G01X436000Y3755001D01*
G37*
G36*
G01X1435980Y3970007D02*
G01X1563979Y3970007D01*
G01X1568980Y3965006D01*
G01X1568980Y3850005D01*
G01X1563979Y3845006D01*
G01X1522975Y3844503D01*
G01X1522975Y3889504D01*
G01X1477977Y3889504D01*
G01X1477977Y3845504D01*
G01X1435980Y3845006D01*
G01X1430979Y3850005D01*
G01X1430979Y3965006D01*
G01X1435980Y3970007D01*
G37*
G36*
G01X1435980Y3755006D02*
G01X1477977Y3755004D01*
G01X1477977Y3710505D01*
G01X1522975Y3710505D01*
G01X1522975Y3754503D01*
G01X1563979Y3755006D01*
G01X1568980Y3750005D01*
G01X1568980Y3635006D01*
G01X1563979Y3630005D01*
G01X1435980Y3630005D01*
G01X1430979Y3635006D01*
G01X1430979Y3750005D01*
G01X1435980Y3755006D01*
G37*
G36*
G01X2435990Y3970009D02*
G01X2563989Y3970009D01*
G01X2568990Y3965008D01*
G01X2568990Y3850007D01*
G01X2563989Y3845008D01*
G01X2522985Y3844505D01*
G01X2522985Y3889506D01*
G01X2477987Y3889506D01*
G01X2477987Y3845506D01*
G01X2435990Y3845008D01*
G01X2430989Y3850007D01*
G01X2430989Y3965008D01*
G01X2435990Y3970009D01*
G37*
G36*
G01X2435990Y3755008D02*
G01X2477987Y3755006D01*
G01X2477987Y3710507D01*
G01X2522985Y3710507D01*
G01X2522985Y3754505D01*
G01X2563989Y3755008D01*
G01X2568990Y3750007D01*
G01X2568990Y3635008D01*
G01X2563989Y3630007D01*
G01X2435990Y3630007D01*
G01X2430989Y3635008D01*
G01X2430989Y3750007D01*
G01X2435990Y3755008D01*
G37*
G36*
G01X-2812097Y2958600D02*
G01X-2812097Y3086598D01*
G01X-2807096Y3091599D01*
G01X-2692095Y3091599D01*
G01X-2687096Y3086598D01*
G01X-2686594Y3045595D01*
G01X-2731595Y3045595D01*
G01X-2731595Y3000596D01*
G01X-2687594Y3000596D01*
G01X-2687096Y2958600D01*
G01X-2692095Y2953598D01*
G01X-2807096Y2953598D01*
G01X-2812097Y2958600D01*
G37*
G36*
G01X-2471102Y3086600D02*
G01X-2471102Y2958602D01*
G01X-2476104Y2953601D01*
G01X-2591105Y2953601D01*
G01X-2596104Y2958602D01*
G01X-2596606Y2999605D01*
G01X-2551605Y2999605D01*
G01X-2551605Y3044604D01*
G01X-2595606Y3044604D01*
G01X-2596104Y3086600D01*
G01X-2591105Y3091602D01*
G01X-2476104Y3091602D01*
G01X-2471102Y3086600D01*
G37*
G36*
G01X-2253297Y2958600D02*
G01X-2253297Y3086598D01*
G01X-2248296Y3091599D01*
G01X-2133295Y3091599D01*
G01X-2128296Y3086598D01*
G01X-2127794Y3045595D01*
G01X-2172795Y3045595D01*
G01X-2172795Y3000596D01*
G01X-2128794Y3000596D01*
G01X-2128296Y2958600D01*
G01X-2133295Y2953598D01*
G01X-2248296Y2953598D01*
G01X-2253297Y2958600D01*
G37*
G36*
G01X-1912302Y3086600D02*
G01X-1912302Y2958602D01*
G01X-1917304Y2953601D01*
G01X-2032305Y2953601D01*
G01X-2037304Y2958602D01*
G01X-2037806Y2999605D01*
G01X-1992805Y2999605D01*
G01X-1992805Y3044604D01*
G01X-2036806Y3044604D01*
G01X-2037304Y3086600D01*
G01X-2032305Y3091602D01*
G01X-1917304Y3091602D01*
G01X-1912302Y3086600D01*
G37*
G36*
G01X-1567002Y2958600D02*
G01X-1567002Y3086598D01*
G01X-1562001Y3091599D01*
G01X-1447000Y3091599D01*
G01X-1442001Y3086598D01*
G01X-1441498Y3045595D01*
G01X-1486499Y3045595D01*
G01X-1486499Y3000596D01*
G01X-1442499Y3000596D01*
G01X-1442001Y2958600D01*
G01X-1447000Y2953598D01*
G01X-1562001Y2953598D01*
G01X-1567002Y2958600D01*
G37*
G36*
G01X-1352001Y2958600D02*
G01X-1351999Y3000596D01*
G01X-1307501Y3000596D01*
G01X-1307501Y3045595D01*
G01X-1351498Y3045595D01*
G01X-1352001Y3086598D01*
G01X-1347000Y3091599D01*
G01X-1232002Y3091599D01*
G01X-1227000Y3086598D01*
G01X-1227000Y2958600D01*
G01X-1232002Y2953598D01*
G01X-1347000Y2953598D01*
G01X-1352001Y2958600D01*
G37*
G36*
G01X-1033602Y2945900D02*
G01X-1033602Y3073898D01*
G01X-1028601Y3078899D01*
G01X-913600Y3078899D01*
G01X-908601Y3073898D01*
G01X-908098Y3032895D01*
G01X-953099Y3032895D01*
G01X-953099Y2987896D01*
G01X-909099Y2987896D01*
G01X-908601Y2945900D01*
G01X-913600Y2940898D01*
G01X-1028601Y2940898D01*
G01X-1033602Y2945900D01*
G37*
G36*
G01X-818601Y2945900D02*
G01X-818599Y2987896D01*
G01X-774101Y2987896D01*
G01X-774101Y3032895D01*
G01X-818098Y3032895D01*
G01X-818601Y3073898D01*
G01X-813600Y3078899D01*
G01X-698602Y3078899D01*
G01X-693600Y3073898D01*
G01X-693600Y2945900D01*
G01X-698602Y2940898D01*
G01X-813600Y2940898D01*
G01X-818601Y2945900D01*
G37*

G04 Pad Start*
G54D10*
G01X3171571Y3695700D03*
G01X3381629Y3695700D03*
G04 Pad End*

M02*

