G04 Layer: TopSilkscreenLayer*
G04 EasyEDA Pro v3.2.149.88089769, 2026-06-30 20:12:10*
G04 Gerber Generator version 0.3*
G04 Scale: 100 percent, Rotated: No, Reflected: No*
G04 Dimensions in millimeters*
G04 Leading zeros omitted, absolute positions, 4 integers and 5 decimals*
G04 Generated by one-click*
G04 Object Configs: Pad,Via,Track,Text,Image,Dimension,BoardOutline,BoardCutout,CopperFilled,SolidRegion,FPCStiffener,Line,PlaneZone,ComponentProperty,ComponentSilkscreen,TearDrop*
G04 Layer Configs: 1,2,3,4,5,6,7,8,9,10,11,13,14,56*
G04 Copper Areas: 0*
%FSLAX45Y45*%
%MOMM*%
%ADD10C,0.1524*%
%ADD11C,0.2*%
%ADD12C,0.203*%
%ADD13C,0.254*%
%ADD14C,0.4153*%
G75*


G04 Text Start*
G54D10*
G01X244630Y2811079D02*
G01X179606Y2811079D01*
G01X244630Y2767645D02*
G01X179606Y2767645D01*
G01X213642Y2811079D02*
G01X213642Y2767645D01*
G01X232184Y2737419D02*
G01X235486Y2731323D01*
G01X244630Y2722179D01*
G01X179606Y2722179D01*
G01X2784630Y2811079D02*
G01X2719606Y2811079D01*
G01X2784630Y2767645D02*
G01X2719606Y2767645D01*
G01X2753642Y2811079D02*
G01X2753642Y2767645D01*
G01X2769136Y2734371D02*
G01X2772184Y2734371D01*
G01X2778534Y2731323D01*
G01X2781582Y2728275D01*
G01X2784630Y2722179D01*
G01X2784630Y2709733D01*
G01X2781582Y2703383D01*
G01X2778534Y2700335D01*
G01X2772184Y2697287D01*
G01X2766088Y2697287D01*
G01X2759992Y2700335D01*
G01X2750594Y2706685D01*
G01X2719606Y2737419D01*
G01X2719606Y2694239D01*
G01X4033520Y3751834D02*
G01X4033520Y3705352D01*
G01X4036568Y3696208D01*
G01X4042918Y3689858D01*
G01X4052062Y3686810D01*
G01X4058412Y3686810D01*
G01X4067556Y3689858D01*
G01X4073652Y3696208D01*
G01X4076954Y3705352D01*
G01X4076954Y3751834D01*
G01X4110228Y3736340D02*
G01X4110228Y3739388D01*
G01X4113276Y3745738D01*
G01X4116324Y3748786D01*
G01X4122420Y3751834D01*
G01X4134866Y3751834D01*
G01X4141216Y3748786D01*
G01X4144264Y3745738D01*
G01X4147312Y3739388D01*
G01X4147312Y3733292D01*
G01X4144264Y3727196D01*
G01X4137914Y3717798D01*
G01X4107180Y3686810D01*
G01X4150360Y3686810D01*
G01X-3288081Y-3753366D02*
G01X-3288081Y-3799848D01*
G01X-3285033Y-3808992D01*
G01X-3278683Y-3815342D01*
G01X-3269539Y-3818390D01*
G01X-3263189Y-3818390D01*
G01X-3254045Y-3815342D01*
G01X-3247949Y-3808992D01*
G01X-3244647Y-3799848D01*
G01X-3244647Y-3753366D01*
G01X-3208325Y-3753366D02*
G01X-3174289Y-3753366D01*
G01X-3192831Y-3778004D01*
G01X-3183687Y-3778004D01*
G01X-3177337Y-3781052D01*
G01X-3174289Y-3784354D01*
G01X-3171241Y-3793498D01*
G01X-3171241Y-3799848D01*
G01X-3174289Y-3808992D01*
G01X-3180385Y-3815342D01*
G01X-3189783Y-3818390D01*
G01X-3199181Y-3818390D01*
G01X-3208325Y-3815342D01*
G01X-3211373Y-3812040D01*
G01X-3214421Y-3805944D01*
G01X3601723Y-3753866D02*
G01X3601723Y-3800348D01*
G01X3604771Y-3809492D01*
G01X3611121Y-3815842D01*
G01X3620265Y-3818890D01*
G01X3626615Y-3818890D01*
G01X3635759Y-3815842D01*
G01X3641855Y-3809492D01*
G01X3645157Y-3800348D01*
G01X3645157Y-3753866D01*
G01X3706117Y-3753866D02*
G01X3675383Y-3797046D01*
G01X3721611Y-3797046D01*
G01X3706117Y-3753866D02*
G01X3706117Y-3818890D01*
G01X-2143502Y-4520369D02*
G01X-2143502Y-4585393D01*
G01X-2165092Y-4520369D02*
G01X-2121658Y-4520369D01*
G01X-2091432Y-4520369D02*
G01X-2091432Y-4585393D01*
G01X-2091432Y-4520369D02*
G01X-2063746Y-4520369D01*
G01X-2054348Y-4523417D01*
G01X-2051300Y-4526465D01*
G01X-2048252Y-4532815D01*
G01X-2048252Y-4541959D01*
G01X-2051300Y-4548055D01*
G01X-2054348Y-4551357D01*
G01X-2063746Y-4554405D01*
G01X-2091432Y-4554405D01*
G01X-2018026Y-4532815D02*
G01X-2011930Y-4529513D01*
G01X-2002786Y-4520369D01*
G01X-2002786Y-4585393D01*
G01X-1143514Y-4520369D02*
G01X-1143514Y-4585393D01*
G01X-1165104Y-4520369D02*
G01X-1121670Y-4520369D01*
G01X-1091444Y-4520369D02*
G01X-1091444Y-4585393D01*
G01X-1091444Y-4520369D02*
G01X-1063758Y-4520369D01*
G01X-1054360Y-4523417D01*
G01X-1051312Y-4526465D01*
G01X-1048264Y-4532815D01*
G01X-1048264Y-4541959D01*
G01X-1051312Y-4548055D01*
G01X-1054360Y-4551357D01*
G01X-1063758Y-4554405D01*
G01X-1091444Y-4554405D01*
G01X-1014990Y-4535863D02*
G01X-1014990Y-4532815D01*
G01X-1011942Y-4526465D01*
G01X-1008894Y-4523417D01*
G01X-1002798Y-4520369D01*
G01X-990352Y-4520369D01*
G01X-984002Y-4523417D01*
G01X-980954Y-4526465D01*
G01X-977906Y-4532815D01*
G01X-977906Y-4538911D01*
G01X-980954Y-4545007D01*
G01X-987304Y-4554405D01*
G01X-1018038Y-4585393D01*
G01X-974858Y-4585393D01*
G01X-143436Y-4520369D02*
G01X-143436Y-4585393D01*
G01X-165026Y-4520369D02*
G01X-121592Y-4520369D01*
G01X-91366Y-4520369D02*
G01X-91366Y-4585393D01*
G01X-91366Y-4520369D02*
G01X-63680Y-4520369D01*
G01X-54282Y-4523417D01*
G01X-51234Y-4526465D01*
G01X-48186Y-4532815D01*
G01X-48186Y-4541959D01*
G01X-51234Y-4548055D01*
G01X-54282Y-4551357D01*
G01X-63680Y-4554405D01*
G01X-91366Y-4554405D01*
G01X-11864Y-4520369D02*
G01X22172Y-4520369D01*
G01X3630Y-4545007D01*
G01X12774Y-4545007D01*
G01X19124Y-4548055D01*
G01X22172Y-4551357D01*
G01X25220Y-4560501D01*
G01X25220Y-4566851D01*
G01X22172Y-4575995D01*
G01X16076Y-4582345D01*
G01X6678Y-4585393D01*
G01X-2720Y-4585393D01*
G01X-11864Y-4582345D01*
G01X-14912Y-4579043D01*
G01X-17960Y-4572947D01*
G01X856509Y-4520358D02*
G01X856509Y-4585382D01*
G01X834919Y-4520358D02*
G01X878353Y-4520358D01*
G01X908579Y-4520358D02*
G01X908579Y-4585382D01*
G01X908579Y-4520358D02*
G01X936265Y-4520358D01*
G01X945663Y-4523406D01*
G01X948711Y-4526454D01*
G01X951759Y-4532804D01*
G01X951759Y-4541948D01*
G01X948711Y-4548044D01*
G01X945663Y-4551346D01*
G01X936265Y-4554394D01*
G01X908579Y-4554394D01*
G01X1012719Y-4520358D02*
G01X981985Y-4563538D01*
G01X1028213Y-4563538D01*
G01X1012719Y-4520358D02*
G01X1012719Y-4585382D01*
G01X1856475Y-4520358D02*
G01X1856475Y-4585382D01*
G01X1834885Y-4520358D02*
G01X1878319Y-4520358D01*
G01X1908545Y-4520358D02*
G01X1908545Y-4585382D01*
G01X1908545Y-4520358D02*
G01X1936231Y-4520358D01*
G01X1945629Y-4523406D01*
G01X1948677Y-4526454D01*
G01X1951725Y-4532804D01*
G01X1951725Y-4541948D01*
G01X1948677Y-4548044D01*
G01X1945629Y-4551346D01*
G01X1936231Y-4554394D01*
G01X1908545Y-4554394D01*
G01X2019035Y-4520358D02*
G01X1988047Y-4520358D01*
G01X1984999Y-4548044D01*
G01X1988047Y-4544996D01*
G01X1997191Y-4541948D01*
G01X2006589Y-4541948D01*
G01X2015987Y-4544996D01*
G01X2022083Y-4551346D01*
G01X2025131Y-4560490D01*
G01X2025131Y-4566840D01*
G01X2022083Y-4575984D01*
G01X2015987Y-4582334D01*
G01X2006589Y-4585382D01*
G01X1997191Y-4585382D01*
G01X1988047Y-4582334D01*
G01X1984999Y-4579032D01*
G01X1981951Y-4572936D01*
G01X4524703Y3099344D02*
G01X4521655Y3105694D01*
G01X4515305Y3111790D01*
G01X4509209Y3114838D01*
G01X4496763Y3114838D01*
G01X4490667Y3111790D01*
G01X4484317Y3105694D01*
G01X4481269Y3099344D01*
G01X4478221Y3090200D01*
G01X4478221Y3074706D01*
G01X4481269Y3065308D01*
G01X4484317Y3059212D01*
G01X4490667Y3052862D01*
G01X4496763Y3049814D01*
G01X4509209Y3049814D01*
G01X4515305Y3052862D01*
G01X4521655Y3059212D01*
G01X4524703Y3065308D01*
G01X4554929Y3102392D02*
G01X4561025Y3105694D01*
G01X4570169Y3114838D01*
G01X4570169Y3049814D01*
G01X-3311197Y-3237956D02*
G01X-3314245Y-3231606D01*
G01X-3320595Y-3225510D01*
G01X-3326691Y-3222462D01*
G01X-3339137Y-3222462D01*
G01X-3345233Y-3225510D01*
G01X-3351583Y-3231606D01*
G01X-3354631Y-3237956D01*
G01X-3357679Y-3247100D01*
G01X-3357679Y-3262594D01*
G01X-3354631Y-3271992D01*
G01X-3351583Y-3278088D01*
G01X-3345233Y-3284438D01*
G01X-3339137Y-3287486D01*
G01X-3326691Y-3287486D01*
G01X-3320595Y-3284438D01*
G01X-3314245Y-3278088D01*
G01X-3311197Y-3271992D01*
G01X-3277923Y-3237956D02*
G01X-3277923Y-3234908D01*
G01X-3274875Y-3228558D01*
G01X-3271827Y-3225510D01*
G01X-3265731Y-3222462D01*
G01X-3253285Y-3222462D01*
G01X-3246935Y-3225510D01*
G01X-3243887Y-3228558D01*
G01X-3240839Y-3234908D01*
G01X-3240839Y-3241004D01*
G01X-3243887Y-3247100D01*
G01X-3250237Y-3256498D01*
G01X-3280971Y-3287486D01*
G01X-3237791Y-3287486D01*
G01X4397703Y-3288756D02*
G01X4394655Y-3282406D01*
G01X4388305Y-3276310D01*
G01X4382209Y-3273262D01*
G01X4369763Y-3273262D01*
G01X4363667Y-3276310D01*
G01X4357317Y-3282406D01*
G01X4354269Y-3288756D01*
G01X4351221Y-3297900D01*
G01X4351221Y-3313394D01*
G01X4354269Y-3322792D01*
G01X4357317Y-3328888D01*
G01X4363667Y-3335238D01*
G01X4369763Y-3338286D01*
G01X4382209Y-3338286D01*
G01X4388305Y-3335238D01*
G01X4394655Y-3328888D01*
G01X4397703Y-3322792D01*
G01X4434025Y-3273262D02*
G01X4468061Y-3273262D01*
G01X4449519Y-3297900D01*
G01X4458663Y-3297900D01*
G01X4465013Y-3300948D01*
G01X4468061Y-3304250D01*
G01X4471109Y-3313394D01*
G01X4471109Y-3319744D01*
G01X4468061Y-3328888D01*
G01X4461965Y-3335238D01*
G01X4452567Y-3338286D01*
G01X4443169Y-3338286D01*
G01X4434025Y-3335238D01*
G01X4430977Y-3331936D01*
G01X4427929Y-3325840D01*
G01X-3172478Y164021D02*
G01X-3175526Y170371D01*
G01X-3181876Y176467D01*
G01X-3187972Y179515D01*
G01X-3200418Y179515D01*
G01X-3206514Y176467D01*
G01X-3212864Y170371D01*
G01X-3215912Y164021D01*
G01X-3218960Y154877D01*
G01X-3218960Y139383D01*
G01X-3215912Y129985D01*
G01X-3212864Y123889D01*
G01X-3206514Y117539D01*
G01X-3200418Y114491D01*
G01X-3187972Y114491D01*
G01X-3181876Y117539D01*
G01X-3175526Y123889D01*
G01X-3172478Y129985D01*
G01X-3111518Y179515D02*
G01X-3142252Y136335D01*
G01X-3096024Y136335D01*
G01X-3111518Y179515D02*
G01X-3111518Y114491D01*
G01X589534Y4500880D02*
G01X524510Y4500880D01*
G01X589534Y4500880D02*
G01X589534Y4472940D01*
G01X586486Y4463796D01*
G01X583438Y4460748D01*
G01X577088Y4457446D01*
G01X570992Y4457446D01*
G01X564896Y4460748D01*
G01X561848Y4463796D01*
G01X558546Y4472940D01*
G01X558546Y4500880D01*
G01X558546Y4479290D02*
G01X524510Y4457446D01*
G01X577088Y4427220D02*
G01X580390Y4421124D01*
G01X589534Y4411980D01*
G01X524510Y4411980D01*
G01X1415034Y4500880D02*
G01X1350010Y4500880D01*
G01X1415034Y4500880D02*
G01X1415034Y4472940D01*
G01X1411986Y4463796D01*
G01X1408938Y4460748D01*
G01X1402588Y4457446D01*
G01X1396492Y4457446D01*
G01X1390396Y4460748D01*
G01X1387348Y4463796D01*
G01X1384046Y4472940D01*
G01X1384046Y4500880D01*
G01X1384046Y4479290D02*
G01X1350010Y4457446D01*
G01X1399540Y4424172D02*
G01X1402588Y4424172D01*
G01X1408938Y4421124D01*
G01X1411986Y4418076D01*
G01X1415034Y4411980D01*
G01X1415034Y4399534D01*
G01X1411986Y4393184D01*
G01X1408938Y4390136D01*
G01X1402588Y4387088D01*
G01X1396492Y4387088D01*
G01X1390396Y4390136D01*
G01X1380998Y4396486D01*
G01X1350010Y4427220D01*
G01X1350010Y4384040D01*
G01X2469134Y4513580D02*
G01X2404110Y4513580D01*
G01X2469134Y4513580D02*
G01X2469134Y4485640D01*
G01X2466086Y4476496D01*
G01X2463038Y4473448D01*
G01X2456688Y4470146D01*
G01X2450592Y4470146D01*
G01X2444496Y4473448D01*
G01X2441448Y4476496D01*
G01X2438146Y4485640D01*
G01X2438146Y4513580D01*
G01X2438146Y4491990D02*
G01X2404110Y4470146D01*
G01X2469134Y4433824D02*
G01X2469134Y4399788D01*
G01X2444496Y4418330D01*
G01X2444496Y4409186D01*
G01X2441448Y4402836D01*
G01X2438146Y4399788D01*
G01X2429002Y4396740D01*
G01X2422652Y4396740D01*
G01X2413508Y4399788D01*
G01X2407158Y4405884D01*
G01X2404110Y4415282D01*
G01X2404110Y4424680D01*
G01X2407158Y4433824D01*
G01X2410460Y4436872D01*
G01X2416556Y4439920D01*
G01X3051520Y3945334D02*
G01X3051520Y3880310D01*
G01X3051520Y3880310D02*
G01X3088604Y3880310D01*
G01X3118830Y3945334D02*
G01X3118830Y3880310D01*
G01X3118830Y3945334D02*
G01X3158962Y3945334D01*
G01X3118830Y3914346D02*
G01X3143468Y3914346D01*
G01X3118830Y3880310D02*
G01X3158962Y3880310D01*
G01X3189188Y3945334D02*
G01X3189188Y3880310D01*
G01X3189188Y3945334D02*
G01X3210778Y3945334D01*
G01X3219922Y3942286D01*
G01X3226272Y3936190D01*
G01X3229320Y3929840D01*
G01X3232368Y3920696D01*
G01X3232368Y3905202D01*
G01X3229320Y3895804D01*
G01X3226272Y3889708D01*
G01X3219922Y3883358D01*
G01X3210778Y3880310D01*
G01X3189188Y3880310D01*
G01X3262594Y3932888D02*
G01X3268690Y3936190D01*
G01X3277834Y3945334D01*
G01X3277834Y3880310D01*
G01X-2791478Y3212021D02*
G01X-2794526Y3218371D01*
G01X-2800876Y3224467D01*
G01X-2806972Y3227515D01*
G01X-2819418Y3227515D01*
G01X-2825514Y3224467D01*
G01X-2831864Y3218371D01*
G01X-2834912Y3212021D01*
G01X-2837960Y3202877D01*
G01X-2837960Y3187383D01*
G01X-2834912Y3177985D01*
G01X-2831864Y3171889D01*
G01X-2825514Y3165539D01*
G01X-2819418Y3162491D01*
G01X-2806972Y3162491D01*
G01X-2800876Y3165539D01*
G01X-2794526Y3171889D01*
G01X-2791478Y3177985D01*
G01X-2761252Y3140901D02*
G01X-2705626Y3140901D01*
G01X-2629172Y3212021D02*
G01X-2632220Y3218371D01*
G01X-2638316Y3224467D01*
G01X-2644666Y3227515D01*
G01X-2656858Y3227515D01*
G01X-2663208Y3224467D01*
G01X-2669304Y3218371D01*
G01X-2672352Y3212021D01*
G01X-2675400Y3202877D01*
G01X-2675400Y3187383D01*
G01X-2672352Y3177985D01*
G01X-2669304Y3171889D01*
G01X-2663208Y3165539D01*
G01X-2656858Y3162491D01*
G01X-2644666Y3162491D01*
G01X-2638316Y3165539D01*
G01X-2632220Y3171889D01*
G01X-2629172Y3177985D01*
G01X-2629172Y3187383D01*
G01X-2644666Y3187383D02*
G01X-2629172Y3187383D01*
G01X-2598946Y3227515D02*
G01X-2598946Y3162491D01*
G01X-2598946Y3227515D02*
G01X-2571260Y3227515D01*
G01X-2561862Y3224467D01*
G01X-2558814Y3221419D01*
G01X-2555766Y3215069D01*
G01X-2555766Y3205925D01*
G01X-2558814Y3199829D01*
G01X-2561862Y3196527D01*
G01X-2571260Y3193479D01*
G01X-2598946Y3193479D01*
G01X-2482360Y3218371D02*
G01X-2488456Y3224467D01*
G01X-2497854Y3227515D01*
G01X-2510300Y3227515D01*
G01X-2519444Y3224467D01*
G01X-2525540Y3218371D01*
G01X-2525540Y3212021D01*
G01X-2522492Y3205925D01*
G01X-2519444Y3202877D01*
G01X-2513348Y3199829D01*
G01X-2494806Y3193479D01*
G01X-2488456Y3190431D01*
G01X-2485408Y3187383D01*
G01X-2482360Y3181033D01*
G01X-2482360Y3171889D01*
G01X-2488456Y3165539D01*
G01X-2497854Y3162491D01*
G01X-2510300Y3162491D01*
G01X-2519444Y3165539D01*
G01X-2525540Y3171889D01*
G01X-2452134Y3215069D02*
G01X-2446038Y3218371D01*
G01X-2436894Y3227515D01*
G01X-2436894Y3162491D01*
G01X-2232678Y3212021D02*
G01X-2235726Y3218371D01*
G01X-2242076Y3224467D01*
G01X-2248172Y3227515D01*
G01X-2260618Y3227515D01*
G01X-2266714Y3224467D01*
G01X-2273064Y3218371D01*
G01X-2276112Y3212021D01*
G01X-2279160Y3202877D01*
G01X-2279160Y3187383D01*
G01X-2276112Y3177985D01*
G01X-2273064Y3171889D01*
G01X-2266714Y3165539D01*
G01X-2260618Y3162491D01*
G01X-2248172Y3162491D01*
G01X-2242076Y3165539D01*
G01X-2235726Y3171889D01*
G01X-2232678Y3177985D01*
G01X-2202452Y3140901D02*
G01X-2146826Y3140901D01*
G01X-2070372Y3212021D02*
G01X-2073420Y3218371D01*
G01X-2079516Y3224467D01*
G01X-2085866Y3227515D01*
G01X-2098058Y3227515D01*
G01X-2104408Y3224467D01*
G01X-2110504Y3218371D01*
G01X-2113552Y3212021D01*
G01X-2116600Y3202877D01*
G01X-2116600Y3187383D01*
G01X-2113552Y3177985D01*
G01X-2110504Y3171889D01*
G01X-2104408Y3165539D01*
G01X-2098058Y3162491D01*
G01X-2085866Y3162491D01*
G01X-2079516Y3165539D01*
G01X-2073420Y3171889D01*
G01X-2070372Y3177985D01*
G01X-2070372Y3187383D01*
G01X-2085866Y3187383D02*
G01X-2070372Y3187383D01*
G01X-2040146Y3227515D02*
G01X-2040146Y3162491D01*
G01X-2040146Y3227515D02*
G01X-2012460Y3227515D01*
G01X-2003062Y3224467D01*
G01X-2000014Y3221419D01*
G01X-1996966Y3215069D01*
G01X-1996966Y3205925D01*
G01X-2000014Y3199829D01*
G01X-2003062Y3196527D01*
G01X-2012460Y3193479D01*
G01X-2040146Y3193479D01*
G01X-1923560Y3218371D02*
G01X-1929656Y3224467D01*
G01X-1939054Y3227515D01*
G01X-1951500Y3227515D01*
G01X-1960644Y3224467D01*
G01X-1966740Y3218371D01*
G01X-1966740Y3212021D01*
G01X-1963692Y3205925D01*
G01X-1960644Y3202877D01*
G01X-1954548Y3199829D01*
G01X-1936006Y3193479D01*
G01X-1929656Y3190431D01*
G01X-1926608Y3187383D01*
G01X-1923560Y3181033D01*
G01X-1923560Y3171889D01*
G01X-1929656Y3165539D01*
G01X-1939054Y3162491D01*
G01X-1951500Y3162491D01*
G01X-1960644Y3165539D01*
G01X-1966740Y3171889D01*
G01X-1890286Y3212021D02*
G01X-1890286Y3215069D01*
G01X-1887238Y3221419D01*
G01X-1884190Y3224467D01*
G01X-1878094Y3227515D01*
G01X-1865648Y3227515D01*
G01X-1859298Y3224467D01*
G01X-1856250Y3221419D01*
G01X-1853202Y3215069D01*
G01X-1853202Y3208973D01*
G01X-1856250Y3202877D01*
G01X-1862600Y3193479D01*
G01X-1893334Y3162491D01*
G01X-1850154Y3162491D01*
G01X-1573113Y3228863D02*
G01X-1573113Y3163839D01*
G01X-1573113Y3228863D02*
G01X-1545173Y3228863D01*
G01X-1536029Y3225815D01*
G01X-1532981Y3222767D01*
G01X-1529679Y3216417D01*
G01X-1529679Y3210321D01*
G01X-1532981Y3204225D01*
G01X-1536029Y3201177D01*
G01X-1545173Y3197875D01*
G01X-1573113Y3197875D01*
G01X-1551523Y3197875D02*
G01X-1529679Y3163839D01*
G01X-1468719Y3228863D02*
G01X-1499453Y3185683D01*
G01X-1453225Y3185683D01*
G01X-1468719Y3228863D02*
G01X-1468719Y3163839D01*
G01X-1039713Y3216163D02*
G01X-1039713Y3151139D01*
G01X-1039713Y3216163D02*
G01X-1011773Y3216163D01*
G01X-1002629Y3213115D01*
G01X-999581Y3210067D01*
G01X-996279Y3203717D01*
G01X-996279Y3197621D01*
G01X-999581Y3191525D01*
G01X-1002629Y3188477D01*
G01X-1011773Y3185175D01*
G01X-1039713Y3185175D01*
G01X-1018123Y3185175D02*
G01X-996279Y3151139D01*
G01X-928969Y3216163D02*
G01X-959957Y3216163D01*
G01X-963005Y3188477D01*
G01X-959957Y3191525D01*
G01X-950813Y3194573D01*
G01X-941415Y3194573D01*
G01X-932017Y3191525D01*
G01X-925921Y3185175D01*
G01X-922873Y3176031D01*
G01X-922873Y3169681D01*
G01X-925921Y3160537D01*
G01X-932017Y3154187D01*
G01X-941415Y3151139D01*
G01X-950813Y3151139D01*
G01X-959957Y3154187D01*
G01X-963005Y3157489D01*
G01X-966053Y3163585D01*
G01X-761977Y4007476D02*
G01X-761977Y3942452D01*
G01X-783567Y4007476D02*
G01X-740133Y4007476D01*
G01X-709907Y4007476D02*
G01X-709907Y3942452D01*
G01X-709907Y4007476D02*
G01X-682221Y4007476D01*
G01X-672823Y4004428D01*
G01X-669775Y4001380D01*
G01X-666727Y3995030D01*
G01X-666727Y3985886D01*
G01X-669775Y3979790D01*
G01X-672823Y3976488D01*
G01X-682221Y3973440D01*
G01X-709907Y3973440D01*
G01X-599417Y3998332D02*
G01X-602465Y4004428D01*
G01X-611863Y4007476D01*
G01X-617959Y4007476D01*
G01X-627357Y4004428D01*
G01X-633453Y3995030D01*
G01X-636501Y3979790D01*
G01X-636501Y3964296D01*
G01X-633453Y3951850D01*
G01X-627357Y3945500D01*
G01X-617959Y3942452D01*
G01X-614911Y3942452D01*
G01X-605767Y3945500D01*
G01X-599417Y3951850D01*
G01X-596369Y3960994D01*
G01X-596369Y3964296D01*
G01X-599417Y3973440D01*
G01X-605767Y3979790D01*
G01X-614911Y3982838D01*
G01X-617959Y3982838D01*
G01X-627357Y3979790D01*
G01X-633453Y3973440D01*
G01X-636501Y3964296D01*
G01X-2517767Y3789473D02*
G01X-2517767Y3742991D01*
G01X-2514719Y3733847D01*
G01X-2508369Y3727497D01*
G01X-2499225Y3724449D01*
G01X-2492875Y3724449D01*
G01X-2483731Y3727497D01*
G01X-2477635Y3733847D01*
G01X-2474333Y3742991D01*
G01X-2474333Y3789473D01*
G01X-2444107Y3777027D02*
G01X-2438011Y3780329D01*
G01X-2428867Y3789473D01*
G01X-2428867Y3724449D01*
G54D11*
G01X-1916176Y3932428D02*
G01X-1924812Y3949954D01*
G01X-1942338Y3967226D01*
G01X-1959864Y3976116D01*
G01X-1994916Y3976116D01*
G01X-2012442Y3967226D01*
G01X-2029968Y3949954D01*
G01X-2038604Y3932428D01*
G01X-2047494Y3906012D01*
G01X-2047494Y3862324D01*
G01X-2038604Y3836162D01*
G01X-2029968Y3818636D01*
G01X-2012442Y3801110D01*
G01X-1994916Y3792474D01*
G01X-1959864Y3792474D01*
G01X-1942338Y3801110D01*
G01X-1924812Y3818636D01*
G01X-1916176Y3836162D01*
G01X-1916176Y3862324D01*
G01X-1959864Y3862324D02*
G01X-1916176Y3862324D01*
G01X-1854200Y3976116D02*
G01X-1854200Y3792474D01*
G01X-1854200Y3976116D02*
G01X-1775460Y3976116D01*
G01X-1749298Y3967226D01*
G01X-1740408Y3958590D01*
G01X-1731772Y3941064D01*
G01X-1731772Y3914902D01*
G01X-1740408Y3897376D01*
G01X-1749298Y3888486D01*
G01X-1775460Y3879850D01*
G01X-1854200Y3879850D01*
G01X-1547368Y3949954D02*
G01X-1564894Y3967226D01*
G01X-1591056Y3976116D01*
G01X-1626108Y3976116D01*
G01X-1652270Y3967226D01*
G01X-1669796Y3949954D01*
G01X-1669796Y3932428D01*
G01X-1660906Y3914902D01*
G01X-1652270Y3906012D01*
G01X-1634744Y3897376D01*
G01X-1582166Y3879850D01*
G01X-1564894Y3871214D01*
G01X-1556004Y3862324D01*
G01X-1547368Y3844798D01*
G01X-1547368Y3818636D01*
G01X-1564894Y3801110D01*
G01X-1591056Y3792474D01*
G01X-1626108Y3792474D01*
G01X-1652270Y3801110D01*
G01X-1669796Y3818636D01*
G54D12*
G01X5318760Y3002280D02*
G01X5318760Y2815590D01*
G01X5443220Y3002280D02*
G01X5443220Y2815590D01*
G01X5318760Y2913380D02*
G01X5443220Y2913380D01*
G01X5506212Y3002280D02*
G01X5506212Y2815590D01*
G01X5506212Y3002280D02*
G01X5577332Y2815590D01*
G01X5648452Y3002280D02*
G01X5577332Y2815590D01*
G01X5648452Y3002280D02*
G01X5648452Y2815590D01*
G01X5844794Y2957830D02*
G01X5835904Y2975610D01*
G01X5818124Y2993390D01*
G01X5800344Y3002280D01*
G01X5764784Y3002280D01*
G01X5747004Y2993390D01*
G01X5729224Y2975610D01*
G01X5720334Y2957830D01*
G01X5711444Y2931160D01*
G01X5711444Y2886710D01*
G01X5720334Y2860040D01*
G01X5729224Y2842260D01*
G01X5747004Y2824480D01*
G01X5764784Y2815590D01*
G01X5800344Y2815590D01*
G01X5818124Y2824480D01*
G01X5835904Y2842260D01*
G01X5844794Y2860040D01*
G01X-2555240Y-3335020D02*
G01X-2555240Y-3521710D01*
G01X-2555240Y-3335020D02*
G01X-2475230Y-3335020D01*
G01X-2448560Y-3343910D01*
G01X-2439670Y-3352800D01*
G01X-2430780Y-3370580D01*
G01X-2430780Y-3388360D01*
G01X-2439670Y-3406140D01*
G01X-2448560Y-3415030D01*
G01X-2475230Y-3423920D01*
G01X-2555240Y-3423920D02*
G01X-2475230Y-3423920D01*
G01X-2448560Y-3432810D01*
G01X-2439670Y-3441700D01*
G01X-2430780Y-3459480D01*
G01X-2430780Y-3486150D01*
G01X-2439670Y-3503930D01*
G01X-2448560Y-3512820D01*
G01X-2475230Y-3521710D01*
G01X-2555240Y-3521710D01*
G01X-2367788Y-3335020D02*
G01X-2367788Y-3521710D01*
G01X-2367788Y-3335020D02*
G01X-2296668Y-3521710D01*
G01X-2225548Y-3335020D02*
G01X-2296668Y-3521710D01*
G01X-2225548Y-3335020D02*
G01X-2225548Y-3521710D01*
G01X-2162556Y-3335020D02*
G01X-2162556Y-3521710D01*
G01X-2162556Y-3335020D02*
G01X-2082546Y-3335020D01*
G01X-2055876Y-3343910D01*
G01X-2046986Y-3352800D01*
G01X-2038096Y-3370580D01*
G01X-2038096Y-3397250D01*
G01X-2046986Y-3415030D01*
G01X-2055876Y-3423920D01*
G01X-2082546Y-3432810D01*
G01X-2162556Y-3432810D01*
G01X3693160Y-3271520D02*
G01X3693160Y-3458210D01*
G01X3693160Y-3271520D02*
G01X3764280Y-3458210D01*
G01X3835400Y-3271520D02*
G01X3764280Y-3458210D01*
G01X3835400Y-3271520D02*
G01X3835400Y-3458210D01*
G01X3898392Y-3271520D02*
G01X3898392Y-3458210D01*
G01X3898392Y-3271520D02*
G01X3978402Y-3271520D01*
G01X4005072Y-3280410D01*
G01X4013962Y-3289300D01*
G01X4022852Y-3307080D01*
G01X4022852Y-3333750D01*
G01X4013962Y-3351530D01*
G01X4005072Y-3360420D01*
G01X3978402Y-3369310D01*
G01X3898392Y-3369310D01*
G01X4085844Y-3271520D02*
G01X4085844Y-3404870D01*
G01X4094734Y-3431540D01*
G01X4112514Y-3449320D01*
G01X4139184Y-3458210D01*
G01X4156964Y-3458210D01*
G01X4183634Y-3449320D01*
G01X4201414Y-3431540D01*
G01X4210304Y-3404870D01*
G01X4210304Y-3271520D01*
G04 Text End*

G04 PolygonModel Start*
G54D13*
G01X-125001Y-2805999D02*
G01X124996Y-2805999D01*
G01X-125004Y2805999D02*
G01X-125004Y-2802999D01*
G01X124996Y2805999D02*
G01X124996Y-2802999D01*
G01X124996Y2549195D02*
G01X-125001Y2549195D01*
G01X-125001Y2805999D02*
G01X124996Y2805999D01*
G01X2414999Y-2805999D02*
G01X2664996Y-2805999D01*
G01X2414996Y2805999D02*
G01X2414996Y-2802999D01*
G01X2664996Y2805999D02*
G01X2664996Y-2802999D01*
G01X2664996Y2549195D02*
G01X2414999Y2549195D01*
G01X2414999Y2805999D02*
G01X2664996Y2805999D01*
G01X4318000Y3632200D02*
G01X4318000Y3378200D01*
G01X4038600Y3632200D02*
G01X5359400Y3632200D01*
G01X5359400Y3378200D01*
G01X4038600Y3378200D01*
G01X4038600Y3632200D01*
G01X-1716999Y-3873000D02*
G01X-1716999Y-4127000D01*
G01X-3283001Y-3873000D02*
G01X-1716999Y-3873000D01*
G01X-3283001Y-4127000D02*
G01X-1716999Y-4127000D01*
G01X-3005648Y-3873000D02*
G01X-3005648Y-4127000D01*
G01X-3283001Y-3873000D02*
G01X-3283001Y-4127000D01*
G01X5638797Y-3873500D02*
G01X5638797Y-4127500D01*
G01X5638797Y-4127500D02*
G01X3606803Y-4127500D01*
G01X3606803Y-4127500D02*
G01X3606803Y-3873500D01*
G01X3606803Y-3873500D02*
G01X5638797Y-3873500D01*
G01X3863152Y-3873500D02*
G01X3863152Y-4127500D01*
G54D10*
G01X4981720Y2960561D02*
G01X4840719Y2960561D01*
G01X4840719Y2779840D02*
G01X4981720Y2779840D01*
G01X4996960Y2795080D02*
G01X4996960Y2945321D01*
G01X4619480Y2960561D02*
G01X4760481Y2960561D01*
G01X4760481Y2779840D02*
G01X4619480Y2779840D01*
G01X4604240Y2795080D02*
G01X4604240Y2945321D01*
G01X4981720Y2779840D02*
G03X4996960Y2795080I0J15240D01*
G01X4996960Y2945321D02*
G03X4981720Y2960561I-15240J0D01*
G01X4619480Y2779840D02*
G02X4604240Y2795080I0J15240D01*
G01X4604240Y2945321D02*
G02X4619480Y2960561I15240J0D01*
G01X-2854180Y-3376739D02*
G01X-2995181Y-3376739D01*
G01X-2995181Y-3557460D02*
G01X-2854180Y-3557460D01*
G01X-2838940Y-3542220D02*
G01X-2838940Y-3391979D01*
G01X-3216420Y-3376739D02*
G01X-3075419Y-3376739D01*
G01X-3075419Y-3557460D02*
G01X-3216420Y-3557460D01*
G01X-3231660Y-3542220D02*
G01X-3231660Y-3391979D01*
G01X-2854180Y-3557460D02*
G03X-2838940Y-3542220I0J15240D01*
G01X-2838940Y-3391979D02*
G03X-2854180Y-3376739I-15240J0D01*
G01X-3216420Y-3557460D02*
G02X-3231660Y-3542220I0J15240D01*
G01X-3231660Y-3391979D02*
G02X-3216420Y-3376739I15240J0D01*
G01X4854720Y-3427539D02*
G01X4713719Y-3427539D01*
G01X4713719Y-3608260D02*
G01X4854720Y-3608260D01*
G01X4869960Y-3593020D02*
G01X4869960Y-3442779D01*
G01X4492480Y-3427539D02*
G01X4633481Y-3427539D01*
G01X4633481Y-3608260D02*
G01X4492480Y-3608260D01*
G01X4477240Y-3593020D02*
G01X4477240Y-3442779D01*
G01X4854720Y-3608260D02*
G03X4869960Y-3593020I0J15240D01*
G01X4869960Y-3442779D02*
G03X4854720Y-3427539I-15240J0D01*
G01X4492480Y-3608260D02*
G02X4477240Y-3593020I0J15240D01*
G01X4477240Y-3442779D02*
G02X4492480Y-3427539I15240J0D01*
G01X-2841480Y64961D02*
G01X-2982481Y64961D01*
G01X-2982481Y-115760D02*
G01X-2841480Y-115760D01*
G01X-2826240Y-100520D02*
G01X-2826240Y49721D01*
G01X-3203720Y64961D02*
G01X-3062719Y64961D01*
G01X-3062719Y-115760D02*
G01X-3203720Y-115760D01*
G01X-3218960Y-100520D02*
G01X-3218960Y49721D01*
G01X-2841480Y-115760D02*
G03X-2826240Y-100520I0J15240D01*
G01X-2826240Y49721D02*
G03X-2841480Y64961I-15240J0D01*
G01X-3203720Y-115760D02*
G02X-3218960Y-100520I0J15240D01*
G01X-3218960Y49721D02*
G02X-3203720Y64961I15240J0D01*
G01X408291Y3752380D02*
G01X408291Y3623887D01*
G01X408291Y3623887D02*
G01X591709Y3623887D01*
G01X591709Y3623887D02*
G01X591709Y3752380D01*
G01X408291Y3847620D02*
G01X408291Y3976113D01*
G01X408291Y3976113D02*
G01X591709Y3976113D01*
G01X591709Y3976113D02*
G01X591709Y3847620D01*
G01X1408272Y3752385D02*
G01X1408272Y3623891D01*
G01X1408272Y3623891D02*
G01X1591690Y3623891D01*
G01X1591690Y3623891D02*
G01X1591690Y3752385D01*
G01X1408272Y3847625D02*
G01X1408272Y3976118D01*
G01X1408272Y3976118D02*
G01X1591690Y3976118D01*
G01X1591690Y3976118D02*
G01X1591690Y3847625D01*
G01X2408281Y3752387D02*
G01X2408281Y3623893D01*
G01X2408281Y3623893D02*
G01X2591700Y3623893D01*
G01X2591700Y3623893D02*
G01X2591700Y3752387D01*
G01X2408281Y3847627D02*
G01X2408281Y3976120D01*
G01X2408281Y3976120D02*
G01X2591700Y3976120D01*
G01X2591700Y3976120D02*
G01X2591700Y3847627D01*
G54D13*
G01X3256600Y3645700D02*
G01X3256600Y3745725D01*
G01X3311017Y3799967D02*
G01X3458337Y3799967D01*
G01X3458337Y3799967D02*
G01X3498977Y3759327D01*
G01X3498977Y3759327D02*
G01X3498977Y3632327D01*
G01X3498977Y3632327D02*
G01X3460877Y3594227D01*
G01X3460877Y3594227D02*
G01X3308477Y3594227D01*
G01X3232277Y3797427D02*
G01X3077337Y3797427D01*
G01X3077337Y3797427D02*
G01X3077337Y3594227D01*
G01X3077337Y3594227D02*
G01X3232277Y3594227D01*
G01X3266592Y3695700D02*
G01X3293491Y3695700D01*
G54D10*
G01X-2460480Y3112961D02*
G01X-2601481Y3112961D01*
G01X-2601481Y2932240D02*
G01X-2460480Y2932240D01*
G01X-2445240Y2947480D02*
G01X-2445240Y3097721D01*
G01X-2822720Y3112961D02*
G01X-2681719Y3112961D01*
G01X-2681719Y2932240D02*
G01X-2822720Y2932240D01*
G01X-2837960Y2947480D02*
G01X-2837960Y3097721D01*
G01X-2460480Y2932240D02*
G03X-2445240Y2947480I0J15240D01*
G01X-2445240Y3097721D02*
G03X-2460480Y3112961I-15240J0D01*
G01X-2822720Y2932240D02*
G02X-2837960Y2947480I0J15240D01*
G01X-2837960Y3097721D02*
G02X-2822720Y3112961I15240J0D01*
G01X-1901680Y3112961D02*
G01X-2042681Y3112961D01*
G01X-2042681Y2932240D02*
G01X-1901680Y2932240D01*
G01X-1886440Y2947480D02*
G01X-1886440Y3097721D01*
G01X-2263920Y3112961D02*
G01X-2122919Y3112961D01*
G01X-2122919Y2932240D02*
G01X-2263920Y2932240D01*
G01X-2279160Y2947480D02*
G01X-2279160Y3097721D01*
G01X-1901680Y2932240D02*
G03X-1886440Y2947480I0J15240D01*
G01X-1886440Y3097721D02*
G03X-1901680Y3112961I-15240J0D01*
G01X-2263920Y2932240D02*
G02X-2279160Y2947480I0J15240D01*
G01X-2279160Y3097721D02*
G02X-2263920Y3112961I15240J0D01*
G01X-1349380Y2930891D02*
G01X-1220887Y2930891D01*
G01X-1220887Y2930891D02*
G01X-1220887Y3114309D01*
G01X-1220887Y3114309D02*
G01X-1349380Y3114309D01*
G01X-1444620Y2930891D02*
G01X-1573113Y2930891D01*
G01X-1573113Y2930891D02*
G01X-1573113Y3114309D01*
G01X-1573113Y3114309D02*
G01X-1444620Y3114309D01*
G01X-815980Y2918191D02*
G01X-687487Y2918191D01*
G01X-687487Y2918191D02*
G01X-687487Y3101609D01*
G01X-687487Y3101609D02*
G01X-815980Y3101609D01*
G01X-911220Y2918191D02*
G01X-1039713Y2918191D01*
G01X-1039713Y2918191D02*
G01X-1039713Y3101609D01*
G01X-1039713Y3101609D02*
G01X-911220Y3101609D01*
G54D13*
G01X-2233287Y3669839D02*
G01X-2233287Y3415839D01*
G01X-2512687Y3669839D02*
G01X-1191887Y3669839D01*
G01X-1191887Y3415839D01*
G01X-2512687Y3415839D01*
G01X-2512687Y3669839D01*

G04 Circle Start*
G01X-2160012Y-4799998D02*
G03X-1840022Y-4799998I159995J0D01*
G03X-2160012Y-4799998I-159995J0D01*
G01X-1160024Y-4799998D02*
G03X-840035Y-4799998I159995J0D01*
G03X-1160024Y-4799998I-159995J0D01*
G01X-159946Y-4799998D02*
G03X160043Y-4799998I159995J0D01*
G03X-159946Y-4799998I-159995J0D01*
G01X839999Y-4799987D02*
G03X1159989Y-4799987I159995J0D01*
G03X839999Y-4799987I-159995J0D01*
G01X1839965Y-4799987D02*
G03X2159954Y-4799987I159995J0D01*
G03X1839965Y-4799987I-159995J0D01*
G01X-778487Y3727847D02*
G03X-458498Y3727847I159995J0D01*
G03X-778487Y3727847I-159995J0D01*
G04 Circle End*

M02*

