G04 Layer: BottomLayer*
G04 EasyEDA Pro v3.2.149.88089769, 2026-06-30 20:12:10*
G04 Gerber Generator version 0.3*
G04 Scale: 100 percent, Rotated: No, Reflected: No*
G04 Dimensions in millimeters*
G04 Leading zeros omitted, absolute positions, 4 integers and 5 decimals*
G04 Generated by one-click*
G04 Object Configs: Pad,Via,Track,Text,Image,Dimension,BoardOutline,BoardCutout,CopperFilled,SolidRegion,FPCStiffener,Line,PlaneZone,ComponentProperty,ComponentSilkscreen,TearDrop*
G04 Layer Configs: 1,2,3,4,5,6,7,8,9,10,11,13,14,56*
G04 Copper Areas: 33*
%FSLAX45Y45*%
%MOMM*%
%ADD10C,0.2032*%
%ADD11C,0.254*%
%ADD12R,1.6X1.6*%
%ADD13C,1.6*%
%ADD14R,1.7X1.7*%
%ADD15C,1.7036*%
%ADD16C,1.7*%
%ADD17C,1.5*%
%ADD18R,1.5X1.5*%
%ADD19C,2.69999*%
%ADD20C,5.0*%
%ADD21C,0.61*%
%ADD22C,0.3*%
G75*


G04 Copper Start*
G36*
G01X6234186Y4664186D02*
G01X6234186Y-5264186D01*
G01X-3694186Y-5264186D01*
G01X-3694186Y-4800045D01*
G01X-3515772Y-4800045D01*
G01X-3513839Y-4833226D01*
G01X-3508068Y-4865959D01*
G01X-3498535Y-4897799D01*
G01X-3485370Y-4928318D01*
G01X-3468752Y-4957103D01*
G01X-3448904Y-4983763D01*
G01X-3426095Y-5007939D01*
G01X-3400634Y-5029303D01*
G01X-3372865Y-5047567D01*
G01X-3343163Y-5062484D01*
G01X-3311930Y-5073852D01*
G01X-3279589Y-5081517D01*
G01X-3246576Y-5085376D01*
G01X-3213339Y-5085376D01*
G01X-3180327Y-5081517D01*
G01X-3147985Y-5073852D01*
G01X-3116753Y-5062484D01*
G01X-3087051Y-5047567D01*
G01X-3059281Y-5029303D01*
G01X-3033820Y-5007939D01*
G01X-3011011Y-4983763D01*
G01X-2991164Y-4957103D01*
G01X-2974545Y-4928318D01*
G01X-2961380Y-4897799D01*
G01X-2951848Y-4865959D01*
G01X-2946076Y-4833226D01*
G01X-2944144Y-4800045D01*
G01X-2944146Y-4799998D01*
G01X-2170831Y-4799998D01*
G01X-2168923Y-4825456D01*
G01X-2163242Y-4850346D01*
G01X-2153915Y-4874111D01*
G01X-2141150Y-4896221D01*
G01X-2125232Y-4916181D01*
G01X-2106518Y-4933546D01*
G01X-2085424Y-4947927D01*
G01X-2062422Y-4959004D01*
G01X-2038027Y-4966529D01*
G01X-2012782Y-4970334D01*
G01X-1987252Y-4970334D01*
G01X-1962007Y-4966529D01*
G01X-1937612Y-4959004D01*
G01X-1914610Y-4947927D01*
G01X-1893516Y-4933546D01*
G01X-1874802Y-4916181D01*
G01X-1858884Y-4896221D01*
G01X-1846119Y-4874111D01*
G01X-1836792Y-4850346D01*
G01X-1831111Y-4825456D01*
G01X-1829203Y-4799998D01*
G01X-1170843Y-4799998D01*
G01X-1168935Y-4825456D01*
G01X-1163254Y-4850346D01*
G01X-1153927Y-4874111D01*
G01X-1141162Y-4896221D01*
G01X-1125245Y-4916181D01*
G01X-1106530Y-4933546D01*
G01X-1085436Y-4947927D01*
G01X-1062435Y-4959004D01*
G01X-1038039Y-4966529D01*
G01X-1012794Y-4970334D01*
G01X-987265Y-4970334D01*
G01X-962020Y-4966529D01*
G01X-937624Y-4959004D01*
G01X-914623Y-4947927D01*
G01X-893529Y-4933546D01*
G01X-874814Y-4916181D01*
G01X-858897Y-4896221D01*
G01X-846132Y-4874111D01*
G01X-836805Y-4850346D01*
G01X-831124Y-4825456D01*
G01X-829216Y-4799998D01*
G01X-170765Y-4799998D01*
G01X-168857Y-4825456D01*
G01X-163176Y-4850346D01*
G01X-153849Y-4874111D01*
G01X-141084Y-4896221D01*
G01X-125167Y-4916181D01*
G01X-106452Y-4933546D01*
G01X-85358Y-4947927D01*
G01X-62356Y-4959004D01*
G01X-37961Y-4966529D01*
G01X-12716Y-4970334D01*
G01X12814Y-4970334D01*
G01X38058Y-4966529D01*
G01X62454Y-4959004D01*
G01X85456Y-4947927D01*
G01X106549Y-4933546D01*
G01X125264Y-4916181D01*
G01X141182Y-4896221D01*
G01X153947Y-4874111D01*
G01X163274Y-4850346D01*
G01X168955Y-4825456D01*
G01X170862Y-4799998D01*
G01X170862Y-4799987D01*
G01X829180Y-4799987D01*
G01X831088Y-4825446D01*
G01X836769Y-4850335D01*
G01X846096Y-4874100D01*
G01X858861Y-4896210D01*
G01X874779Y-4916170D01*
G01X893493Y-4933535D01*
G01X914587Y-4947916D01*
G01X937589Y-4958993D01*
G01X961984Y-4966518D01*
G01X987229Y-4970323D01*
G01X1012759Y-4970323D01*
G01X1038004Y-4966518D01*
G01X1062399Y-4958993D01*
G01X1085401Y-4947916D01*
G01X1106495Y-4933535D01*
G01X1125209Y-4916170D01*
G01X1141127Y-4896210D01*
G01X1153892Y-4874100D01*
G01X1163219Y-4850335D01*
G01X1168900Y-4825446D01*
G01X1170808Y-4799987D01*
G01X1829146Y-4799987D01*
G01X1831054Y-4825446D01*
G01X1836735Y-4850335D01*
G01X1846062Y-4874100D01*
G01X1858827Y-4896210D01*
G01X1874744Y-4916170D01*
G01X1893459Y-4933535D01*
G01X1914553Y-4947916D01*
G01X1937554Y-4958993D01*
G01X1961950Y-4966518D01*
G01X1987195Y-4970323D01*
G01X2012725Y-4970323D01*
G01X2037969Y-4966518D01*
G01X2062365Y-4958993D01*
G01X2085367Y-4947916D01*
G01X2106460Y-4933535D01*
G01X2125175Y-4916170D01*
G01X2141093Y-4896210D01*
G01X2153858Y-4874100D01*
G01X2163185Y-4850335D01*
G01X2168866Y-4825446D01*
G01X2170772Y-4800000D01*
G01X5484186Y-4800000D01*
G01X5486118Y-4833181D01*
G01X5491890Y-4865913D01*
G01X5501423Y-4897754D01*
G01X5514587Y-4928273D01*
G01X5531206Y-4957057D01*
G01X5551054Y-4983718D01*
G01X5573862Y-5007893D01*
G01X5599324Y-5029258D01*
G01X5627093Y-5047522D01*
G01X5656795Y-5062439D01*
G01X5688028Y-5073807D01*
G01X5720369Y-5081472D01*
G01X5753381Y-5085330D01*
G01X5786618Y-5085330D01*
G01X5819631Y-5081472D01*
G01X5851972Y-5073807D01*
G01X5883205Y-5062439D01*
G01X5912907Y-5047522D01*
G01X5940676Y-5029258D01*
G01X5966137Y-5007893D01*
G01X5988946Y-4983718D01*
G01X6008794Y-4957057D01*
G01X6025413Y-4928273D01*
G01X6038577Y-4897754D01*
G01X6048110Y-4865913D01*
G01X6053881Y-4833181D01*
G01X6055814Y-4800000D01*
G01X6053881Y-4766819D01*
G01X6048110Y-4734087D01*
G01X6038577Y-4702246D01*
G01X6025413Y-4671727D01*
G01X6008794Y-4642942D01*
G01X5988946Y-4616282D01*
G01X5966137Y-4592106D01*
G01X5940676Y-4570742D01*
G01X5912907Y-4552478D01*
G01X5883205Y-4537561D01*
G01X5851972Y-4526193D01*
G01X5819631Y-4518528D01*
G01X5786618Y-4514669D01*
G01X5753381Y-4514669D01*
G01X5720369Y-4518528D01*
G01X5688028Y-4526193D01*
G01X5656795Y-4537561D01*
G01X5627093Y-4552478D01*
G01X5599324Y-4570742D01*
G01X5573862Y-4592106D01*
G01X5551054Y-4616282D01*
G01X5531206Y-4642942D01*
G01X5514587Y-4671727D01*
G01X5501423Y-4702246D01*
G01X5491890Y-4734087D01*
G01X5486118Y-4766819D01*
G01X5484186Y-4800000D01*
G01X5484186Y-4800000D01*
G01X2170772Y-4800000D01*
G01X2170773Y-4799987D01*
G01X2168866Y-4774529D01*
G01X2163185Y-4749639D01*
G01X2153858Y-4725874D01*
G01X2141093Y-4703764D01*
G01X2125175Y-4683804D01*
G01X2106460Y-4666440D01*
G01X2085367Y-4652058D01*
G01X2062365Y-4640981D01*
G01X2037969Y-4633456D01*
G01X2012725Y-4629651D01*
G01X1987195Y-4629651D01*
G01X1961950Y-4633456D01*
G01X1937554Y-4640981D01*
G01X1914553Y-4652058D01*
G01X1893459Y-4666440D01*
G01X1874744Y-4683804D01*
G01X1858827Y-4703764D01*
G01X1846062Y-4725874D01*
G01X1836735Y-4749639D01*
G01X1831054Y-4774529D01*
G01X1829146Y-4799987D01*
G01X1829146Y-4799987D01*
G01X1170808Y-4799987D01*
G01X1168900Y-4774529D01*
G01X1163219Y-4749639D01*
G01X1153892Y-4725874D01*
G01X1141127Y-4703764D01*
G01X1125209Y-4683804D01*
G01X1106495Y-4666440D01*
G01X1085401Y-4652058D01*
G01X1062399Y-4640981D01*
G01X1038004Y-4633456D01*
G01X1012759Y-4629651D01*
G01X987229Y-4629651D01*
G01X961984Y-4633456D01*
G01X937589Y-4640981D01*
G01X914587Y-4652058D01*
G01X893493Y-4666440D01*
G01X874779Y-4683804D01*
G01X858861Y-4703764D01*
G01X846096Y-4725874D01*
G01X836769Y-4749639D01*
G01X831088Y-4774529D01*
G01X829180Y-4799987D01*
G01X829180Y-4799987D01*
G01X170862Y-4799987D01*
G01X168955Y-4774540D01*
G01X163274Y-4749650D01*
G01X153947Y-4725885D01*
G01X141182Y-4703775D01*
G01X125264Y-4683815D01*
G01X106549Y-4666450D01*
G01X85456Y-4652069D01*
G01X62454Y-4640992D01*
G01X38058Y-4633467D01*
G01X12814Y-4629662D01*
G01X-12716Y-4629662D01*
G01X-37961Y-4633467D01*
G01X-62356Y-4640992D01*
G01X-85358Y-4652069D01*
G01X-106452Y-4666450D01*
G01X-125167Y-4683815D01*
G01X-141084Y-4703775D01*
G01X-153849Y-4725885D01*
G01X-163176Y-4749650D01*
G01X-168857Y-4774540D01*
G01X-170765Y-4799998D01*
G01X-170765Y-4799998D01*
G01X-829216Y-4799998D01*
G01X-831124Y-4774540D01*
G01X-836805Y-4749650D01*
G01X-846132Y-4725885D01*
G01X-858897Y-4703775D01*
G01X-874814Y-4683815D01*
G01X-893529Y-4666450D01*
G01X-914623Y-4652069D01*
G01X-937624Y-4640992D01*
G01X-962020Y-4633467D01*
G01X-987265Y-4629662D01*
G01X-1012794Y-4629662D01*
G01X-1038039Y-4633467D01*
G01X-1062435Y-4640992D01*
G01X-1085436Y-4652069D01*
G01X-1106530Y-4666450D01*
G01X-1125245Y-4683815D01*
G01X-1141162Y-4703775D01*
G01X-1153927Y-4725885D01*
G01X-1163254Y-4749650D01*
G01X-1168935Y-4774540D01*
G01X-1170843Y-4799998D01*
G01X-1170843Y-4799998D01*
G01X-1829203Y-4799998D01*
G01X-1831111Y-4774540D01*
G01X-1836792Y-4749650D01*
G01X-1846119Y-4725885D01*
G01X-1858884Y-4703775D01*
G01X-1874802Y-4683815D01*
G01X-1893516Y-4666450D01*
G01X-1914610Y-4652069D01*
G01X-1937612Y-4640992D01*
G01X-1962007Y-4633467D01*
G01X-1987252Y-4629662D01*
G01X-2012782Y-4629662D01*
G01X-2038027Y-4633467D01*
G01X-2062422Y-4640992D01*
G01X-2085424Y-4652069D01*
G01X-2106518Y-4666450D01*
G01X-2125232Y-4683815D01*
G01X-2141150Y-4703775D01*
G01X-2153915Y-4725885D01*
G01X-2163242Y-4749650D01*
G01X-2168923Y-4774540D01*
G01X-2170831Y-4799998D01*
G01X-2170831Y-4799998D01*
G01X-2944146Y-4799998D01*
G01X-2946076Y-4766864D01*
G01X-2951848Y-4734132D01*
G01X-2961380Y-4702291D01*
G01X-2974545Y-4671772D01*
G01X-2991164Y-4642988D01*
G01X-3011011Y-4616328D01*
G01X-3033820Y-4592152D01*
G01X-3059281Y-4570787D01*
G01X-3087051Y-4552523D01*
G01X-3116753Y-4537606D01*
G01X-3147985Y-4526238D01*
G01X-3180327Y-4518573D01*
G01X-3213339Y-4514715D01*
G01X-3246576Y-4514715D01*
G01X-3279589Y-4518573D01*
G01X-3311930Y-4526238D01*
G01X-3343163Y-4537606D01*
G01X-3372865Y-4552523D01*
G01X-3400634Y-4570787D01*
G01X-3426095Y-4592152D01*
G01X-3448904Y-4616328D01*
G01X-3468752Y-4642988D01*
G01X-3485370Y-4671772D01*
G01X-3498535Y-4702291D01*
G01X-3508068Y-4734132D01*
G01X-3513839Y-4766864D01*
G01X-3515772Y-4800045D01*
G01X-3515772Y-4800045D01*
G01X-3694186Y-4800045D01*
G01X-3694186Y-3915000D01*
G01X-3255814Y-3915000D01*
G01X-3255814Y-4085000D01*
G01X-3254061Y-4096067D01*
G01X-3248974Y-4106051D01*
G01X-3241051Y-4113974D01*
G01X-3231067Y-4119061D01*
G01X-3220000Y-4120814D01*
G01X-3050000Y-4120814D01*
G01X-3050000Y-4120814D01*
G01X-3038933Y-4119061D01*
G01X-3028949Y-4113974D01*
G01X-3021026Y-4106051D01*
G01X-3015939Y-4096067D01*
G01X-3014186Y-4085000D01*
G01X-3014186Y-4000000D01*
G01X-3001814Y-4000000D01*
G01X-2999978Y-4020979D01*
G01X-2994528Y-4041321D01*
G01X-2985628Y-4060407D01*
G01X-2973549Y-4077658D01*
G01X-2958658Y-4092549D01*
G01X-2941407Y-4104628D01*
G01X-2922321Y-4113528D01*
G01X-2901979Y-4118978D01*
G01X-2881000Y-4120814D01*
G01X-2860021Y-4118978D01*
G01X-2839679Y-4113528D01*
G01X-2820593Y-4104628D01*
G01X-2803342Y-4092549D01*
G01X-2788451Y-4077658D01*
G01X-2776372Y-4060407D01*
G01X-2767472Y-4041321D01*
G01X-2762022Y-4020979D01*
G01X-2760186Y-4000000D01*
G01X-2747814Y-4000000D01*
G01X-2745978Y-4020979D01*
G01X-2740528Y-4041321D01*
G01X-2731628Y-4060407D01*
G01X-2719549Y-4077658D01*
G01X-2704658Y-4092549D01*
G01X-2687407Y-4104628D01*
G01X-2668321Y-4113528D01*
G01X-2647979Y-4118978D01*
G01X-2627000Y-4120814D01*
G01X-2606021Y-4118978D01*
G01X-2585679Y-4113528D01*
G01X-2566593Y-4104628D01*
G01X-2549342Y-4092549D01*
G01X-2534451Y-4077658D01*
G01X-2522372Y-4060407D01*
G01X-2513472Y-4041321D01*
G01X-2508022Y-4020979D01*
G01X-2506186Y-4000000D01*
G01X-2493814Y-4000000D01*
G01X-2491978Y-4020979D01*
G01X-2486528Y-4041321D01*
G01X-2477628Y-4060407D01*
G01X-2465549Y-4077658D01*
G01X-2450658Y-4092549D01*
G01X-2433407Y-4104628D01*
G01X-2414321Y-4113528D01*
G01X-2393979Y-4118978D01*
G01X-2373000Y-4120814D01*
G01X-2352021Y-4118978D01*
G01X-2331679Y-4113528D01*
G01X-2312593Y-4104628D01*
G01X-2295342Y-4092549D01*
G01X-2280451Y-4077658D01*
G01X-2268372Y-4060407D01*
G01X-2259472Y-4041321D01*
G01X-2254022Y-4020979D01*
G01X-2252186Y-4000000D01*
G01X-2239814Y-4000000D01*
G01X-2237978Y-4020979D01*
G01X-2232528Y-4041321D01*
G01X-2223628Y-4060407D01*
G01X-2211549Y-4077658D01*
G01X-2196658Y-4092549D01*
G01X-2179407Y-4104628D01*
G01X-2160321Y-4113528D01*
G01X-2139979Y-4118978D01*
G01X-2119000Y-4120814D01*
G01X-2098021Y-4118978D01*
G01X-2077679Y-4113528D01*
G01X-2058593Y-4104628D01*
G01X-2041342Y-4092549D01*
G01X-2026451Y-4077658D01*
G01X-2014372Y-4060407D01*
G01X-2005472Y-4041321D01*
G01X-2000022Y-4020979D01*
G01X-1998186Y-4000000D01*
G01X-1985814Y-4000000D01*
G01X-1983978Y-4020979D01*
G01X-1978528Y-4041321D01*
G01X-1969628Y-4060407D01*
G01X-1957549Y-4077658D01*
G01X-1942658Y-4092549D01*
G01X-1925407Y-4104628D01*
G01X-1906321Y-4113528D01*
G01X-1885979Y-4118978D01*
G01X-1865000Y-4120814D01*
G01X-1844021Y-4118978D01*
G01X-1823679Y-4113528D01*
G01X-1804593Y-4104628D01*
G01X-1787342Y-4092549D01*
G01X-1772451Y-4077658D01*
G01X-1760372Y-4060407D01*
G01X-1751472Y-4041321D01*
G01X-1746022Y-4020979D01*
G01X-1744186Y-4000000D01*
G01X-1746022Y-3979021D01*
G01X-1751472Y-3958679D01*
G01X-1760372Y-3939593D01*
G01X-1770240Y-3925500D01*
G01X3622984Y-3925500D01*
G01X3622984Y-4075500D01*
G01X3624736Y-4086567D01*
G01X3629823Y-4096551D01*
G01X3637747Y-4104474D01*
G01X3647730Y-4109561D01*
G01X3658798Y-4111314D01*
G01X3808797Y-4111314D01*
G01X3808797Y-4111314D01*
G01X3819864Y-4109561D01*
G01X3829848Y-4104474D01*
G01X3837771Y-4096551D01*
G01X3842858Y-4086567D01*
G01X3844611Y-4075500D01*
G01X3844611Y-4000500D01*
G01X3876984Y-4000500D01*
G01X3878870Y-4020862D01*
G01X3884467Y-4040531D01*
G01X3893582Y-4058836D01*
G01X3905905Y-4075155D01*
G01X3921017Y-4088931D01*
G01X3938403Y-4099696D01*
G01X3957472Y-4107084D01*
G01X3977573Y-4110841D01*
G01X3998022Y-4110841D01*
G01X4018123Y-4107084D01*
G01X4037191Y-4099696D01*
G01X4054578Y-4088931D01*
G01X4069690Y-4075155D01*
G01X4082013Y-4058836D01*
G01X4091128Y-4040531D01*
G01X4096724Y-4020862D01*
G01X4098611Y-4000500D01*
G01X4130984Y-4000500D01*
G01X4132870Y-4020862D01*
G01X4138467Y-4040531D01*
G01X4147582Y-4058836D01*
G01X4159905Y-4075155D01*
G01X4175017Y-4088931D01*
G01X4192403Y-4099696D01*
G01X4211472Y-4107084D01*
G01X4231573Y-4110841D01*
G01X4252022Y-4110841D01*
G01X4272123Y-4107084D01*
G01X4291191Y-4099696D01*
G01X4308578Y-4088931D01*
G01X4323690Y-4075155D01*
G01X4336013Y-4058836D01*
G01X4345128Y-4040531D01*
G01X4350724Y-4020862D01*
G01X4352611Y-4000500D01*
G01X4384984Y-4000500D01*
G01X4386870Y-4020862D01*
G01X4392467Y-4040531D01*
G01X4401582Y-4058836D01*
G01X4413905Y-4075155D01*
G01X4429017Y-4088931D01*
G01X4446403Y-4099696D01*
G01X4465472Y-4107084D01*
G01X4485573Y-4110841D01*
G01X4506022Y-4110841D01*
G01X4526123Y-4107084D01*
G01X4545191Y-4099696D01*
G01X4562578Y-4088931D01*
G01X4577690Y-4075155D01*
G01X4590013Y-4058836D01*
G01X4599128Y-4040531D01*
G01X4604724Y-4020862D01*
G01X4606611Y-4000500D01*
G01X4638984Y-4000500D01*
G01X4640870Y-4020862D01*
G01X4646467Y-4040531D01*
G01X4655582Y-4058836D01*
G01X4667905Y-4075155D01*
G01X4683017Y-4088931D01*
G01X4700403Y-4099696D01*
G01X4719472Y-4107084D01*
G01X4739573Y-4110841D01*
G01X4760022Y-4110841D01*
G01X4780123Y-4107084D01*
G01X4799191Y-4099696D01*
G01X4816578Y-4088931D01*
G01X4831690Y-4075155D01*
G01X4844013Y-4058836D01*
G01X4853128Y-4040531D01*
G01X4858724Y-4020862D01*
G01X4860611Y-4000500D01*
G01X4892984Y-4000500D01*
G01X4894870Y-4020862D01*
G01X4900467Y-4040531D01*
G01X4909582Y-4058836D01*
G01X4921905Y-4075155D01*
G01X4937017Y-4088931D01*
G01X4954403Y-4099696D01*
G01X4973472Y-4107084D01*
G01X4993573Y-4110841D01*
G01X5014022Y-4110841D01*
G01X5034123Y-4107084D01*
G01X5053191Y-4099696D01*
G01X5070578Y-4088931D01*
G01X5085690Y-4075155D01*
G01X5098013Y-4058836D01*
G01X5107128Y-4040531D01*
G01X5112724Y-4020862D01*
G01X5114611Y-4000500D01*
G01X5146984Y-4000500D01*
G01X5148870Y-4020862D01*
G01X5154467Y-4040531D01*
G01X5163582Y-4058836D01*
G01X5175905Y-4075155D01*
G01X5191017Y-4088931D01*
G01X5208403Y-4099696D01*
G01X5227472Y-4107084D01*
G01X5247573Y-4110841D01*
G01X5268022Y-4110841D01*
G01X5288123Y-4107084D01*
G01X5307191Y-4099696D01*
G01X5324578Y-4088931D01*
G01X5339690Y-4075155D01*
G01X5352013Y-4058836D01*
G01X5361128Y-4040531D01*
G01X5366724Y-4020862D01*
G01X5368611Y-4000500D01*
G01X5400984Y-4000500D01*
G01X5402870Y-4020862D01*
G01X5408467Y-4040531D01*
G01X5417582Y-4058836D01*
G01X5429905Y-4075155D01*
G01X5445017Y-4088931D01*
G01X5462403Y-4099696D01*
G01X5481472Y-4107084D01*
G01X5501573Y-4110841D01*
G01X5522022Y-4110841D01*
G01X5542123Y-4107084D01*
G01X5561191Y-4099696D01*
G01X5578578Y-4088931D01*
G01X5593690Y-4075155D01*
G01X5606013Y-4058836D01*
G01X5615128Y-4040531D01*
G01X5620724Y-4020862D01*
G01X5622611Y-4000500D01*
G01X5620724Y-3980138D01*
G01X5615128Y-3960469D01*
G01X5606013Y-3942164D01*
G01X5593690Y-3925845D01*
G01X5578578Y-3912069D01*
G01X5561191Y-3901304D01*
G01X5542123Y-3893916D01*
G01X5522022Y-3890159D01*
G01X5501573Y-3890159D01*
G01X5481472Y-3893916D01*
G01X5462403Y-3901304D01*
G01X5445017Y-3912069D01*
G01X5429905Y-3925845D01*
G01X5417582Y-3942164D01*
G01X5408467Y-3960469D01*
G01X5402870Y-3980138D01*
G01X5400984Y-4000500D01*
G01X5400984Y-4000500D01*
G01X5368611Y-4000500D01*
G01X5366724Y-3980138D01*
G01X5361128Y-3960469D01*
G01X5352013Y-3942164D01*
G01X5339690Y-3925845D01*
G01X5324578Y-3912069D01*
G01X5307191Y-3901304D01*
G01X5288123Y-3893916D01*
G01X5268022Y-3890159D01*
G01X5247573Y-3890159D01*
G01X5227472Y-3893916D01*
G01X5208403Y-3901304D01*
G01X5191017Y-3912069D01*
G01X5175905Y-3925845D01*
G01X5163582Y-3942164D01*
G01X5154467Y-3960469D01*
G01X5148870Y-3980138D01*
G01X5146984Y-4000500D01*
G01X5146984Y-4000500D01*
G01X5114611Y-4000500D01*
G01X5112724Y-3980138D01*
G01X5107128Y-3960469D01*
G01X5098013Y-3942164D01*
G01X5085690Y-3925845D01*
G01X5070578Y-3912069D01*
G01X5053191Y-3901304D01*
G01X5034123Y-3893916D01*
G01X5014022Y-3890159D01*
G01X4993573Y-3890159D01*
G01X4973472Y-3893916D01*
G01X4954403Y-3901304D01*
G01X4937017Y-3912069D01*
G01X4921905Y-3925845D01*
G01X4909582Y-3942164D01*
G01X4900467Y-3960469D01*
G01X4894870Y-3980138D01*
G01X4892984Y-4000500D01*
G01X4892984Y-4000500D01*
G01X4860611Y-4000500D01*
G01X4858724Y-3980138D01*
G01X4853128Y-3960469D01*
G01X4844013Y-3942164D01*
G01X4831690Y-3925845D01*
G01X4816578Y-3912069D01*
G01X4799191Y-3901304D01*
G01X4780123Y-3893916D01*
G01X4760022Y-3890159D01*
G01X4739573Y-3890159D01*
G01X4719472Y-3893916D01*
G01X4700403Y-3901304D01*
G01X4683017Y-3912069D01*
G01X4667905Y-3925845D01*
G01X4655582Y-3942164D01*
G01X4646467Y-3960469D01*
G01X4640870Y-3980138D01*
G01X4638984Y-4000500D01*
G01X4638984Y-4000500D01*
G01X4606611Y-4000500D01*
G01X4604724Y-3980138D01*
G01X4599128Y-3960469D01*
G01X4590013Y-3942164D01*
G01X4577690Y-3925845D01*
G01X4562578Y-3912069D01*
G01X4545191Y-3901304D01*
G01X4526123Y-3893916D01*
G01X4506022Y-3890159D01*
G01X4485573Y-3890159D01*
G01X4465472Y-3893916D01*
G01X4446403Y-3901304D01*
G01X4429017Y-3912069D01*
G01X4413905Y-3925845D01*
G01X4401582Y-3942164D01*
G01X4392467Y-3960469D01*
G01X4386870Y-3980138D01*
G01X4384984Y-4000500D01*
G01X4384984Y-4000500D01*
G01X4352611Y-4000500D01*
G01X4350724Y-3980138D01*
G01X4345128Y-3960469D01*
G01X4336013Y-3942164D01*
G01X4323690Y-3925845D01*
G01X4308578Y-3912069D01*
G01X4291191Y-3901304D01*
G01X4272123Y-3893916D01*
G01X4252022Y-3890159D01*
G01X4231573Y-3890159D01*
G01X4211472Y-3893916D01*
G01X4192403Y-3901304D01*
G01X4175017Y-3912069D01*
G01X4159905Y-3925845D01*
G01X4147582Y-3942164D01*
G01X4138467Y-3960469D01*
G01X4132870Y-3980138D01*
G01X4130984Y-4000500D01*
G01X4130984Y-4000500D01*
G01X4098611Y-4000500D01*
G01X4096724Y-3980138D01*
G01X4091128Y-3960469D01*
G01X4082013Y-3942164D01*
G01X4069690Y-3925845D01*
G01X4054578Y-3912069D01*
G01X4037191Y-3901304D01*
G01X4018123Y-3893916D01*
G01X3998022Y-3890159D01*
G01X3977573Y-3890159D01*
G01X3957472Y-3893916D01*
G01X3938403Y-3901304D01*
G01X3921017Y-3912069D01*
G01X3905905Y-3925845D01*
G01X3893582Y-3942164D01*
G01X3884467Y-3960469D01*
G01X3878870Y-3980138D01*
G01X3876984Y-4000500D01*
G01X3876984Y-4000500D01*
G01X3844611Y-4000500D01*
G01X3844611Y-3925500D01*
G01X3842858Y-3914433D01*
G01X3837771Y-3904449D01*
G01X3829848Y-3896526D01*
G01X3819864Y-3891439D01*
G01X3808797Y-3889686D01*
G01X3658798Y-3889686D01*
G01X3647730Y-3891439D01*
G01X3637747Y-3896526D01*
G01X3629823Y-3904449D01*
G01X3624736Y-3914433D01*
G01X3622984Y-3925500D01*
G01X-1770240Y-3925500D01*
G01X-1772451Y-3922342D01*
G01X-1787342Y-3907451D01*
G01X-1804593Y-3895372D01*
G01X-1823679Y-3886472D01*
G01X-1844021Y-3881021D01*
G01X-1865000Y-3879186D01*
G01X-1885979Y-3881021D01*
G01X-1906321Y-3886472D01*
G01X-1925407Y-3895372D01*
G01X-1942658Y-3907451D01*
G01X-1957549Y-3922342D01*
G01X-1969628Y-3939593D01*
G01X-1978528Y-3958679D01*
G01X-1983978Y-3979021D01*
G01X-1985814Y-4000000D01*
G01X-1985814Y-4000000D01*
G01X-1998186Y-4000000D01*
G01X-2000022Y-3979021D01*
G01X-2005472Y-3958679D01*
G01X-2014372Y-3939593D01*
G01X-2026451Y-3922342D01*
G01X-2041342Y-3907451D01*
G01X-2058593Y-3895372D01*
G01X-2077679Y-3886472D01*
G01X-2098021Y-3881021D01*
G01X-2119000Y-3879186D01*
G01X-2139979Y-3881021D01*
G01X-2160321Y-3886472D01*
G01X-2179407Y-3895372D01*
G01X-2196658Y-3907451D01*
G01X-2211549Y-3922342D01*
G01X-2223628Y-3939593D01*
G01X-2232528Y-3958679D01*
G01X-2237978Y-3979021D01*
G01X-2239814Y-4000000D01*
G01X-2239814Y-4000000D01*
G01X-2252186Y-4000000D01*
G01X-2254022Y-3979021D01*
G01X-2259472Y-3958679D01*
G01X-2268372Y-3939593D01*
G01X-2280451Y-3922342D01*
G01X-2295342Y-3907451D01*
G01X-2312593Y-3895372D01*
G01X-2331679Y-3886472D01*
G01X-2352021Y-3881021D01*
G01X-2373000Y-3879186D01*
G01X-2393979Y-3881021D01*
G01X-2414321Y-3886472D01*
G01X-2433407Y-3895372D01*
G01X-2450658Y-3907451D01*
G01X-2465549Y-3922342D01*
G01X-2477628Y-3939593D01*
G01X-2486528Y-3958679D01*
G01X-2491978Y-3979021D01*
G01X-2493814Y-4000000D01*
G01X-2493814Y-4000000D01*
G01X-2506186Y-4000000D01*
G01X-2508022Y-3979021D01*
G01X-2513472Y-3958679D01*
G01X-2522372Y-3939593D01*
G01X-2534451Y-3922342D01*
G01X-2549342Y-3907451D01*
G01X-2566593Y-3895372D01*
G01X-2585679Y-3886472D01*
G01X-2606021Y-3881021D01*
G01X-2627000Y-3879186D01*
G01X-2647979Y-3881021D01*
G01X-2668321Y-3886472D01*
G01X-2687407Y-3895372D01*
G01X-2704658Y-3907451D01*
G01X-2719549Y-3922342D01*
G01X-2731628Y-3939593D01*
G01X-2740528Y-3958679D01*
G01X-2745978Y-3979021D01*
G01X-2747814Y-4000000D01*
G01X-2747814Y-4000000D01*
G01X-2760186Y-4000000D01*
G01X-2762022Y-3979021D01*
G01X-2767472Y-3958679D01*
G01X-2776372Y-3939593D01*
G01X-2788451Y-3922342D01*
G01X-2803342Y-3907451D01*
G01X-2820593Y-3895372D01*
G01X-2839679Y-3886472D01*
G01X-2860021Y-3881021D01*
G01X-2881000Y-3879186D01*
G01X-2901979Y-3881021D01*
G01X-2922321Y-3886472D01*
G01X-2941407Y-3895372D01*
G01X-2958658Y-3907451D01*
G01X-2973549Y-3922342D01*
G01X-2985628Y-3939593D01*
G01X-2994528Y-3958679D01*
G01X-2999978Y-3979021D01*
G01X-3001814Y-4000000D01*
G01X-3001814Y-4000000D01*
G01X-3014186Y-4000000D01*
G01X-3014186Y-3915000D01*
G01X-3015939Y-3903933D01*
G01X-3021026Y-3893949D01*
G01X-3028949Y-3886026D01*
G01X-3038933Y-3880939D01*
G01X-3050000Y-3879186D01*
G01X-3220000Y-3879186D01*
G01X-3231067Y-3880939D01*
G01X-3241051Y-3886026D01*
G01X-3248974Y-3893949D01*
G01X-3254061Y-3903933D01*
G01X-3255814Y-3915000D01*
G01X-3694186Y-3915000D01*
G01X-3694186Y-2933700D01*
G01X365486Y-2933700D01*
G01X367185Y-2948615D01*
G01X372195Y-2962766D01*
G01X380260Y-2975428D01*
G01X390966Y-2985951D01*
G01X403764Y-2993796D01*
G01X417999Y-2998562D01*
G01X432942Y-3000004D01*
G01X447825Y-2998049D01*
G01X461888Y-2992795D01*
G01X474409Y-2984514D01*
G01X5463249Y-2984514D01*
G01X5470880Y-2998118D01*
G01X5481478Y-3009564D01*
G01X5494456Y-3018218D01*
G01X5509096Y-3023600D01*
G01X5524589Y-3025414D01*
G01X5540076Y-3023559D01*
G01X5554702Y-3018137D01*
G01X5567657Y-3009449D01*
G01X5578224Y-2997975D01*
G01X5585819Y-2984350D01*
G01X5590020Y-2969328D01*
G01X5590597Y-2953741D01*
G01X5587517Y-2938449D01*
G01X5580950Y-2924301D01*
G01X5571259Y-2912077D01*
G01X5558982Y-2902456D01*
G01X5544796Y-2895968D01*
G01X5529488Y-2892974D01*
G01X5520161Y-2887456D01*
G01X5509875Y-2884042D01*
G01X5499100Y-2882886D01*
G01X474409Y-2882886D01*
G01X461888Y-2874605D01*
G01X447825Y-2869351D01*
G01X432942Y-2867396D01*
G01X417999Y-2868838D01*
G01X403764Y-2873604D01*
G01X390966Y-2881449D01*
G01X380260Y-2891972D01*
G01X372195Y-2904634D01*
G01X367185Y-2918785D01*
G01X365486Y-2933700D01*
G01X365486Y-2933700D01*
G01X-3694186Y-2933700D01*
G01X-3694186Y-2656314D01*
G01X-115320Y-2656314D01*
G01X-115320Y-2677686D01*
G01X-111393Y-2698694D01*
G01X-103672Y-2718623D01*
G01X-92421Y-2736793D01*
G01X-78023Y-2752587D01*
G01X-60968Y-2765467D01*
G01X-41837Y-2774993D01*
G01X-21281Y-2780842D01*
G01X0Y-2782814D01*
G01X21281Y-2780842D01*
G01X41837Y-2774993D01*
G01X60968Y-2765467D01*
G01X78023Y-2752587D01*
G01X92421Y-2736793D01*
G01X103672Y-2718623D01*
G01X111393Y-2698694D01*
G01X115320Y-2677686D01*
G01X115320Y-2656314D01*
G01X115320Y-2656314D01*
G01X2424680Y-2656314D01*
G01X2424680Y-2677686D01*
G01X2428607Y-2698694D01*
G01X2436328Y-2718623D01*
G01X2447579Y-2736793D01*
G01X2461977Y-2752587D01*
G01X2479032Y-2765467D01*
G01X2498163Y-2774993D01*
G01X2518719Y-2780842D01*
G01X2540000Y-2782814D01*
G01X2561281Y-2780842D01*
G01X2581837Y-2774993D01*
G01X2600968Y-2765467D01*
G01X2618023Y-2752587D01*
G01X2632421Y-2736793D01*
G01X2643672Y-2718623D01*
G01X2651393Y-2698694D01*
G01X2655320Y-2677686D01*
G01X2655320Y-2656314D01*
G01X2651393Y-2635306D01*
G01X2643672Y-2615377D01*
G01X2632421Y-2597207D01*
G01X2618023Y-2581413D01*
G01X2600968Y-2568533D01*
G01X2581837Y-2559007D01*
G01X2561281Y-2553158D01*
G01X2540000Y-2551186D01*
G01X2540000Y-2551186D01*
G01X2518719Y-2553158D01*
G01X2498163Y-2559007D01*
G01X2479032Y-2568533D01*
G01X2461977Y-2581413D01*
G01X2447579Y-2597207D01*
G01X2436328Y-2615377D01*
G01X2428607Y-2635306D01*
G01X2424680Y-2656314D01*
G01X115320Y-2656314D01*
G01X111393Y-2635306D01*
G01X103672Y-2615377D01*
G01X92421Y-2597207D01*
G01X78023Y-2581413D01*
G01X60968Y-2568533D01*
G01X41837Y-2559007D01*
G01X21281Y-2553158D01*
G01X0Y-2551186D01*
G01X0Y-2551186D01*
G01X-21281Y-2553158D01*
G01X-41837Y-2559007D01*
G01X-60968Y-2568533D01*
G01X-78023Y-2581413D01*
G01X-92421Y-2597207D01*
G01X-103672Y-2615377D01*
G01X-111393Y-2635306D01*
G01X-115320Y-2656314D01*
G01X-3694186Y-2656314D01*
G01X-3694186Y-2402314D01*
G01X-115320Y-2402314D01*
G01X-115320Y-2423686D01*
G01X-111393Y-2444694D01*
G01X-103672Y-2464623D01*
G01X-92421Y-2482793D01*
G01X-78023Y-2498587D01*
G01X-60968Y-2511467D01*
G01X-41837Y-2520993D01*
G01X-21281Y-2526842D01*
G01X0Y-2528814D01*
G01X21281Y-2526842D01*
G01X41837Y-2520993D01*
G01X60968Y-2511467D01*
G01X78023Y-2498587D01*
G01X92421Y-2482793D01*
G01X103672Y-2464623D01*
G01X111393Y-2444694D01*
G01X115320Y-2423686D01*
G01X115320Y-2402314D01*
G01X115320Y-2402314D01*
G01X2424680Y-2402314D01*
G01X2424680Y-2423686D01*
G01X2428607Y-2444694D01*
G01X2436328Y-2464623D01*
G01X2447579Y-2482793D01*
G01X2461977Y-2498587D01*
G01X2479032Y-2511467D01*
G01X2498163Y-2520993D01*
G01X2518719Y-2526842D01*
G01X2540000Y-2528814D01*
G01X2561281Y-2526842D01*
G01X2581837Y-2520993D01*
G01X2600968Y-2511467D01*
G01X2618023Y-2498587D01*
G01X2632421Y-2482793D01*
G01X2643672Y-2464623D01*
G01X2651393Y-2444694D01*
G01X2655320Y-2423686D01*
G01X2655320Y-2402314D01*
G01X2651393Y-2381306D01*
G01X2643672Y-2361377D01*
G01X2632421Y-2343207D01*
G01X2618023Y-2327413D01*
G01X2600968Y-2314533D01*
G01X2581837Y-2305007D01*
G01X2561281Y-2299158D01*
G01X2540000Y-2297186D01*
G01X2540000Y-2297186D01*
G01X2518719Y-2299158D01*
G01X2498163Y-2305007D01*
G01X2479032Y-2314533D01*
G01X2461977Y-2327413D01*
G01X2447579Y-2343207D01*
G01X2436328Y-2361377D01*
G01X2428607Y-2381306D01*
G01X2424680Y-2402314D01*
G01X115320Y-2402314D01*
G01X111393Y-2381306D01*
G01X103672Y-2361377D01*
G01X92421Y-2343207D01*
G01X78023Y-2327413D01*
G01X60968Y-2314533D01*
G01X41837Y-2305007D01*
G01X21281Y-2299158D01*
G01X0Y-2297186D01*
G01X0Y-2297186D01*
G01X-21281Y-2299158D01*
G01X-41837Y-2305007D01*
G01X-60968Y-2314533D01*
G01X-78023Y-2327413D01*
G01X-92421Y-2343207D01*
G01X-103672Y-2361377D01*
G01X-111393Y-2381306D01*
G01X-115320Y-2402314D01*
G01X-3694186Y-2402314D01*
G01X-3694186Y-2148314D01*
G01X-115320Y-2148314D01*
G01X-115320Y-2169686D01*
G01X-111393Y-2190694D01*
G01X-103672Y-2210623D01*
G01X-92421Y-2228793D01*
G01X-78023Y-2244587D01*
G01X-60968Y-2257467D01*
G01X-41837Y-2266993D01*
G01X-21281Y-2272842D01*
G01X0Y-2274814D01*
G01X21281Y-2272842D01*
G01X41837Y-2266993D01*
G01X60968Y-2257467D01*
G01X78023Y-2244587D01*
G01X92421Y-2228793D01*
G01X103672Y-2210623D01*
G01X111393Y-2190694D01*
G01X115320Y-2169686D01*
G01X115320Y-2148314D01*
G01X115320Y-2148314D01*
G01X2424680Y-2148314D01*
G01X2424680Y-2169686D01*
G01X2428607Y-2190694D01*
G01X2436328Y-2210623D01*
G01X2447579Y-2228793D01*
G01X2461977Y-2244587D01*
G01X2479032Y-2257467D01*
G01X2498163Y-2266993D01*
G01X2518719Y-2272842D01*
G01X2540000Y-2274814D01*
G01X2561281Y-2272842D01*
G01X2581837Y-2266993D01*
G01X2600968Y-2257467D01*
G01X2618023Y-2244587D01*
G01X2632421Y-2228793D01*
G01X2643672Y-2210623D01*
G01X2651393Y-2190694D01*
G01X2655320Y-2169686D01*
G01X2655320Y-2148314D01*
G01X2651393Y-2127306D01*
G01X2643672Y-2107377D01*
G01X2632421Y-2089207D01*
G01X2618023Y-2073413D01*
G01X2600968Y-2060533D01*
G01X2581837Y-2051007D01*
G01X2561281Y-2045158D01*
G01X2540000Y-2043186D01*
G01X2540000Y-2043186D01*
G01X2518719Y-2045158D01*
G01X2498163Y-2051007D01*
G01X2479032Y-2060533D01*
G01X2461977Y-2073413D01*
G01X2447579Y-2089207D01*
G01X2436328Y-2107377D01*
G01X2428607Y-2127306D01*
G01X2424680Y-2148314D01*
G01X115320Y-2148314D01*
G01X111393Y-2127306D01*
G01X103672Y-2107377D01*
G01X92421Y-2089207D01*
G01X78023Y-2073413D01*
G01X60968Y-2060533D01*
G01X41837Y-2051007D01*
G01X21281Y-2045158D01*
G01X0Y-2043186D01*
G01X0Y-2043186D01*
G01X-21281Y-2045158D01*
G01X-41837Y-2051007D01*
G01X-60968Y-2060533D01*
G01X-78023Y-2073413D01*
G01X-92421Y-2089207D01*
G01X-103672Y-2107377D01*
G01X-111393Y-2127306D01*
G01X-115320Y-2148314D01*
G01X-3694186Y-2148314D01*
G01X-3694186Y-1894314D01*
G01X-115320Y-1894314D01*
G01X-115320Y-1915686D01*
G01X-111393Y-1936694D01*
G01X-103672Y-1956623D01*
G01X-92421Y-1974793D01*
G01X-78023Y-1990587D01*
G01X-60968Y-2003467D01*
G01X-41837Y-2012993D01*
G01X-21281Y-2018842D01*
G01X0Y-2020814D01*
G01X21281Y-2018842D01*
G01X41837Y-2012993D01*
G01X60968Y-2003467D01*
G01X78023Y-1990587D01*
G01X92421Y-1974793D01*
G01X103672Y-1956623D01*
G01X111393Y-1936694D01*
G01X115320Y-1915686D01*
G01X115320Y-1894314D01*
G01X115320Y-1894314D01*
G01X2424680Y-1894314D01*
G01X2424680Y-1915686D01*
G01X2428607Y-1936694D01*
G01X2436328Y-1956623D01*
G01X2447579Y-1974793D01*
G01X2461977Y-1990587D01*
G01X2479032Y-2003467D01*
G01X2498163Y-2012993D01*
G01X2518719Y-2018842D01*
G01X2540000Y-2020814D01*
G01X2561281Y-2018842D01*
G01X2581837Y-2012993D01*
G01X2600968Y-2003467D01*
G01X2618023Y-1990587D01*
G01X2632421Y-1974793D01*
G01X2643672Y-1956623D01*
G01X2651393Y-1936694D01*
G01X2655320Y-1915686D01*
G01X2655320Y-1894314D01*
G01X2651393Y-1873306D01*
G01X2643672Y-1853377D01*
G01X2632421Y-1835207D01*
G01X2618023Y-1819413D01*
G01X2600968Y-1806533D01*
G01X2581837Y-1797007D01*
G01X2561281Y-1791158D01*
G01X2540000Y-1789186D01*
G01X2540000Y-1789186D01*
G01X2518719Y-1791158D01*
G01X2498163Y-1797007D01*
G01X2479032Y-1806533D01*
G01X2461977Y-1819413D01*
G01X2447579Y-1835207D01*
G01X2436328Y-1853377D01*
G01X2428607Y-1873306D01*
G01X2424680Y-1894314D01*
G01X115320Y-1894314D01*
G01X111393Y-1873306D01*
G01X103672Y-1853377D01*
G01X92421Y-1835207D01*
G01X78023Y-1819413D01*
G01X60968Y-1806533D01*
G01X41837Y-1797007D01*
G01X21281Y-1791158D01*
G01X0Y-1789186D01*
G01X0Y-1789186D01*
G01X-21281Y-1791158D01*
G01X-41837Y-1797007D01*
G01X-60968Y-1806533D01*
G01X-78023Y-1819413D01*
G01X-92421Y-1835207D01*
G01X-103672Y-1853377D01*
G01X-111393Y-1873306D01*
G01X-115320Y-1894314D01*
G01X-3694186Y-1894314D01*
G01X-3694186Y-1640314D01*
G01X-115320Y-1640314D01*
G01X-115320Y-1661686D01*
G01X-111393Y-1682694D01*
G01X-103672Y-1702623D01*
G01X-92421Y-1720793D01*
G01X-78023Y-1736587D01*
G01X-60968Y-1749467D01*
G01X-41837Y-1758993D01*
G01X-21281Y-1764842D01*
G01X0Y-1766814D01*
G01X21281Y-1764842D01*
G01X41837Y-1758993D01*
G01X60968Y-1749467D01*
G01X78023Y-1736587D01*
G01X92421Y-1720793D01*
G01X103672Y-1702623D01*
G01X111393Y-1682694D01*
G01X115320Y-1661686D01*
G01X115320Y-1640314D01*
G01X115320Y-1640314D01*
G01X2424680Y-1640314D01*
G01X2424680Y-1661686D01*
G01X2428607Y-1682694D01*
G01X2436328Y-1702623D01*
G01X2447579Y-1720793D01*
G01X2461977Y-1736587D01*
G01X2479032Y-1749467D01*
G01X2498163Y-1758993D01*
G01X2518719Y-1764842D01*
G01X2540000Y-1766814D01*
G01X2561281Y-1764842D01*
G01X2581837Y-1758993D01*
G01X2600968Y-1749467D01*
G01X2618023Y-1736587D01*
G01X2632421Y-1720793D01*
G01X2643672Y-1702623D01*
G01X2651393Y-1682694D01*
G01X2655320Y-1661686D01*
G01X2655320Y-1640314D01*
G01X2651393Y-1619306D01*
G01X2643672Y-1599377D01*
G01X2632421Y-1581207D01*
G01X2618023Y-1565413D01*
G01X2600968Y-1552533D01*
G01X2581837Y-1543007D01*
G01X2561281Y-1537158D01*
G01X2540000Y-1535186D01*
G01X2540000Y-1535186D01*
G01X2518719Y-1537158D01*
G01X2498163Y-1543007D01*
G01X2479032Y-1552533D01*
G01X2461977Y-1565413D01*
G01X2447579Y-1581207D01*
G01X2436328Y-1599377D01*
G01X2428607Y-1619306D01*
G01X2424680Y-1640314D01*
G01X115320Y-1640314D01*
G01X111393Y-1619306D01*
G01X103672Y-1599377D01*
G01X92421Y-1581207D01*
G01X78023Y-1565413D01*
G01X60968Y-1552533D01*
G01X41837Y-1543007D01*
G01X21281Y-1537158D01*
G01X0Y-1535186D01*
G01X0Y-1535186D01*
G01X-21281Y-1537158D01*
G01X-41837Y-1543007D01*
G01X-60968Y-1552533D01*
G01X-78023Y-1565413D01*
G01X-92421Y-1581207D01*
G01X-103672Y-1599377D01*
G01X-111393Y-1619306D01*
G01X-115320Y-1640314D01*
G01X-3694186Y-1640314D01*
G01X-3694186Y-1386314D01*
G01X-115320Y-1386314D01*
G01X-115320Y-1407686D01*
G01X-111393Y-1428694D01*
G01X-103672Y-1448623D01*
G01X-92421Y-1466793D01*
G01X-78023Y-1482587D01*
G01X-60968Y-1495467D01*
G01X-41837Y-1504993D01*
G01X-21281Y-1510842D01*
G01X0Y-1512814D01*
G01X21281Y-1510842D01*
G01X41837Y-1504993D01*
G01X60968Y-1495467D01*
G01X78023Y-1482587D01*
G01X92421Y-1466793D01*
G01X103672Y-1448623D01*
G01X111393Y-1428694D01*
G01X115320Y-1407686D01*
G01X115320Y-1386314D01*
G01X115320Y-1386314D01*
G01X2424680Y-1386314D01*
G01X2424680Y-1407686D01*
G01X2428607Y-1428694D01*
G01X2436328Y-1448623D01*
G01X2447579Y-1466793D01*
G01X2461977Y-1482587D01*
G01X2479032Y-1495467D01*
G01X2498163Y-1504993D01*
G01X2518719Y-1510842D01*
G01X2540000Y-1512814D01*
G01X2561281Y-1510842D01*
G01X2581837Y-1504993D01*
G01X2600968Y-1495467D01*
G01X2618023Y-1482587D01*
G01X2632421Y-1466793D01*
G01X2643672Y-1448623D01*
G01X2651393Y-1428694D01*
G01X2655320Y-1407686D01*
G01X2655320Y-1386314D01*
G01X2651393Y-1365306D01*
G01X2643672Y-1345377D01*
G01X2632421Y-1327207D01*
G01X2618023Y-1311413D01*
G01X2600968Y-1298533D01*
G01X2581837Y-1289007D01*
G01X2561281Y-1283158D01*
G01X2540000Y-1281186D01*
G01X2540000Y-1281186D01*
G01X2518719Y-1283158D01*
G01X2498163Y-1289007D01*
G01X2479032Y-1298533D01*
G01X2461977Y-1311413D01*
G01X2447579Y-1327207D01*
G01X2436328Y-1345377D01*
G01X2428607Y-1365306D01*
G01X2424680Y-1386314D01*
G01X115320Y-1386314D01*
G01X111393Y-1365306D01*
G01X103672Y-1345377D01*
G01X92421Y-1327207D01*
G01X78023Y-1311413D01*
G01X60968Y-1298533D01*
G01X41837Y-1289007D01*
G01X21281Y-1283158D01*
G01X0Y-1281186D01*
G01X0Y-1281186D01*
G01X-21281Y-1283158D01*
G01X-41837Y-1289007D01*
G01X-60968Y-1298533D01*
G01X-78023Y-1311413D01*
G01X-92421Y-1327207D01*
G01X-103672Y-1345377D01*
G01X-111393Y-1365306D01*
G01X-115320Y-1386314D01*
G01X-3694186Y-1386314D01*
G01X-3694186Y-1132314D01*
G01X-115320Y-1132314D01*
G01X-115320Y-1153686D01*
G01X-111393Y-1174694D01*
G01X-103672Y-1194623D01*
G01X-92421Y-1212793D01*
G01X-78023Y-1228587D01*
G01X-60968Y-1241467D01*
G01X-41837Y-1250993D01*
G01X-21281Y-1256842D01*
G01X0Y-1258814D01*
G01X21281Y-1256842D01*
G01X41837Y-1250993D01*
G01X60968Y-1241467D01*
G01X78023Y-1228587D01*
G01X92421Y-1212793D01*
G01X103672Y-1194623D01*
G01X111393Y-1174694D01*
G01X115320Y-1153686D01*
G01X115320Y-1132314D01*
G01X115320Y-1132314D01*
G01X2424680Y-1132314D01*
G01X2424680Y-1153686D01*
G01X2428607Y-1174694D01*
G01X2436328Y-1194623D01*
G01X2447579Y-1212793D01*
G01X2461977Y-1228587D01*
G01X2479032Y-1241467D01*
G01X2498163Y-1250993D01*
G01X2518719Y-1256842D01*
G01X2540000Y-1258814D01*
G01X2561281Y-1256842D01*
G01X2581837Y-1250993D01*
G01X2600968Y-1241467D01*
G01X2618023Y-1228587D01*
G01X2632421Y-1212793D01*
G01X2643672Y-1194623D01*
G01X2651393Y-1174694D01*
G01X2655320Y-1153686D01*
G01X2655320Y-1132314D01*
G01X2651393Y-1111306D01*
G01X2643672Y-1091377D01*
G01X2632421Y-1073207D01*
G01X2618023Y-1057413D01*
G01X2600968Y-1044533D01*
G01X2581837Y-1035007D01*
G01X2561281Y-1029158D01*
G01X2540000Y-1027186D01*
G01X2540000Y-1027186D01*
G01X2518719Y-1029158D01*
G01X2498163Y-1035007D01*
G01X2479032Y-1044533D01*
G01X2461977Y-1057413D01*
G01X2447579Y-1073207D01*
G01X2436328Y-1091377D01*
G01X2428607Y-1111306D01*
G01X2424680Y-1132314D01*
G01X115320Y-1132314D01*
G01X111393Y-1111306D01*
G01X103672Y-1091377D01*
G01X92421Y-1073207D01*
G01X78023Y-1057413D01*
G01X60968Y-1044533D01*
G01X41837Y-1035007D01*
G01X21281Y-1029158D01*
G01X0Y-1027186D01*
G01X0Y-1027186D01*
G01X-21281Y-1029158D01*
G01X-41837Y-1035007D01*
G01X-60968Y-1044533D01*
G01X-78023Y-1057413D01*
G01X-92421Y-1073207D01*
G01X-103672Y-1091377D01*
G01X-111393Y-1111306D01*
G01X-115320Y-1132314D01*
G01X-3694186Y-1132314D01*
G01X-3694186Y-878314D01*
G01X-115320Y-878314D01*
G01X-115320Y-899686D01*
G01X-111393Y-920694D01*
G01X-103672Y-940623D01*
G01X-92421Y-958793D01*
G01X-78023Y-974587D01*
G01X-60968Y-987467D01*
G01X-41837Y-996993D01*
G01X-21281Y-1002842D01*
G01X0Y-1004814D01*
G01X21281Y-1002842D01*
G01X41837Y-996993D01*
G01X60968Y-987467D01*
G01X78023Y-974587D01*
G01X92421Y-958793D01*
G01X103672Y-940623D01*
G01X111393Y-920694D01*
G01X115320Y-899686D01*
G01X115320Y-889000D01*
G01X416286Y-889000D01*
G01X417985Y-903915D01*
G01X422995Y-918066D01*
G01X431060Y-930728D01*
G01X441766Y-941251D01*
G01X454564Y-949096D01*
G01X468799Y-953862D01*
G01X483742Y-955304D01*
G01X498625Y-953349D01*
G01X512688Y-948095D01*
G01X525209Y-939814D01*
G01X986091Y-939814D01*
G01X998612Y-948095D01*
G01X1012675Y-953349D01*
G01X1027558Y-955304D01*
G01X1042501Y-953862D01*
G01X1056736Y-949096D01*
G01X1069534Y-941251D01*
G01X1080240Y-930728D01*
G01X1088305Y-918066D01*
G01X1093315Y-903915D01*
G01X1095014Y-889000D01*
G01X1093797Y-878314D01*
G01X2424680Y-878314D01*
G01X2424680Y-899686D01*
G01X2428607Y-920694D01*
G01X2436328Y-940623D01*
G01X2447579Y-958793D01*
G01X2461977Y-974587D01*
G01X2479032Y-987467D01*
G01X2498163Y-996993D01*
G01X2518719Y-1002842D01*
G01X2540000Y-1004814D01*
G01X2561281Y-1002842D01*
G01X2581837Y-996993D01*
G01X2600968Y-987467D01*
G01X2618023Y-974587D01*
G01X2632421Y-958793D01*
G01X2643672Y-940623D01*
G01X2651393Y-920694D01*
G01X2655320Y-899686D01*
G01X2655320Y-878314D01*
G01X2651393Y-857306D01*
G01X2643672Y-837377D01*
G01X2632421Y-819207D01*
G01X2618023Y-803413D01*
G01X2600968Y-790533D01*
G01X2581837Y-781007D01*
G01X2561281Y-775158D01*
G01X2540000Y-773186D01*
G01X2540000Y-773186D01*
G01X2518719Y-775158D01*
G01X2498163Y-781007D01*
G01X2479032Y-790533D01*
G01X2461977Y-803413D01*
G01X2447579Y-819207D01*
G01X2436328Y-837377D01*
G01X2428607Y-857306D01*
G01X2424680Y-878314D01*
G01X1093797Y-878314D01*
G01X1093315Y-874085D01*
G01X1088305Y-859934D01*
G01X1080240Y-847272D01*
G01X1069534Y-836749D01*
G01X1056736Y-828904D01*
G01X1042501Y-824138D01*
G01X1027558Y-822696D01*
G01X1012675Y-824651D01*
G01X998612Y-829905D01*
G01X986091Y-838186D01*
G01X525209Y-838186D01*
G01X512688Y-829905D01*
G01X498625Y-824651D01*
G01X483742Y-822696D01*
G01X468799Y-824138D01*
G01X454564Y-828904D01*
G01X441766Y-836749D01*
G01X431060Y-847272D01*
G01X422995Y-859934D01*
G01X417985Y-874085D01*
G01X416286Y-889000D01*
G01X416286Y-889000D01*
G01X115320Y-889000D01*
G01X115320Y-878314D01*
G01X111393Y-857306D01*
G01X103672Y-837377D01*
G01X92421Y-819207D01*
G01X78023Y-803413D01*
G01X60968Y-790533D01*
G01X41837Y-781007D01*
G01X21281Y-775158D01*
G01X0Y-773186D01*
G01X0Y-773186D01*
G01X-21281Y-775158D01*
G01X-41837Y-781007D01*
G01X-60968Y-790533D01*
G01X-78023Y-803413D01*
G01X-92421Y-819207D01*
G01X-103672Y-837377D01*
G01X-111393Y-857306D01*
G01X-115320Y-878314D01*
G01X-3694186Y-878314D01*
G01X-3694186Y-624314D01*
G01X-115320Y-624314D01*
G01X-115320Y-645686D01*
G01X-111393Y-666694D01*
G01X-103672Y-686623D01*
G01X-92421Y-704793D01*
G01X-78023Y-720587D01*
G01X-60968Y-733467D01*
G01X-41837Y-742993D01*
G01X-21281Y-748842D01*
G01X0Y-750814D01*
G01X21281Y-748842D01*
G01X41837Y-742993D01*
G01X60968Y-733467D01*
G01X78023Y-720587D01*
G01X92421Y-704793D01*
G01X103672Y-686623D01*
G01X111393Y-666694D01*
G01X115320Y-645686D01*
G01X115320Y-624314D01*
G01X115320Y-624314D01*
G01X2424680Y-624314D01*
G01X2424680Y-645686D01*
G01X2428607Y-666694D01*
G01X2436328Y-686623D01*
G01X2447579Y-704793D01*
G01X2461977Y-720587D01*
G01X2479032Y-733467D01*
G01X2498163Y-742993D01*
G01X2518719Y-748842D01*
G01X2540000Y-750814D01*
G01X2561281Y-748842D01*
G01X2581837Y-742993D01*
G01X2600968Y-733467D01*
G01X2618023Y-720587D01*
G01X2632421Y-704793D01*
G01X2643672Y-686623D01*
G01X2651393Y-666694D01*
G01X2655320Y-645686D01*
G01X2655320Y-624314D01*
G01X2651393Y-603306D01*
G01X2643672Y-583377D01*
G01X2632421Y-565207D01*
G01X2618023Y-549413D01*
G01X2600968Y-536533D01*
G01X2581837Y-527007D01*
G01X2561281Y-521158D01*
G01X2540000Y-519186D01*
G01X2540000Y-519186D01*
G01X2518719Y-521158D01*
G01X2498163Y-527007D01*
G01X2479032Y-536533D01*
G01X2461977Y-549413D01*
G01X2447579Y-565207D01*
G01X2436328Y-583377D01*
G01X2428607Y-603306D01*
G01X2424680Y-624314D01*
G01X115320Y-624314D01*
G01X111393Y-603306D01*
G01X103672Y-583377D01*
G01X92421Y-565207D01*
G01X78023Y-549413D01*
G01X60968Y-536533D01*
G01X41837Y-527007D01*
G01X21281Y-521158D01*
G01X0Y-519186D01*
G01X0Y-519186D01*
G01X-21281Y-521158D01*
G01X-41837Y-527007D01*
G01X-60968Y-536533D01*
G01X-78023Y-549413D01*
G01X-92421Y-565207D01*
G01X-103672Y-583377D01*
G01X-111393Y-603306D01*
G01X-115320Y-624314D01*
G01X-3694186Y-624314D01*
G01X-3694186Y-370314D01*
G01X-115320Y-370314D01*
G01X-115320Y-391686D01*
G01X-111393Y-412694D01*
G01X-103672Y-432623D01*
G01X-92421Y-450793D01*
G01X-78023Y-466587D01*
G01X-60968Y-479467D01*
G01X-41837Y-488993D01*
G01X-21281Y-494842D01*
G01X0Y-496814D01*
G01X21281Y-494842D01*
G01X41837Y-488993D01*
G01X60968Y-479467D01*
G01X78023Y-466587D01*
G01X92421Y-450793D01*
G01X103672Y-432623D01*
G01X111393Y-412694D01*
G01X115320Y-391686D01*
G01X115320Y-370314D01*
G01X115320Y-370314D01*
G01X2424680Y-370314D01*
G01X2424680Y-391686D01*
G01X2428607Y-412694D01*
G01X2436328Y-432623D01*
G01X2447579Y-450793D01*
G01X2461977Y-466587D01*
G01X2479032Y-479467D01*
G01X2498163Y-488993D01*
G01X2518719Y-494842D01*
G01X2540000Y-496814D01*
G01X2561281Y-494842D01*
G01X2581837Y-488993D01*
G01X2600968Y-479467D01*
G01X2618023Y-466587D01*
G01X2632421Y-450793D01*
G01X2643672Y-432623D01*
G01X2651393Y-412694D01*
G01X2655320Y-391686D01*
G01X2655320Y-370314D01*
G01X2651393Y-349306D01*
G01X2643672Y-329377D01*
G01X2632421Y-311207D01*
G01X2618023Y-295413D01*
G01X2600968Y-282533D01*
G01X2581837Y-273007D01*
G01X2561281Y-267158D01*
G01X2540000Y-265186D01*
G01X2540000Y-265186D01*
G01X2518719Y-267158D01*
G01X2498163Y-273007D01*
G01X2479032Y-282533D01*
G01X2461977Y-295413D01*
G01X2447579Y-311207D01*
G01X2436328Y-329377D01*
G01X2428607Y-349306D01*
G01X2424680Y-370314D01*
G01X115320Y-370314D01*
G01X111393Y-349306D01*
G01X103672Y-329377D01*
G01X92421Y-311207D01*
G01X78023Y-295413D01*
G01X60968Y-282533D01*
G01X41837Y-273007D01*
G01X21281Y-267158D01*
G01X0Y-265186D01*
G01X0Y-265186D01*
G01X-21281Y-267158D01*
G01X-41837Y-273007D01*
G01X-60968Y-282533D01*
G01X-78023Y-295413D01*
G01X-92421Y-311207D01*
G01X-103672Y-329377D01*
G01X-111393Y-349306D01*
G01X-115320Y-370314D01*
G01X-3694186Y-370314D01*
G01X-3694186Y-116314D01*
G01X-115320Y-116314D01*
G01X-115320Y-137686D01*
G01X-111393Y-158694D01*
G01X-103672Y-178623D01*
G01X-92421Y-196793D01*
G01X-78023Y-212587D01*
G01X-60968Y-225467D01*
G01X-41837Y-234993D01*
G01X-21281Y-240842D01*
G01X0Y-242814D01*
G01X21281Y-240842D01*
G01X41837Y-234993D01*
G01X60968Y-225467D01*
G01X78023Y-212587D01*
G01X92421Y-196793D01*
G01X103672Y-178623D01*
G01X111393Y-158694D01*
G01X115320Y-137686D01*
G01X115320Y-116314D01*
G01X115320Y-116314D01*
G01X2424680Y-116314D01*
G01X2424680Y-137686D01*
G01X2428607Y-158694D01*
G01X2436328Y-178623D01*
G01X2447579Y-196793D01*
G01X2461977Y-212587D01*
G01X2479032Y-225467D01*
G01X2498163Y-234993D01*
G01X2518719Y-240842D01*
G01X2540000Y-242814D01*
G01X2561281Y-240842D01*
G01X2581837Y-234993D01*
G01X2600968Y-225467D01*
G01X2618023Y-212587D01*
G01X2632421Y-196793D01*
G01X2643672Y-178623D01*
G01X2651393Y-158694D01*
G01X2655320Y-137686D01*
G01X2655320Y-116314D01*
G01X2651393Y-95306D01*
G01X2643672Y-75377D01*
G01X2632421Y-57207D01*
G01X2618023Y-41413D01*
G01X2600968Y-28533D01*
G01X2581837Y-19007D01*
G01X2561281Y-13158D01*
G01X2540000Y-11186D01*
G01X2540000Y-11186D01*
G01X2518719Y-13158D01*
G01X2498163Y-19007D01*
G01X2479032Y-28533D01*
G01X2461977Y-41413D01*
G01X2447579Y-57207D01*
G01X2436328Y-75377D01*
G01X2428607Y-95306D01*
G01X2424680Y-116314D01*
G01X115320Y-116314D01*
G01X111393Y-95306D01*
G01X103672Y-75377D01*
G01X92421Y-57207D01*
G01X78023Y-41413D01*
G01X60968Y-28533D01*
G01X41837Y-19007D01*
G01X21281Y-13158D01*
G01X0Y-11186D01*
G01X0Y-11186D01*
G01X-21281Y-13158D01*
G01X-41837Y-19007D01*
G01X-60968Y-28533D01*
G01X-78023Y-41413D01*
G01X-92421Y-57207D01*
G01X-103672Y-75377D01*
G01X-111393Y-95306D01*
G01X-115320Y-116314D01*
G01X-3694186Y-116314D01*
G01X-3694186Y137686D01*
G01X-115320Y137686D01*
G01X-115320Y116314D01*
G01X-111393Y95306D01*
G01X-103672Y75377D01*
G01X-92421Y57207D01*
G01X-78023Y41413D01*
G01X-60968Y28533D01*
G01X-41837Y19007D01*
G01X-21281Y13158D01*
G01X0Y11186D01*
G01X21281Y13158D01*
G01X41837Y19007D01*
G01X60968Y28533D01*
G01X78023Y41413D01*
G01X92421Y57207D01*
G01X103672Y75377D01*
G01X111393Y95306D01*
G01X115320Y116314D01*
G01X115320Y137686D01*
G01X115320Y137686D01*
G01X2424680Y137686D01*
G01X2424680Y116314D01*
G01X2428607Y95306D01*
G01X2436328Y75377D01*
G01X2447579Y57207D01*
G01X2461977Y41413D01*
G01X2479032Y28533D01*
G01X2498163Y19007D01*
G01X2518719Y13158D01*
G01X2540000Y11186D01*
G01X2561281Y13158D01*
G01X2581837Y19007D01*
G01X2600968Y28533D01*
G01X2618023Y41413D01*
G01X2632421Y57207D01*
G01X2643672Y75377D01*
G01X2651393Y95306D01*
G01X2655320Y116314D01*
G01X2655320Y137686D01*
G01X2651393Y158694D01*
G01X2643672Y178623D01*
G01X2632421Y196793D01*
G01X2618023Y212587D01*
G01X2600968Y225467D01*
G01X2581837Y234993D01*
G01X2561281Y240842D01*
G01X2540000Y242814D01*
G01X2540000Y242814D01*
G01X2518719Y240842D01*
G01X2498163Y234993D01*
G01X2479032Y225467D01*
G01X2461977Y212587D01*
G01X2447579Y196793D01*
G01X2436328Y178623D01*
G01X2428607Y158694D01*
G01X2424680Y137686D01*
G01X115320Y137686D01*
G01X111393Y158694D01*
G01X103672Y178623D01*
G01X92421Y196793D01*
G01X78023Y212587D01*
G01X60968Y225467D01*
G01X41837Y234993D01*
G01X21281Y240842D01*
G01X0Y242814D01*
G01X0Y242814D01*
G01X-21281Y240842D01*
G01X-41837Y234993D01*
G01X-60968Y225467D01*
G01X-78023Y212587D01*
G01X-92421Y196793D01*
G01X-103672Y178623D01*
G01X-111393Y158694D01*
G01X-115320Y137686D01*
G01X-3694186Y137686D01*
G01X-3694186Y391686D01*
G01X-115320Y391686D01*
G01X-115320Y370314D01*
G01X-111393Y349306D01*
G01X-103672Y329377D01*
G01X-92421Y311207D01*
G01X-78023Y295413D01*
G01X-60968Y282533D01*
G01X-41837Y273007D01*
G01X-21281Y267158D01*
G01X0Y265186D01*
G01X21281Y267158D01*
G01X41837Y273007D01*
G01X60968Y282533D01*
G01X78023Y295413D01*
G01X92421Y311207D01*
G01X103672Y329377D01*
G01X111393Y349306D01*
G01X115320Y370314D01*
G01X115320Y391686D01*
G01X115320Y391686D01*
G01X2424680Y391686D01*
G01X2424680Y370314D01*
G01X2428607Y349306D01*
G01X2436328Y329377D01*
G01X2447579Y311207D01*
G01X2461977Y295413D01*
G01X2479032Y282533D01*
G01X2498163Y273007D01*
G01X2518719Y267158D01*
G01X2540000Y265186D01*
G01X2561281Y267158D01*
G01X2581837Y273007D01*
G01X2600968Y282533D01*
G01X2618023Y295413D01*
G01X2632421Y311207D01*
G01X2643672Y329377D01*
G01X2651393Y349306D01*
G01X2655320Y370314D01*
G01X2655320Y391686D01*
G01X2651393Y412694D01*
G01X2643672Y432623D01*
G01X2632421Y450793D01*
G01X2618023Y466587D01*
G01X2600968Y479467D01*
G01X2581837Y488993D01*
G01X2561281Y494842D01*
G01X2540000Y496814D01*
G01X2540000Y496814D01*
G01X2518719Y494842D01*
G01X2498163Y488993D01*
G01X2479032Y479467D01*
G01X2461977Y466587D01*
G01X2447579Y450793D01*
G01X2436328Y432623D01*
G01X2428607Y412694D01*
G01X2424680Y391686D01*
G01X115320Y391686D01*
G01X111393Y412694D01*
G01X103672Y432623D01*
G01X92421Y450793D01*
G01X78023Y466587D01*
G01X60968Y479467D01*
G01X41837Y488993D01*
G01X21281Y494842D01*
G01X0Y496814D01*
G01X0Y496814D01*
G01X-21281Y494842D01*
G01X-41837Y488993D01*
G01X-60968Y479467D01*
G01X-78023Y466587D01*
G01X-92421Y450793D01*
G01X-103672Y432623D01*
G01X-111393Y412694D01*
G01X-115320Y391686D01*
G01X-3694186Y391686D01*
G01X-3694186Y645686D01*
G01X-115320Y645686D01*
G01X-115320Y624314D01*
G01X-111393Y603306D01*
G01X-103672Y583377D01*
G01X-92421Y565207D01*
G01X-78023Y549413D01*
G01X-60968Y536533D01*
G01X-41837Y527007D01*
G01X-21281Y521158D01*
G01X0Y519186D01*
G01X21281Y521158D01*
G01X41837Y527007D01*
G01X60968Y536533D01*
G01X78023Y549413D01*
G01X92421Y565207D01*
G01X103672Y583377D01*
G01X111393Y603306D01*
G01X115320Y624314D01*
G01X115320Y645686D01*
G01X115320Y645686D01*
G01X2424680Y645686D01*
G01X2424680Y624314D01*
G01X2428607Y603306D01*
G01X2436328Y583377D01*
G01X2447579Y565207D01*
G01X2461977Y549413D01*
G01X2479032Y536533D01*
G01X2498163Y527007D01*
G01X2518719Y521158D01*
G01X2540000Y519186D01*
G01X2561281Y521158D01*
G01X2581837Y527007D01*
G01X2600968Y536533D01*
G01X2618023Y549413D01*
G01X2632421Y565207D01*
G01X2643672Y583377D01*
G01X2651393Y603306D01*
G01X2655320Y624314D01*
G01X2655320Y645686D01*
G01X2651393Y666694D01*
G01X2643672Y686623D01*
G01X2632421Y704793D01*
G01X2618023Y720587D01*
G01X2600968Y733467D01*
G01X2581837Y742993D01*
G01X2561281Y748842D01*
G01X2540000Y750814D01*
G01X2540000Y750814D01*
G01X2518719Y748842D01*
G01X2498163Y742993D01*
G01X2479032Y733467D01*
G01X2461977Y720587D01*
G01X2447579Y704793D01*
G01X2436328Y686623D01*
G01X2428607Y666694D01*
G01X2424680Y645686D01*
G01X115320Y645686D01*
G01X111393Y666694D01*
G01X103672Y686623D01*
G01X92421Y704793D01*
G01X78023Y720587D01*
G01X60968Y733467D01*
G01X41837Y742993D01*
G01X21281Y748842D01*
G01X0Y750814D01*
G01X0Y750814D01*
G01X-21281Y748842D01*
G01X-41837Y742993D01*
G01X-60968Y733467D01*
G01X-78023Y720587D01*
G01X-92421Y704793D01*
G01X-103672Y686623D01*
G01X-111393Y666694D01*
G01X-115320Y645686D01*
G01X-3694186Y645686D01*
G01X-3694186Y899686D01*
G01X-115320Y899686D01*
G01X-115320Y878314D01*
G01X-111393Y857306D01*
G01X-103672Y837377D01*
G01X-92421Y819207D01*
G01X-78023Y803413D01*
G01X-60968Y790533D01*
G01X-41837Y781007D01*
G01X-21281Y775158D01*
G01X0Y773186D01*
G01X21281Y775158D01*
G01X41837Y781007D01*
G01X60968Y790533D01*
G01X78023Y803413D01*
G01X92421Y819207D01*
G01X103672Y837377D01*
G01X111393Y857306D01*
G01X115320Y878314D01*
G01X115320Y899686D01*
G01X115320Y899686D01*
G01X2424680Y899686D01*
G01X2424680Y878314D01*
G01X2428607Y857306D01*
G01X2436328Y837377D01*
G01X2447579Y819207D01*
G01X2461977Y803413D01*
G01X2479032Y790533D01*
G01X2498163Y781007D01*
G01X2518719Y775158D01*
G01X2540000Y773186D01*
G01X2561281Y775158D01*
G01X2581837Y781007D01*
G01X2600968Y790533D01*
G01X2618023Y803413D01*
G01X2632421Y819207D01*
G01X2643672Y837377D01*
G01X2651393Y857306D01*
G01X2655320Y878314D01*
G01X2655320Y899686D01*
G01X2651393Y920694D01*
G01X2643672Y940623D01*
G01X2632421Y958793D01*
G01X2618023Y974587D01*
G01X2600968Y987467D01*
G01X2581837Y996993D01*
G01X2561281Y1002842D01*
G01X2540000Y1004814D01*
G01X2540000Y1004814D01*
G01X2518719Y1002842D01*
G01X2498163Y996993D01*
G01X2479032Y987467D01*
G01X2461977Y974587D01*
G01X2447579Y958793D01*
G01X2436328Y940623D01*
G01X2428607Y920694D01*
G01X2424680Y899686D01*
G01X115320Y899686D01*
G01X111393Y920694D01*
G01X103672Y940623D01*
G01X92421Y958793D01*
G01X78023Y974587D01*
G01X60968Y987467D01*
G01X41837Y996993D01*
G01X21281Y1002842D01*
G01X0Y1004814D01*
G01X0Y1004814D01*
G01X-21281Y1002842D01*
G01X-41837Y996993D01*
G01X-60968Y987467D01*
G01X-78023Y974587D01*
G01X-92421Y958793D01*
G01X-103672Y940623D01*
G01X-111393Y920694D01*
G01X-115320Y899686D01*
G01X-3694186Y899686D01*
G01X-3694186Y1153686D01*
G01X-115320Y1153686D01*
G01X-115320Y1132314D01*
G01X-111393Y1111306D01*
G01X-103672Y1091377D01*
G01X-92421Y1073207D01*
G01X-78023Y1057413D01*
G01X-60968Y1044533D01*
G01X-41837Y1035007D01*
G01X-21281Y1029158D01*
G01X0Y1027186D01*
G01X21281Y1029158D01*
G01X41837Y1035007D01*
G01X60968Y1044533D01*
G01X78023Y1057413D01*
G01X92421Y1073207D01*
G01X103672Y1091377D01*
G01X111393Y1111306D01*
G01X115320Y1132314D01*
G01X115320Y1153686D01*
G01X115320Y1153686D01*
G01X2424680Y1153686D01*
G01X2424680Y1132314D01*
G01X2428607Y1111306D01*
G01X2436328Y1091377D01*
G01X2447579Y1073207D01*
G01X2461977Y1057413D01*
G01X2479032Y1044533D01*
G01X2498163Y1035007D01*
G01X2518719Y1029158D01*
G01X2540000Y1027186D01*
G01X2561281Y1029158D01*
G01X2581837Y1035007D01*
G01X2600968Y1044533D01*
G01X2618023Y1057413D01*
G01X2632421Y1073207D01*
G01X2643672Y1091377D01*
G01X2651393Y1111306D01*
G01X2655320Y1132314D01*
G01X2655320Y1153686D01*
G01X2651393Y1174694D01*
G01X2643672Y1194623D01*
G01X2632421Y1212793D01*
G01X2618023Y1228587D01*
G01X2600968Y1241467D01*
G01X2581837Y1250993D01*
G01X2561281Y1256842D01*
G01X2540000Y1258814D01*
G01X2540000Y1258814D01*
G01X2518719Y1256842D01*
G01X2498163Y1250993D01*
G01X2479032Y1241467D01*
G01X2461977Y1228587D01*
G01X2447579Y1212793D01*
G01X2436328Y1194623D01*
G01X2428607Y1174694D01*
G01X2424680Y1153686D01*
G01X115320Y1153686D01*
G01X111393Y1174694D01*
G01X103672Y1194623D01*
G01X92421Y1212793D01*
G01X78023Y1228587D01*
G01X60968Y1241467D01*
G01X41837Y1250993D01*
G01X21281Y1256842D01*
G01X0Y1258814D01*
G01X0Y1258814D01*
G01X-21281Y1256842D01*
G01X-41837Y1250993D01*
G01X-60968Y1241467D01*
G01X-78023Y1228587D01*
G01X-92421Y1212793D01*
G01X-103672Y1194623D01*
G01X-111393Y1174694D01*
G01X-115320Y1153686D01*
G01X-3694186Y1153686D01*
G01X-3694186Y1407686D01*
G01X-115320Y1407686D01*
G01X-115320Y1386314D01*
G01X-111393Y1365306D01*
G01X-103672Y1345377D01*
G01X-92421Y1327207D01*
G01X-78023Y1311413D01*
G01X-60968Y1298533D01*
G01X-41837Y1289007D01*
G01X-21281Y1283158D01*
G01X0Y1281186D01*
G01X21281Y1283158D01*
G01X41837Y1289007D01*
G01X60968Y1298533D01*
G01X78023Y1311413D01*
G01X92421Y1327207D01*
G01X103672Y1345377D01*
G01X111393Y1365306D01*
G01X115320Y1386314D01*
G01X115320Y1407686D01*
G01X115320Y1407686D01*
G01X2424680Y1407686D01*
G01X2424680Y1386314D01*
G01X2428607Y1365306D01*
G01X2436328Y1345377D01*
G01X2447579Y1327207D01*
G01X2461977Y1311413D01*
G01X2479032Y1298533D01*
G01X2498163Y1289007D01*
G01X2518719Y1283158D01*
G01X2540000Y1281186D01*
G01X2561281Y1283158D01*
G01X2581837Y1289007D01*
G01X2600968Y1298533D01*
G01X2618023Y1311413D01*
G01X2632421Y1327207D01*
G01X2643672Y1345377D01*
G01X2651393Y1365306D01*
G01X2655320Y1386314D01*
G01X2655320Y1407686D01*
G01X2651393Y1428694D01*
G01X2643672Y1448623D01*
G01X2632421Y1466793D01*
G01X2618023Y1482587D01*
G01X2600968Y1495467D01*
G01X2581837Y1504993D01*
G01X2561281Y1510842D01*
G01X2540000Y1512814D01*
G01X2540000Y1512814D01*
G01X2518719Y1510842D01*
G01X2498163Y1504993D01*
G01X2479032Y1495467D01*
G01X2461977Y1482587D01*
G01X2447579Y1466793D01*
G01X2436328Y1448623D01*
G01X2428607Y1428694D01*
G01X2424680Y1407686D01*
G01X115320Y1407686D01*
G01X111393Y1428694D01*
G01X103672Y1448623D01*
G01X92421Y1466793D01*
G01X78023Y1482587D01*
G01X60968Y1495467D01*
G01X41837Y1504993D01*
G01X21281Y1510842D01*
G01X0Y1512814D01*
G01X0Y1512814D01*
G01X-21281Y1510842D01*
G01X-41837Y1504993D01*
G01X-60968Y1495467D01*
G01X-78023Y1482587D01*
G01X-92421Y1466793D01*
G01X-103672Y1448623D01*
G01X-111393Y1428694D01*
G01X-115320Y1407686D01*
G01X-3694186Y1407686D01*
G01X-3694186Y1661686D01*
G01X-115320Y1661686D01*
G01X-115320Y1640314D01*
G01X-111393Y1619306D01*
G01X-103672Y1599377D01*
G01X-92421Y1581207D01*
G01X-78023Y1565413D01*
G01X-60968Y1552533D01*
G01X-41837Y1543007D01*
G01X-21281Y1537158D01*
G01X0Y1535186D01*
G01X21281Y1537158D01*
G01X41837Y1543007D01*
G01X60968Y1552533D01*
G01X78023Y1565413D01*
G01X92421Y1581207D01*
G01X103672Y1599377D01*
G01X111393Y1619306D01*
G01X115320Y1640314D01*
G01X115320Y1661686D01*
G01X115320Y1661686D01*
G01X2424680Y1661686D01*
G01X2424680Y1640314D01*
G01X2428607Y1619306D01*
G01X2436328Y1599377D01*
G01X2447579Y1581207D01*
G01X2461977Y1565413D01*
G01X2479032Y1552533D01*
G01X2498163Y1543007D01*
G01X2518719Y1537158D01*
G01X2540000Y1535186D01*
G01X2561281Y1537158D01*
G01X2581837Y1543007D01*
G01X2600968Y1552533D01*
G01X2618023Y1565413D01*
G01X2632421Y1581207D01*
G01X2643672Y1599377D01*
G01X2651393Y1619306D01*
G01X2655320Y1640314D01*
G01X2655320Y1661686D01*
G01X2651393Y1682694D01*
G01X2643672Y1702623D01*
G01X2632421Y1720793D01*
G01X2618023Y1736587D01*
G01X2600968Y1749467D01*
G01X2581837Y1758993D01*
G01X2561281Y1764842D01*
G01X2540000Y1766814D01*
G01X2540000Y1766814D01*
G01X2518719Y1764842D01*
G01X2498163Y1758993D01*
G01X2479032Y1749467D01*
G01X2461977Y1736587D01*
G01X2447579Y1720793D01*
G01X2436328Y1702623D01*
G01X2428607Y1682694D01*
G01X2424680Y1661686D01*
G01X115320Y1661686D01*
G01X111393Y1682694D01*
G01X103672Y1702623D01*
G01X92421Y1720793D01*
G01X78023Y1736587D01*
G01X60968Y1749467D01*
G01X41837Y1758993D01*
G01X21281Y1764842D01*
G01X0Y1766814D01*
G01X0Y1766814D01*
G01X-21281Y1764842D01*
G01X-41837Y1758993D01*
G01X-60968Y1749467D01*
G01X-78023Y1736587D01*
G01X-92421Y1720793D01*
G01X-103672Y1702623D01*
G01X-111393Y1682694D01*
G01X-115320Y1661686D01*
G01X-3694186Y1661686D01*
G01X-3694186Y1915686D01*
G01X-115320Y1915686D01*
G01X-115320Y1894314D01*
G01X-111393Y1873306D01*
G01X-103672Y1853377D01*
G01X-92421Y1835207D01*
G01X-78023Y1819413D01*
G01X-60968Y1806533D01*
G01X-41837Y1797007D01*
G01X-21281Y1791158D01*
G01X0Y1789186D01*
G01X21281Y1791158D01*
G01X41837Y1797007D01*
G01X60968Y1806533D01*
G01X78023Y1819413D01*
G01X92421Y1835207D01*
G01X103672Y1853377D01*
G01X111393Y1873306D01*
G01X115320Y1894314D01*
G01X115320Y1915686D01*
G01X115320Y1915686D01*
G01X2424680Y1915686D01*
G01X2424680Y1894314D01*
G01X2428607Y1873306D01*
G01X2436328Y1853377D01*
G01X2447579Y1835207D01*
G01X2461977Y1819413D01*
G01X2479032Y1806533D01*
G01X2498163Y1797007D01*
G01X2518719Y1791158D01*
G01X2540000Y1789186D01*
G01X2561281Y1791158D01*
G01X2581837Y1797007D01*
G01X2600968Y1806533D01*
G01X2618023Y1819413D01*
G01X2632421Y1835207D01*
G01X2643672Y1853377D01*
G01X2651393Y1873306D01*
G01X2655320Y1894314D01*
G01X2655320Y1915686D01*
G01X2651393Y1936694D01*
G01X2643672Y1956623D01*
G01X2632421Y1974793D01*
G01X2618023Y1990587D01*
G01X2600968Y2003467D01*
G01X2581837Y2012993D01*
G01X2561281Y2018842D01*
G01X2540000Y2020814D01*
G01X2540000Y2020814D01*
G01X2518719Y2018842D01*
G01X2498163Y2012993D01*
G01X2479032Y2003467D01*
G01X2461977Y1990587D01*
G01X2447579Y1974793D01*
G01X2436328Y1956623D01*
G01X2428607Y1936694D01*
G01X2424680Y1915686D01*
G01X115320Y1915686D01*
G01X111393Y1936694D01*
G01X103672Y1956623D01*
G01X92421Y1974793D01*
G01X78023Y1990587D01*
G01X60968Y2003467D01*
G01X41837Y2012993D01*
G01X21281Y2018842D01*
G01X0Y2020814D01*
G01X0Y2020814D01*
G01X-21281Y2018842D01*
G01X-41837Y2012993D01*
G01X-60968Y2003467D01*
G01X-78023Y1990587D01*
G01X-92421Y1974793D01*
G01X-103672Y1956623D01*
G01X-111393Y1936694D01*
G01X-115320Y1915686D01*
G01X-3694186Y1915686D01*
G01X-3694186Y2400300D01*
G01X-841014Y2400300D01*
G01X-839315Y2385385D01*
G01X-834305Y2371234D01*
G01X-826240Y2358572D01*
G01X-815534Y2348049D01*
G01X-802736Y2340204D01*
G01X-788501Y2335438D01*
G01X-773558Y2333996D01*
G01X-758675Y2335951D01*
G01X-744612Y2341205D01*
G01X-732091Y2349486D01*
G01X-164194Y2349486D01*
G01X-81577Y2266869D01*
G01X-73432Y2260256D01*
G01X-64102Y2255456D01*
G01X-80388Y2242370D01*
G01X-94059Y2226571D01*
G01X-104668Y2208573D01*
G01X-111871Y2188961D01*
G01X-115434Y2168375D01*
G01X-115240Y2147483D01*
G01X-111296Y2126967D01*
G01X-103730Y2107492D01*
G01X-92788Y2089694D01*
G01X-78827Y2074152D01*
G01X-62300Y2061370D01*
G01X-43746Y2051766D01*
G01X-23768Y2045651D01*
G01X-3017Y2043225D01*
G01X17832Y2044567D01*
G01X38101Y2049633D01*
G01X57130Y2058258D01*
G01X74300Y2070161D01*
G01X89052Y2084955D01*
G01X100906Y2102159D01*
G01X109476Y2121213D01*
G01X114483Y2141496D01*
G01X115765Y2162349D01*
G01X113280Y2183093D01*
G01X107108Y2203053D01*
G01X97451Y2221579D01*
G01X84622Y2238069D01*
G01X69039Y2251986D01*
G01X2470961Y2251986D01*
G01X2455378Y2238069D01*
G01X2442549Y2221579D01*
G01X2432892Y2203053D01*
G01X2426720Y2183093D01*
G01X2424235Y2162349D01*
G01X2425517Y2141496D01*
G01X2430524Y2121213D01*
G01X2439094Y2102159D01*
G01X2450948Y2084955D01*
G01X2465700Y2070161D01*
G01X2482870Y2058258D01*
G01X2501899Y2049633D01*
G01X2522168Y2044567D01*
G01X2543017Y2043225D01*
G01X2563768Y2045651D01*
G01X2583746Y2051766D01*
G01X2602300Y2061370D01*
G01X2618827Y2074152D01*
G01X2632788Y2089694D01*
G01X2643730Y2107492D01*
G01X2651296Y2126967D01*
G01X2655240Y2147483D01*
G01X2655434Y2168375D01*
G01X2651871Y2188961D01*
G01X2644668Y2208573D01*
G01X2634059Y2226571D01*
G01X2620388Y2242370D01*
G01X2604102Y2255456D01*
G01X2613432Y2260256D01*
G01X2621577Y2266869D01*
G01X2704194Y2349486D01*
G01X3462591Y2349486D01*
G01X3475112Y2341205D01*
G01X3489175Y2335951D01*
G01X3504058Y2333996D01*
G01X3519001Y2335438D01*
G01X3533236Y2340204D01*
G01X3546034Y2348049D01*
G01X3556740Y2358572D01*
G01X3564805Y2371234D01*
G01X3569815Y2385385D01*
G01X3571514Y2400300D01*
G01X3569815Y2415215D01*
G01X3564805Y2429366D01*
G01X3556740Y2442028D01*
G01X3546034Y2452551D01*
G01X3533236Y2460396D01*
G01X3519001Y2465162D01*
G01X3504058Y2466604D01*
G01X3489175Y2464649D01*
G01X3475112Y2459395D01*
G01X3462591Y2451114D01*
G01X2683146Y2451114D01*
G01X2672238Y2449929D01*
G01X2661839Y2446431D01*
G01X2652432Y2440781D01*
G01X2646024Y2459603D01*
G01X2636490Y2477050D01*
G01X2624113Y2492611D01*
G01X2609257Y2505824D01*
G01X2592359Y2516302D01*
G01X2573919Y2523736D01*
G01X2554478Y2527905D01*
G01X2534611Y2528688D01*
G01X2514903Y2526062D01*
G01X2495934Y2520103D01*
G01X2478264Y2510988D01*
G01X2462414Y2498984D01*
G01X2448850Y2484446D01*
G01X2437973Y2467803D01*
G01X2430103Y2449545D01*
G01X2425472Y2430209D01*
G01X2424216Y2410366D01*
G01X2426373Y2390601D01*
G01X2431879Y2371496D01*
G01X2440571Y2353614D01*
G01X99429Y2353614D01*
G01X108121Y2371496D01*
G01X113627Y2390601D01*
G01X115784Y2410366D01*
G01X114528Y2430209D01*
G01X109897Y2449545D01*
G01X102027Y2467803D01*
G01X91150Y2484446D01*
G01X77586Y2498984D01*
G01X61736Y2510988D01*
G01X44066Y2520103D01*
G01X44066Y2520103D01*
G01X25097Y2526062D01*
G01X5389Y2528688D01*
G01X-14478Y2527905D01*
G01X-33919Y2523736D01*
G01X-52359Y2516302D01*
G01X-69257Y2505824D01*
G01X-84113Y2492611D01*
G01X-96490Y2477050D01*
G01X-106024Y2459603D01*
G01X-112432Y2440781D01*
G01X-121839Y2446431D01*
G01X-132238Y2449929D01*
G01X-143146Y2451114D01*
G01X-732091Y2451114D01*
G01X-744612Y2459395D01*
G01X-758675Y2464649D01*
G01X-773558Y2466604D01*
G01X-788501Y2465162D01*
G01X-802736Y2460396D01*
G01X-815534Y2452551D01*
G01X-826240Y2442028D01*
G01X-834305Y2429366D01*
G01X-839315Y2415215D01*
G01X-841014Y2400300D01*
G01X-3694186Y2400300D01*
G01X-3694186Y2587000D01*
G01X-115814Y2587000D01*
G01X-114061Y2575933D01*
G01X-108974Y2565949D01*
G01X-101051Y2558026D01*
G01X-91067Y2552939D01*
G01X-80000Y2551186D01*
G01X80000Y2551186D01*
G01X91067Y2552939D01*
G01X101051Y2558026D01*
G01X108974Y2565949D01*
G01X114061Y2575933D01*
G01X115814Y2587000D01*
G01X115814Y2747000D01*
G01X2424186Y2747000D01*
G01X2424186Y2587000D01*
G01X2424186Y2587000D01*
G01X2425939Y2575933D01*
G01X2431026Y2565949D01*
G01X2438949Y2558026D01*
G01X2448933Y2552939D01*
G01X2460000Y2551186D01*
G01X2620000Y2551186D01*
G01X2631067Y2552939D01*
G01X2641051Y2558026D01*
G01X2648974Y2565949D01*
G01X2654061Y2575933D01*
G01X2655814Y2587000D01*
G01X2655814Y2747000D01*
G01X2654061Y2758067D01*
G01X2648974Y2768051D01*
G01X2641051Y2775974D01*
G01X2631067Y2781061D01*
G01X2620000Y2782814D01*
G01X2460000Y2782814D01*
G01X2448933Y2781061D01*
G01X2438949Y2775974D01*
G01X2431026Y2768051D01*
G01X2425939Y2758067D01*
G01X2424186Y2747000D01*
G01X115814Y2747000D01*
G01X114061Y2758067D01*
G01X108974Y2768051D01*
G01X101051Y2775974D01*
G01X91067Y2781061D01*
G01X80000Y2782814D01*
G01X-80000Y2782814D01*
G01X-91067Y2781061D01*
G01X-101051Y2775974D01*
G01X-108974Y2768051D01*
G01X-114061Y2758067D01*
G01X-115814Y2747000D01*
G01X-115814Y2587000D01*
G01X-115814Y2587000D01*
G01X-3694186Y2587000D01*
G01X-3694186Y3622839D01*
G01X-2476101Y3622839D01*
G01X-2476101Y3462839D01*
G01X-2474348Y3451772D01*
G01X-2469261Y3441788D01*
G01X-2461338Y3433865D01*
G01X-2451354Y3428778D01*
G01X-2440287Y3427025D01*
G01X-2280287Y3427025D01*
G01X-2269220Y3428778D01*
G01X-2259236Y3433865D01*
G01X-2251313Y3441788D01*
G01X-2246226Y3451772D01*
G01X-2244473Y3462839D01*
G01X-2244473Y3542839D01*
G01X-2222101Y3542839D01*
G01X-2220129Y3521558D01*
G01X-2214280Y3501002D01*
G01X-2204754Y3481871D01*
G01X-2191874Y3464816D01*
G01X-2176080Y3450418D01*
G01X-2157909Y3439167D01*
G01X-2137981Y3431446D01*
G01X-2116973Y3427519D01*
G01X-2095601Y3427519D01*
G01X-2074593Y3431446D01*
G01X-2054664Y3439167D01*
G01X-2036493Y3450418D01*
G01X-2020699Y3464816D01*
G01X-2007820Y3481871D01*
G01X-1998294Y3501002D01*
G01X-1992445Y3521558D01*
G01X-1990473Y3542839D01*
G01X-1990473Y3542839D01*
G01X-1968101Y3542839D01*
G01X-1966129Y3521558D01*
G01X-1960280Y3501002D01*
G01X-1950754Y3481871D01*
G01X-1937874Y3464816D01*
G01X-1922080Y3450418D01*
G01X-1903909Y3439167D01*
G01X-1883981Y3431446D01*
G01X-1862973Y3427519D01*
G01X-1841601Y3427519D01*
G01X-1820593Y3431446D01*
G01X-1800664Y3439167D01*
G01X-1782493Y3450418D01*
G01X-1766699Y3464816D01*
G01X-1753820Y3481871D01*
G01X-1744294Y3501002D01*
G01X-1738445Y3521558D01*
G01X-1736473Y3542839D01*
G01X-1714101Y3542839D01*
G01X-1712129Y3521558D01*
G01X-1706280Y3501002D01*
G01X-1696754Y3481871D01*
G01X-1683874Y3464816D01*
G01X-1668080Y3450418D01*
G01X-1649909Y3439167D01*
G01X-1629981Y3431446D01*
G01X-1608973Y3427519D01*
G01X-1587601Y3427519D01*
G01X-1566593Y3431446D01*
G01X-1546664Y3439167D01*
G01X-1528493Y3450418D01*
G01X-1512699Y3464816D01*
G01X-1499820Y3481871D01*
G01X-1490294Y3501002D01*
G01X-1484445Y3521558D01*
G01X-1482473Y3542839D01*
G01X-1460101Y3542839D01*
G01X-1458129Y3521558D01*
G01X-1452280Y3501002D01*
G01X-1442754Y3481871D01*
G01X-1429874Y3464816D01*
G01X-1414080Y3450418D01*
G01X-1395909Y3439167D01*
G01X-1375981Y3431446D01*
G01X-1354973Y3427519D01*
G01X-1333601Y3427519D01*
G01X-1312593Y3431446D01*
G01X-1292664Y3439167D01*
G01X-1274493Y3450418D01*
G01X-1258699Y3464816D01*
G01X-1245820Y3481871D01*
G01X-1236294Y3501002D01*
G01X-1230445Y3521558D01*
G01X-1228473Y3542839D01*
G01X-1230445Y3564120D01*
G01X-1236294Y3584676D01*
G01X-1245820Y3603807D01*
G01X-1258699Y3620862D01*
G01X-1274493Y3635260D01*
G01X-1292664Y3646511D01*
G01X-1312593Y3654232D01*
G01X-1333601Y3658159D01*
G01X-1354973Y3658159D01*
G01X-1375981Y3654232D01*
G01X-1395909Y3646511D01*
G01X-1414080Y3635260D01*
G01X-1429874Y3620862D01*
G01X-1442754Y3603807D01*
G01X-1452280Y3584676D01*
G01X-1458129Y3564120D01*
G01X-1460101Y3542839D01*
G01X-1460101Y3542839D01*
G01X-1482473Y3542839D01*
G01X-1484445Y3564120D01*
G01X-1490294Y3584676D01*
G01X-1499820Y3603807D01*
G01X-1512699Y3620862D01*
G01X-1528493Y3635260D01*
G01X-1546664Y3646511D01*
G01X-1566593Y3654232D01*
G01X-1587601Y3658159D01*
G01X-1608973Y3658159D01*
G01X-1629981Y3654232D01*
G01X-1649909Y3646511D01*
G01X-1668080Y3635260D01*
G01X-1683874Y3620862D01*
G01X-1696754Y3603807D01*
G01X-1706280Y3584676D01*
G01X-1712129Y3564120D01*
G01X-1714101Y3542839D01*
G01X-1714101Y3542839D01*
G01X-1736473Y3542839D01*
G01X-1738445Y3564120D01*
G01X-1744294Y3584676D01*
G01X-1753820Y3603807D01*
G01X-1766699Y3620862D01*
G01X-1782493Y3635260D01*
G01X-1800664Y3646511D01*
G01X-1820593Y3654232D01*
G01X-1841601Y3658159D01*
G01X-1862973Y3658159D01*
G01X-1883981Y3654232D01*
G01X-1903909Y3646511D01*
G01X-1922080Y3635260D01*
G01X-1937874Y3620862D01*
G01X-1950754Y3603807D01*
G01X-1960280Y3584676D01*
G01X-1966129Y3564120D01*
G01X-1968101Y3542839D01*
G01X-1968101Y3542839D01*
G01X-1990473Y3542839D01*
G01X-1992445Y3564120D01*
G01X-1998294Y3584676D01*
G01X-2007820Y3603807D01*
G01X-2020699Y3620862D01*
G01X-2036493Y3635260D01*
G01X-2054664Y3646511D01*
G01X-2074593Y3654232D01*
G01X-2095601Y3658159D01*
G01X-2116973Y3658159D01*
G01X-2137981Y3654232D01*
G01X-2157909Y3646511D01*
G01X-2176080Y3635260D01*
G01X-2191874Y3620862D01*
G01X-2204754Y3603807D01*
G01X-2214280Y3584676D01*
G01X-2220129Y3564120D01*
G01X-2222101Y3542839D01*
G01X-2244473Y3542839D01*
G01X-2244473Y3622839D01*
G01X-2246226Y3633906D01*
G01X-2251313Y3643890D01*
G01X-2259236Y3651813D01*
G01X-2269220Y3656900D01*
G01X-2280287Y3658653D01*
G01X-2440287Y3658653D01*
G01X-2440287Y3658653D01*
G01X-2451354Y3656900D01*
G01X-2461338Y3651813D01*
G01X-2469261Y3643890D01*
G01X-2474348Y3633906D01*
G01X-2476101Y3622839D01*
G01X-3694186Y3622839D01*
G01X-3694186Y3727847D01*
G01X-789306Y3727847D01*
G01X-787398Y3702389D01*
G01X-781717Y3677499D01*
G01X-772390Y3653734D01*
G01X-759625Y3631624D01*
G01X-743708Y3611664D01*
G01X-724993Y3594300D01*
G01X-703899Y3579918D01*
G01X-680898Y3568841D01*
G01X-656502Y3561316D01*
G01X-631257Y3557511D01*
G01X-605727Y3557511D01*
G01X-580483Y3561316D01*
G01X-556087Y3568841D01*
G01X-533085Y3579918D01*
G01X-525339Y3585200D01*
G01X4075186Y3585200D01*
G01X4075186Y3425200D01*
G01X4076939Y3414133D01*
G01X4082026Y3404149D01*
G01X4089949Y3396226D01*
G01X4099933Y3391139D01*
G01X4111000Y3389386D01*
G01X4271000Y3389386D01*
G01X4282067Y3391139D01*
G01X4292051Y3396226D01*
G01X4299974Y3404149D01*
G01X4305061Y3414133D01*
G01X4306814Y3425200D01*
G01X4306814Y3505200D01*
G01X4329186Y3505200D01*
G01X4331158Y3483919D01*
G01X4337007Y3463363D01*
G01X4346533Y3444232D01*
G01X4359413Y3427177D01*
G01X4375207Y3412779D01*
G01X4393377Y3401528D01*
G01X4413306Y3393807D01*
G01X4434314Y3389880D01*
G01X4455686Y3389880D01*
G01X4476694Y3393807D01*
G01X4496623Y3401528D01*
G01X4514793Y3412779D01*
G01X4530587Y3427177D01*
G01X4543467Y3444232D01*
G01X4552993Y3463363D01*
G01X4558842Y3483919D01*
G01X4560814Y3505200D01*
G01X4560814Y3505200D01*
G01X4583186Y3505200D01*
G01X4585158Y3483919D01*
G01X4591007Y3463363D01*
G01X4600533Y3444232D01*
G01X4613413Y3427177D01*
G01X4629207Y3412779D01*
G01X4647377Y3401528D01*
G01X4667306Y3393807D01*
G01X4688314Y3389880D01*
G01X4709686Y3389880D01*
G01X4730694Y3393807D01*
G01X4750623Y3401528D01*
G01X4768793Y3412779D01*
G01X4784587Y3427177D01*
G01X4797467Y3444232D01*
G01X4806993Y3463363D01*
G01X4812842Y3483919D01*
G01X4814814Y3505200D01*
G01X4837186Y3505200D01*
G01X4839158Y3483919D01*
G01X4845007Y3463363D01*
G01X4854533Y3444232D01*
G01X4867413Y3427177D01*
G01X4883207Y3412779D01*
G01X4901377Y3401528D01*
G01X4921306Y3393807D01*
G01X4942314Y3389880D01*
G01X4963686Y3389880D01*
G01X4984694Y3393807D01*
G01X5004623Y3401528D01*
G01X5022793Y3412779D01*
G01X5038587Y3427177D01*
G01X5051467Y3444232D01*
G01X5060993Y3463363D01*
G01X5066842Y3483919D01*
G01X5068814Y3505200D01*
G01X5091186Y3505200D01*
G01X5093158Y3483919D01*
G01X5099007Y3463363D01*
G01X5108533Y3444232D01*
G01X5121413Y3427177D01*
G01X5137207Y3412779D01*
G01X5155377Y3401528D01*
G01X5175306Y3393807D01*
G01X5196314Y3389880D01*
G01X5217686Y3389880D01*
G01X5238694Y3393807D01*
G01X5258623Y3401528D01*
G01X5276793Y3412779D01*
G01X5292587Y3427177D01*
G01X5305467Y3444232D01*
G01X5314993Y3463363D01*
G01X5320842Y3483919D01*
G01X5322814Y3505200D01*
G01X5320842Y3526481D01*
G01X5314993Y3547037D01*
G01X5305467Y3566168D01*
G01X5292587Y3583223D01*
G01X5276793Y3597621D01*
G01X5258623Y3608872D01*
G01X5238694Y3616593D01*
G01X5217686Y3620520D01*
G01X5196314Y3620520D01*
G01X5175306Y3616593D01*
G01X5155377Y3608872D01*
G01X5137207Y3597621D01*
G01X5121413Y3583223D01*
G01X5108533Y3566168D01*
G01X5099007Y3547037D01*
G01X5093158Y3526481D01*
G01X5091186Y3505200D01*
G01X5091186Y3505200D01*
G01X5068814Y3505200D01*
G01X5066842Y3526481D01*
G01X5060993Y3547037D01*
G01X5051467Y3566168D01*
G01X5038587Y3583223D01*
G01X5022793Y3597621D01*
G01X5004623Y3608872D01*
G01X4984694Y3616593D01*
G01X4963686Y3620520D01*
G01X4942314Y3620520D01*
G01X4921306Y3616593D01*
G01X4901377Y3608872D01*
G01X4883207Y3597621D01*
G01X4867413Y3583223D01*
G01X4854533Y3566168D01*
G01X4845007Y3547037D01*
G01X4839158Y3526481D01*
G01X4837186Y3505200D01*
G01X4837186Y3505200D01*
G01X4814814Y3505200D01*
G01X4812842Y3526481D01*
G01X4806993Y3547037D01*
G01X4797467Y3566168D01*
G01X4784587Y3583223D01*
G01X4768793Y3597621D01*
G01X4750623Y3608872D01*
G01X4730694Y3616593D01*
G01X4709686Y3620520D01*
G01X4688314Y3620520D01*
G01X4667306Y3616593D01*
G01X4647377Y3608872D01*
G01X4629207Y3597621D01*
G01X4613413Y3583223D01*
G01X4600533Y3566168D01*
G01X4591007Y3547037D01*
G01X4585158Y3526481D01*
G01X4583186Y3505200D01*
G01X4583186Y3505200D01*
G01X4560814Y3505200D01*
G01X4558842Y3526481D01*
G01X4552993Y3547037D01*
G01X4543467Y3566168D01*
G01X4530587Y3583223D01*
G01X4514793Y3597621D01*
G01X4496623Y3608872D01*
G01X4476694Y3616593D01*
G01X4455686Y3620520D01*
G01X4434314Y3620520D01*
G01X4413306Y3616593D01*
G01X4393377Y3608872D01*
G01X4375207Y3597621D01*
G01X4359413Y3583223D01*
G01X4346533Y3566168D01*
G01X4337007Y3547037D01*
G01X4331158Y3526481D01*
G01X4329186Y3505200D01*
G01X4306814Y3505200D01*
G01X4306814Y3585200D01*
G01X4305061Y3596267D01*
G01X4299974Y3606251D01*
G01X4292051Y3614174D01*
G01X4282067Y3619261D01*
G01X4271000Y3621014D01*
G01X4111000Y3621014D01*
G01X4111000Y3621014D01*
G01X4099933Y3619261D01*
G01X4089949Y3614174D01*
G01X4082026Y3606251D01*
G01X4076939Y3596267D01*
G01X4075186Y3585200D01*
G01X-525339Y3585200D01*
G01X-511992Y3594300D01*
G01X-493277Y3611664D01*
G01X-477359Y3631624D01*
G01X-464594Y3653734D01*
G01X-455267Y3677499D01*
G01X-449586Y3702389D01*
G01X-447679Y3727847D01*
G01X-449586Y3753306D01*
G01X-455267Y3778195D01*
G01X-464594Y3801961D01*
G01X-477359Y3824070D01*
G01X-493277Y3844030D01*
G01X-511992Y3861395D01*
G01X-533085Y3875776D01*
G01X-556087Y3886853D01*
G01X-580483Y3894378D01*
G01X-605727Y3898183D01*
G01X-631257Y3898183D01*
G01X-656502Y3894378D01*
G01X-680898Y3886853D01*
G01X-703899Y3875776D01*
G01X-724993Y3861395D01*
G01X-743708Y3844030D01*
G01X-759625Y3824070D01*
G01X-772390Y3801961D01*
G01X-781717Y3778195D01*
G01X-787398Y3753306D01*
G01X-789306Y3727847D01*
G01X-789306Y3727847D01*
G01X-3694186Y3727847D01*
G01X-3694186Y4200000D01*
G01X-3515814Y4200000D01*
G01X-3513881Y4166819D01*
G01X-3508110Y4134087D01*
G01X-3498577Y4102246D01*
G01X-3485413Y4071727D01*
G01X-3468794Y4042943D01*
G01X-3448946Y4016282D01*
G01X-3426137Y3992106D01*
G01X-3400676Y3970742D01*
G01X-3372907Y3952478D01*
G01X-3343205Y3937561D01*
G01X-3311972Y3926193D01*
G01X-3279631Y3918528D01*
G01X-3246618Y3914670D01*
G01X-3213381Y3914670D01*
G01X-3180369Y3918528D01*
G01X-3148028Y3926193D01*
G01X-3116795Y3937561D01*
G01X-3087093Y3952478D01*
G01X-3059324Y3970742D01*
G01X-3033862Y3992106D01*
G01X-3011054Y4016282D01*
G01X-2991206Y4042943D01*
G01X-2974587Y4071727D01*
G01X-2961423Y4102246D01*
G01X-2951890Y4134087D01*
G01X-2946118Y4166819D01*
G01X-2944186Y4200000D01*
G01X5484186Y4200000D01*
G01X5486118Y4166819D01*
G01X5491890Y4134087D01*
G01X5501423Y4102246D01*
G01X5514587Y4071727D01*
G01X5531206Y4042943D01*
G01X5551054Y4016282D01*
G01X5573862Y3992106D01*
G01X5599324Y3970742D01*
G01X5627093Y3952478D01*
G01X5656795Y3937561D01*
G01X5688028Y3926193D01*
G01X5720369Y3918528D01*
G01X5753381Y3914670D01*
G01X5786618Y3914670D01*
G01X5819631Y3918528D01*
G01X5851972Y3926193D01*
G01X5883205Y3937561D01*
G01X5912907Y3952478D01*
G01X5940676Y3970742D01*
G01X5966137Y3992106D01*
G01X5988946Y4016282D01*
G01X6008794Y4042943D01*
G01X6025413Y4071727D01*
G01X6038577Y4102246D01*
G01X6048110Y4134087D01*
G01X6053881Y4166819D01*
G01X6055814Y4200000D01*
G01X6053881Y4233181D01*
G01X6048110Y4265913D01*
G01X6038577Y4297754D01*
G01X6025413Y4328273D01*
G01X6008794Y4357057D01*
G01X5988946Y4383718D01*
G01X5966137Y4407894D01*
G01X5940676Y4429258D01*
G01X5912907Y4447522D01*
G01X5883205Y4462439D01*
G01X5851972Y4473807D01*
G01X5819631Y4481472D01*
G01X5786618Y4485330D01*
G01X5753381Y4485330D01*
G01X5720369Y4481472D01*
G01X5688028Y4473807D01*
G01X5656795Y4462439D01*
G01X5627093Y4447522D01*
G01X5599324Y4429258D01*
G01X5573862Y4407894D01*
G01X5551054Y4383718D01*
G01X5531206Y4357057D01*
G01X5514587Y4328273D01*
G01X5501423Y4297754D01*
G01X5491890Y4265913D01*
G01X5486118Y4233181D01*
G01X5484186Y4200000D01*
G01X5484186Y4200000D01*
G01X-2944186Y4200000D01*
G01X-2944186Y4200000D01*
G01X-2946118Y4233181D01*
G01X-2951890Y4265913D01*
G01X-2961423Y4297754D01*
G01X-2974587Y4328273D01*
G01X-2991206Y4357057D01*
G01X-3011054Y4383718D01*
G01X-3033862Y4407894D01*
G01X-3059324Y4429258D01*
G01X-3087093Y4447522D01*
G01X-3116795Y4462439D01*
G01X-3148028Y4473807D01*
G01X-3180369Y4481472D01*
G01X-3213381Y4485330D01*
G01X-3246618Y4485330D01*
G01X-3279631Y4481472D01*
G01X-3311972Y4473807D01*
G01X-3343205Y4462439D01*
G01X-3372907Y4447522D01*
G01X-3400676Y4429258D01*
G01X-3426137Y4407894D01*
G01X-3448946Y4383718D01*
G01X-3468794Y4357057D01*
G01X-3485413Y4328273D01*
G01X-3498577Y4297754D01*
G01X-3508110Y4265913D01*
G01X-3513881Y4233181D01*
G01X-3515814Y4200000D01*
G01X-3515814Y4200000D01*
G01X-3694186Y4200000D01*
G01X-3694186Y4664186D01*
G01X6234186Y4664186D01*
G37*
G54D10*
G01X6234186Y4664186D02*
G01X6234186Y-5264186D01*
G01X-3694186Y-5264186D01*
G01X-3694186Y4664186D01*
G01X6234186Y4664186D01*
G01X-3515814Y4200000D02*
G03X-2944186Y4200000I285814J0D01*
G03X-3515814Y4200000I-285814J0D01*
G01X-3515772Y-4800045D02*
G03X-2944144Y-4800045I285814J0D01*
G03X-3515772Y-4800045I-285814J0D01*
G01X-3050000Y-4120814D02*
G03X-3014186Y-4085000I0J35814D01*
G01X-3014186Y-3915000D01*
G03X-3050000Y-3879186I-35814J0D01*
G01X-3220000Y-3879186D01*
G03X-3255814Y-3915000I0J-35814D01*
G01X-3255814Y-4085000D01*
G03X-3220000Y-4120814I35814J0D01*
G01X-3050000Y-4120814D01*
G01X-3001814Y-4000000D02*
G03X-2760186Y-4000000I120814J0D01*
G03X-3001814Y-4000000I-120814J0D01*
G01X-2747814Y-4000000D02*
G03X-2506186Y-4000000I120814J0D01*
G03X-2747814Y-4000000I-120814J0D01*
G01X-2493814Y-4000000D02*
G03X-2252186Y-4000000I120814J0D01*
G03X-2493814Y-4000000I-120814J0D01*
G01X-2440287Y3658653D02*
G03X-2476101Y3622839I0J-35814D01*
G01X-2476101Y3462839D01*
G03X-2440287Y3427025I35814J0D01*
G01X-2280287Y3427025D01*
G03X-2244473Y3462839I0J35814D01*
G01X-2244473Y3622839D01*
G03X-2280287Y3658653I-35814J0D01*
G01X-2440287Y3658653D01*
G01X-2239814Y-4000000D02*
G03X-1998186Y-4000000I120814J0D01*
G03X-2239814Y-4000000I-120814J0D01*
G01X-1990473Y3542839D02*
G03X-2222101Y3542839I-115814J0D01*
G03X-1990473Y3542839I115814J0D01*
G01X-2170831Y-4799998D02*
G03X-1829203Y-4799998I170814J0D01*
G03X-2170831Y-4799998I-170814J0D01*
G01X-1985814Y-4000000D02*
G03X-1744186Y-4000000I120814J0D01*
G03X-1985814Y-4000000I-120814J0D01*
G01X-1968101Y3542839D02*
G03X-1736473Y3542839I115814J0D01*
G03X-1968101Y3542839I-115814J0D01*
G01X-1714101Y3542839D02*
G03X-1482473Y3542839I115814J0D01*
G03X-1714101Y3542839I-115814J0D01*
G01X-1460101Y3542839D02*
G03X-1228473Y3542839I115814J0D01*
G03X-1460101Y3542839I-115814J0D01*
G01X-1170843Y-4799998D02*
G03X-829216Y-4799998I170814J0D01*
G03X-1170843Y-4799998I-170814J0D01*
G01X44066Y2520103D02*
G03X-112432Y2440781I-44066J-107103D01*
G03X-143146Y2451114I-30714J-40481D01*
G01X-732091Y2451114D01*
G03X-841014Y2400300I-42609J-50814D01*
G03X-732091Y2349486I66314J0D01*
G01X-164194Y2349486D01*
G01X-81577Y2266869D01*
G03X-64102Y2255456I35931J35931D01*
G03X-3017Y2043225I64102J-96456D01*
G03X69039Y2251986I3017J115775D01*
G01X2470961Y2251986D01*
G03X2543017Y2043225I69039J-92986D01*
G03X2604102Y2255456I-3017J115775D01*
G03X2621577Y2266869I-18456J47344D01*
G01X2704194Y2349486D01*
G01X3462591Y2349486D01*
G03X3571514Y2400300I42609J50814D01*
G03X3462591Y2451114I-66314J0D01*
G01X2683146Y2451114D01*
G03X2652432Y2440781I0J-50814D01*
G03X2495934Y2520103I-112432J-27781D01*
G03X2440571Y2353614I44066J-107103D01*
G01X99429Y2353614D01*
G03X44066Y2520103I-99429J59386D01*
G01X-789306Y3727847D02*
G03X-447679Y3727847I170814J0D01*
G03X-789306Y3727847I-170814J0D01*
G01X-170765Y-4799998D02*
G03X170862Y-4799998I170814J0D01*
G03X-170765Y-4799998I-170814J0D01*
G01X-115814Y2587000D02*
G03X-80000Y2551186I35814J0D01*
G01X80000Y2551186D01*
G03X115814Y2587000I0J35814D01*
G01X115814Y2747000D01*
G03X80000Y2782814I-35814J0D01*
G01X-80000Y2782814D01*
G03X-115814Y2747000I0J-35814D01*
G01X-115814Y2587000D01*
G01X0Y2020814D02*
G03X0Y1789186I0J-115814D01*
G03X0Y2020814I0J115814D01*
G01X0Y1766814D02*
G03X0Y1535186I0J-115814D01*
G03X0Y1766814I0J115814D01*
G01X0Y1512814D02*
G03X0Y1281186I0J-115814D01*
G03X0Y1512814I0J115814D01*
G01X0Y1258814D02*
G03X0Y1027186I0J-115814D01*
G03X0Y1258814I0J115814D01*
G01X0Y1004814D02*
G03X0Y773186I0J-115814D01*
G03X0Y1004814I0J115814D01*
G01X0Y750814D02*
G03X0Y519186I0J-115814D01*
G03X0Y750814I0J115814D01*
G01X0Y496814D02*
G03X0Y265186I0J-115814D01*
G03X0Y496814I0J115814D01*
G01X0Y242814D02*
G03X0Y11186I0J-115814D01*
G03X0Y242814I0J115814D01*
G01X0Y-11186D02*
G03X0Y-242814I0J-115814D01*
G03X0Y-11186I0J115814D01*
G01X0Y-265186D02*
G03X0Y-496814I0J-115814D01*
G03X0Y-265186I0J115814D01*
G01X0Y-519186D02*
G03X0Y-750814I0J-115814D01*
G03X0Y-519186I0J115814D01*
G01X0Y-773186D02*
G03X0Y-1004814I0J-115814D01*
G03X0Y-773186I0J115814D01*
G01X0Y-1027186D02*
G03X0Y-1258814I0J-115814D01*
G03X0Y-1027186I0J115814D01*
G01X0Y-1281186D02*
G03X0Y-1512814I0J-115814D01*
G03X0Y-1281186I0J115814D01*
G01X0Y-1535186D02*
G03X0Y-1766814I0J-115814D01*
G03X0Y-1535186I0J115814D01*
G01X0Y-1789186D02*
G03X0Y-2020814I0J-115814D01*
G03X0Y-1789186I0J115814D01*
G01X0Y-2043186D02*
G03X0Y-2274814I0J-115814D01*
G03X0Y-2043186I0J115814D01*
G01X0Y-2297186D02*
G03X0Y-2528814I0J-115814D01*
G03X0Y-2297186I0J115814D01*
G01X0Y-2551186D02*
G03X0Y-2782814I0J-115814D01*
G03X0Y-2551186I0J115814D01*
G01X365486Y-2933700D02*
G03X474409Y-2984514I66314J0D01*
G01X5463249Y-2984514D01*
G03X5578224Y-2997975I61251J25414D01*
G03X5529488Y-2892974I-53724J38875D01*
G03X5499100Y-2882886I-30388J-40726D01*
G01X474409Y-2882886D01*
G03X365486Y-2933700I-42609J-50814D01*
G01X416286Y-889000D02*
G03X525209Y-939814I66314J0D01*
G01X986091Y-939814D01*
G03X1095014Y-889000I42609J50814D01*
G03X986091Y-838186I-66314J0D01*
G01X525209Y-838186D01*
G03X416286Y-889000I-42609J-50814D01*
G01X829180Y-4799987D02*
G03X1170808Y-4799987I170814J0D01*
G03X829180Y-4799987I-170814J0D01*
G01X1829146Y-4799987D02*
G03X2170773Y-4799987I170814J0D01*
G03X1829146Y-4799987I-170814J0D01*
G01X2424186Y2587000D02*
G03X2460000Y2551186I35814J0D01*
G01X2620000Y2551186D01*
G03X2655814Y2587000I0J35814D01*
G01X2655814Y2747000D01*
G03X2620000Y2782814I-35814J0D01*
G01X2460000Y2782814D01*
G03X2424186Y2747000I0J-35814D01*
G01X2424186Y2587000D01*
G01X2540000Y2020814D02*
G03X2540000Y1789186I0J-115814D01*
G03X2540000Y2020814I0J115814D01*
G01X2540000Y1766814D02*
G03X2540000Y1535186I0J-115814D01*
G03X2540000Y1766814I0J115814D01*
G01X2540000Y1258814D02*
G03X2540000Y1027186I0J-115814D01*
G03X2540000Y1258814I0J115814D01*
G01X2540000Y1512814D02*
G03X2540000Y1281186I0J-115814D01*
G03X2540000Y1512814I0J115814D01*
G01X2540000Y496814D02*
G03X2540000Y265186I0J-115814D01*
G03X2540000Y496814I0J115814D01*
G01X2540000Y750814D02*
G03X2540000Y519186I0J-115814D01*
G03X2540000Y750814I0J115814D01*
G01X2540000Y1004814D02*
G03X2540000Y773186I0J-115814D01*
G03X2540000Y1004814I0J115814D01*
G01X2540000Y-11186D02*
G03X2540000Y-242814I0J-115814D01*
G03X2540000Y-11186I0J115814D01*
G01X2540000Y242814D02*
G03X2540000Y11186I0J-115814D01*
G03X2540000Y242814I0J115814D01*
G01X2540000Y-773186D02*
G03X2540000Y-1004814I0J-115814D01*
G03X2540000Y-773186I0J115814D01*
G01X2540000Y-519186D02*
G03X2540000Y-750814I0J-115814D01*
G03X2540000Y-519186I0J115814D01*
G01X2540000Y-265186D02*
G03X2540000Y-496814I0J-115814D01*
G03X2540000Y-265186I0J115814D01*
G01X2540000Y-1027186D02*
G03X2540000Y-1258814I0J-115814D01*
G03X2540000Y-1027186I0J115814D01*
G01X2540000Y-1281186D02*
G03X2540000Y-1512814I0J-115814D01*
G03X2540000Y-1281186I0J115814D01*
G01X2540000Y-1789186D02*
G03X2540000Y-2020814I0J-115814D01*
G03X2540000Y-1789186I0J115814D01*
G01X2540000Y-1535186D02*
G03X2540000Y-1766814I0J-115814D01*
G03X2540000Y-1535186I0J115814D01*
G01X2540000Y-2043186D02*
G03X2540000Y-2274814I0J-115814D01*
G03X2540000Y-2043186I0J115814D01*
G01X2540000Y-2551186D02*
G03X2540000Y-2782814I0J-115814D01*
G03X2540000Y-2551186I0J115814D01*
G01X2540000Y-2297186D02*
G03X2540000Y-2528814I0J-115814D01*
G03X2540000Y-2297186I0J115814D01*
G01X3808797Y-4111314D02*
G03X3844611Y-4075500I0J35814D01*
G01X3844611Y-3925500D01*
G03X3808797Y-3889686I-35814J0D01*
G01X3658798Y-3889686D01*
G03X3622984Y-3925500I0J-35814D01*
G01X3622984Y-4075500D01*
G03X3658798Y-4111314I35814J0D01*
G01X3808797Y-4111314D01*
G01X3876984Y-4000500D02*
G03X4098611Y-4000500I110814J0D01*
G03X3876984Y-4000500I-110814J0D01*
G01X4111000Y3621014D02*
G03X4075186Y3585200I0J-35814D01*
G01X4075186Y3425200D01*
G03X4111000Y3389386I35814J0D01*
G01X4271000Y3389386D01*
G03X4306814Y3425200I0J35814D01*
G01X4306814Y3585200D01*
G03X4271000Y3621014I-35814J0D01*
G01X4111000Y3621014D01*
G01X4130984Y-4000500D02*
G03X4352611Y-4000500I110814J0D01*
G03X4130984Y-4000500I-110814J0D01*
G01X4560814Y3505200D02*
G03X4329186Y3505200I-115814J0D01*
G03X4560814Y3505200I115814J0D01*
G01X4384984Y-4000500D02*
G03X4606611Y-4000500I110814J0D01*
G03X4384984Y-4000500I-110814J0D01*
G01X4583186Y3505200D02*
G03X4814814Y3505200I115814J0D01*
G03X4583186Y3505200I-115814J0D01*
G01X4638984Y-4000500D02*
G03X4860611Y-4000500I110814J0D01*
G03X4638984Y-4000500I-110814J0D01*
G01X4837186Y3505200D02*
G03X5068814Y3505200I115814J0D01*
G03X4837186Y3505200I-115814J0D01*
G01X4892984Y-4000500D02*
G03X5114611Y-4000500I110814J0D01*
G03X4892984Y-4000500I-110814J0D01*
G01X5091186Y3505200D02*
G03X5322814Y3505200I115814J0D01*
G03X5091186Y3505200I-115814J0D01*
G01X5146984Y-4000500D02*
G03X5368611Y-4000500I110814J0D01*
G03X5146984Y-4000500I-110814J0D01*
G01X5400984Y-4000500D02*
G03X5622611Y-4000500I110814J0D01*
G03X5400984Y-4000500I-110814J0D01*
G01X5484186Y4200000D02*
G03X6055814Y4200000I285814J0D01*
G03X5484186Y4200000I-285814J0D01*
G01X5484186Y-4800000D02*
G03X6055814Y-4800000I285814J0D01*
G03X5484186Y-4800000I-285814J0D01*
G54D11*
G01X-2881000Y-4000000D02*
G01X-2991654Y-4000000D01*
G01X-2881000Y-4000000D02*
G01X-2770346Y-4000000D01*
G01X-2881000Y-4000000D02*
G01X-2881000Y-3889346D01*
G01X-2881000Y-4000000D02*
G01X-2881000Y-4110654D01*
G01X-1865000Y-4000000D02*
G01X-1975654Y-4000000D01*
G01X-1865000Y-4000000D02*
G01X-1754346Y-4000000D01*
G01X-1865000Y-4000000D02*
G01X-1865000Y-3889346D01*
G01X-1865000Y-4000000D02*
G01X-1865000Y-4110654D01*
G01X0Y-2667000D02*
G01X0Y-2561346D01*
G01X0Y-2667000D02*
G01X0Y-2772654D01*
G01X0Y-2667000D02*
G01X105654Y-2667000D01*
G01X0Y-2667000D02*
G01X-105654Y-2667000D01*
G01X49Y-4799998D02*
G01X-160605Y-4799998D01*
G01X49Y-4799998D02*
G01X160702Y-4799998D01*
G01X49Y-4799998D02*
G01X49Y-4639344D01*
G01X49Y-4799998D02*
G01X49Y-4960652D01*
G01X3987797Y-4000500D02*
G01X3887144Y-4000500D01*
G01X3987797Y-4000500D02*
G01X4088451Y-4000500D01*
G01X3987797Y-4000500D02*
G01X3987797Y-3899846D01*
G01X3987797Y-4000500D02*
G01X3987797Y-4101154D01*
G01X4445000Y3505200D02*
G01X4550654Y3505200D01*
G01X4445000Y3505200D02*
G01X4339346Y3505200D01*
G01X4445000Y3505200D02*
G01X4445000Y3399546D01*
G01X4445000Y3505200D02*
G01X4445000Y3610854D01*
G01X5257797Y-4000500D02*
G01X5157144Y-4000500D01*
G01X5257797Y-4000500D02*
G01X5358451Y-4000500D01*
G01X5257797Y-4000500D02*
G01X5257797Y-3899846D01*
G01X5257797Y-4000500D02*
G01X5257797Y-4101154D01*
G01X-2106287Y3542839D02*
G01X-2000633Y3542839D01*
G01X-2106287Y3542839D02*
G01X-2211941Y3542839D01*
G01X-2106287Y3542839D02*
G01X-2106287Y3437185D01*
G01X-2106287Y3542839D02*
G01X-2106287Y3648493D01*
G04 Copper End*

G04 Pad Start*
G54D12*
G01X0Y2667000D03*
G54D13*
G01X0Y2413000D03*
G01X0Y2159000D03*
G01X0Y1905000D03*
G01X0Y1651000D03*
G01X0Y1397000D03*
G01X0Y1143000D03*
G01X0Y889000D03*
G01X0Y635000D03*
G01X0Y381000D03*
G01X0Y127000D03*
G01X0Y-127000D03*
G01X0Y-381000D03*
G01X0Y-635000D03*
G01X0Y-889000D03*
G01X0Y-1143000D03*
G01X0Y-1397000D03*
G01X0Y-1651000D03*
G01X0Y-1905000D03*
G01X0Y-2159000D03*
G01X0Y-2413000D03*
G01X0Y-2667000D03*
G54D12*
G01X2540000Y2667000D03*
G54D13*
G01X2540000Y2413000D03*
G01X2540000Y2159000D03*
G01X2540000Y1905000D03*
G01X2540000Y1651000D03*
G01X2540000Y1397000D03*
G01X2540000Y1143000D03*
G01X2540000Y889000D03*
G01X2540000Y635000D03*
G01X2540000Y381000D03*
G01X2540000Y127000D03*
G01X2540000Y-127000D03*
G01X2540000Y-381000D03*
G01X2540000Y-635000D03*
G01X2540000Y-889000D03*
G01X2540000Y-1143000D03*
G01X2540000Y-1397000D03*
G01X2540000Y-1651000D03*
G01X2540000Y-1905000D03*
G01X2540000Y-2159000D03*
G01X2540000Y-2413000D03*
G01X2540000Y-2667000D03*
G01X4699000Y3505200D03*
G01X4953000Y3505200D03*
G01X5207000Y3505200D03*
G54D12*
G01X4191000Y3505200D03*
G54D13*
G01X4445000Y3505200D03*
G54D14*
G01X-3135000Y-4000000D03*
G54D16*
G01X-2881000Y-4000000D03*
G01X-2627000Y-4000000D03*
G01X-2373000Y-4000000D03*
G01X-2119000Y-4000000D03*
G01X-1865000Y-4000000D03*
G54D17*
G01X5511797Y-4000500D03*
G01X5257797Y-4000500D03*
G01X5003797Y-4000500D03*
G01X4749797Y-4000500D03*
G01X4495797Y-4000500D03*
G01X4241797Y-4000500D03*
G01X3987797Y-4000500D03*
G54D18*
G01X3733797Y-4000500D03*
G54D19*
G01X-2000017Y-4799998D03*
G01X-1000029Y-4799998D03*
G01X49Y-4799998D03*
G01X999994Y-4799987D03*
G01X1999960Y-4799987D03*
G01X-618492Y3727847D03*
G54D13*
G01X-1852287Y3542839D03*
G01X-1598287Y3542839D03*
G01X-1344287Y3542839D03*
G54D12*
G01X-2360287Y3542839D03*
G54D13*
G01X-2106287Y3542839D03*
G04 Pad End*

G04 Via Start*
G54D20*
G01X5770000Y4200000D03*
G01X-3230000Y4200000D03*
G01X5770000Y-4800000D03*
G54D21*
G01X5524500Y-2959100D03*
G54D20*
G01X-3229958Y-4800045D03*
G54D21*
G01X482600Y-889000D03*
G01X1028700Y-889000D03*
G01X431800Y-2933700D03*
G01X3505200Y2400300D03*
G01X-774700Y2400300D03*
G04 Via End*

G04 Track Start*
G54D22*
G01X482600Y-889000D02*
G01X1028700Y-889000D01*
G01X431800Y-2933700D02*
G01X5499100Y-2933700D01*
G01X5524500Y-2959100D01*
G01X3505200Y2400300D02*
G01X2683146Y2400300D01*
G01X-45646Y2302800D02*
G01X-143146Y2400300D01*
G01X2683146Y2400300D02*
G01X2585646Y2302800D01*
G01X-45646Y2302800D01*
G01X-143146Y2400300D02*
G01X-774700Y2400300D01*
G04 Track End*

M02*

